<?xml version="1.0" standalone="yes"?>

<svg version="1.1" viewBox="0.0 0.0 353.251968503937 257.1994750656168" fill="none" stroke="none" stroke-linecap="square" stroke-miterlimit="10" xmlns="http://www.w3.org/2000/svg" xmlns:xlink="http://www.w3.org/1999/xlink"><clipPath id="p.0"><path d="m0 0l353.25198 0l0 257.19946l-353.25198 0l0 -257.19946z" clip-rule="nonzero"></path></clipPath><g clip-path="url(#p.0)"><path fill="#000000" fill-opacity="0.0" d="m0 0l353.25198 0l0 257.19946l-353.25198 0z" fill-rule="evenodd"></path><defs><linearGradient id="p.1" gradientUnits="userSpaceOnUse" gradientTransform="matrix(-7.483333954452803 0.0 0.0 -7.483333954452803 0.0 0.0)" spreadMethod="pad" x1="-14.966591185384253" y1="-24.588009594841783" x2="-14.966618586606046" y2="-17.104675640439147"><stop offset="0.0" stop-color="#ffffff"></stop><stop offset="1.0" stop-color="#b3b3b3"></stop></linearGradient></defs><path fill="url(#p.1)" d="m112.0 128.0l-15.9997635 56.0l-64.00024 0l15.99976 -56.0z" fill-rule="evenodd"></path><path stroke="#000000" stroke-width="1.0" stroke-linejoin="round" stroke-linecap="butt" d="m112.0 128.0l-15.9997635 56.0l-64.00024 0l15.99976 -56.0z" fill-rule="evenodd"></path><defs><radialGradient id="p.2" gradientUnits="userSpaceOnUse" gradientTransform="matrix(-3.3635856653478005 0.0 0.0 -3.3635856653478005 0.0 0.0)" spreadMethod="pad" cx="-26.162556496357485" cy="-42.81145608494861" fx="-26.162556496357485" fy="-42.81145608494861" r="3.3635857105255127"><stop offset="0.0" stop-color="#db0000"></stop><stop offset="1.0" stop-color="#540303"></stop></radialGradient></defs><path fill="url(#p.2)" d="m96.0 144.0l0 0c0 4.418274 -3.5817184 8.0 -8.0 8.0l0 0c-2.1217346 0 -4.156563 -0.84284973 -5.6568527 -2.3431396c-1.5002899 -1.5002899 -2.3431473 -3.5351257 -2.3431473 -5.6568604l0 0c0 -4.418274 3.5817184 -8.0 8.0 -8.0l0 0c4.4182816 0 8.0 3.581726 8.0 8.0z" fill-rule="evenodd"></path><path stroke="#000000" stroke-width="1.0" stroke-linejoin="round" stroke-linecap="butt" d="m96.0 144.0l0 0c0 4.418274 -3.5817184 8.0 -8.0 8.0l0 0c-2.1217346 0 -4.156563 -0.84284973 -5.6568527 -2.3431396c-1.5002899 -1.5002899 -2.3431473 -3.5351257 -2.3431473 -5.6568604l0 0c0 -4.418274 3.5817184 -8.0 8.0 -8.0l0 0c4.4182816 0 8.0 3.581726 8.0 8.0z" fill-rule="evenodd"></path><defs><radialGradient id="p.3" gradientUnits="userSpaceOnUse" gradientTransform="matrix(-3.3635856653478005 0.0 0.0 -3.3635856653478005 0.0 0.0)" spreadMethod="pad" cx="-19.027313815532715" cy="-42.81145608494861" fx="-19.027313815532715" fy="-42.81145608494861" r="3.3635857105255127"><stop offset="0.0" stop-color="#51ab2a"></stop><stop offset="1.0" stop-color="#203e13"></stop></radialGradient></defs><path fill="url(#p.3)" d="m72.0 144.0l0 0c0 4.418274 -3.5817184 8.0 -8.0 8.0l0 0c-2.1217308 0 -4.156563 -0.84284973 -5.6568527 -2.3431396c-1.5002937 -1.5002899 -2.3431473 -3.5351257 -2.3431473 -5.6568604l0 0c0 -4.418274 3.5817223 -8.0 8.0 -8.0l0 0c4.4182816 0 8.0 3.581726 8.0 8.0z" fill-rule="evenodd"></path><path stroke="#000000" stroke-width="1.0" stroke-linejoin="round" stroke-linecap="butt" d="m72.0 144.0l0 0c0 4.418274 -3.5817184 8.0 -8.0 8.0l0 0c-2.1217308 0 -4.156563 -0.84284973 -5.6568527 -2.3431396c-1.5002937 -1.5002899 -2.3431473 -3.5351257 -2.3431473 -5.6568604l0 0c0 -4.418274 3.5817223 -8.0 8.0 -8.0l0 0c4.4182816 0 8.0 3.581726 8.0 8.0z" fill-rule="evenodd"></path><defs><radialGradient id="p.4" gradientUnits="userSpaceOnUse" gradientTransform="matrix(-3.3635856653478005 0.0 0.0 -3.3635856653478005 0.0 0.0)" spreadMethod="pad" cx="-16.648899588591124" cy="-49.94669876577338" fx="-16.648899588591124" fy="-49.94669876577338" r="3.3635857105255127"><stop offset="0.0" stop-color="#3177ee"></stop><stop offset="1.0" stop-color="#113d8a"></stop></radialGradient></defs><path fill="url(#p.4)" d="m64.0 168.0l0 0c0 4.418274 -3.5817223 8.0 -8.0 8.0l0 0c-2.1217308 0 -4.156563 -0.84284973 -5.6568527 -2.3431396c-1.5002937 -1.5002899 -2.3431473 -3.5351257 -2.3431473 -5.6568604l0 0c0 -4.418274 3.5817223 -8.0 8.0 -8.0l0 0c4.4182777 0 8.0 3.581726 8.0 8.0z" fill-rule="evenodd"></path><path stroke="#000000" stroke-width="1.0" stroke-linejoin="round" stroke-linecap="butt" d="m64.0 168.0l0 0c0 4.418274 -3.5817223 8.0 -8.0 8.0l0 0c-2.1217308 0 -4.156563 -0.84284973 -5.6568527 -2.3431396c-1.5002937 -1.5002899 -2.3431473 -3.5351257 -2.3431473 -5.6568604l0 0c0 -4.418274 3.5817223 -8.0 8.0 -8.0l0 0c4.4182777 0 8.0 3.581726 8.0 8.0z" fill-rule="evenodd"></path><defs><linearGradient id="p.5" gradientUnits="userSpaceOnUse" gradientTransform="matrix(7.483333954451565 0.0 0.0 7.483333954451565 0.0 0.0)" spreadMethod="pad" x1="10.690422275276234" y1="24.58793287142483" x2="10.690395559084987" y2="32.0712668258287"><stop offset="0.0" stop-color="#ffffff"></stop><stop offset="1.0" stop-color="#b3b3b3"></stop></linearGradient></defs><path fill="url(#p.5)" d="m80.0 240.0l15.9997635 -56.0l64.00024 0l-15.999756 56.0z" fill-rule="evenodd"></path><path stroke="#000000" stroke-width="1.0" stroke-linejoin="round" stroke-linecap="butt" d="m80.0 240.0l15.9997635 -56.0l64.00024 0l-15.999756 56.0z" fill-rule="evenodd"></path><defs><radialGradient id="p.6" gradientUnits="userSpaceOnUse" gradientTransform="matrix(3.3635856653478005 0.0 0.0 3.3635856653478005 0.0 0.0)" spreadMethod="pad" cx="30.919384950240662" cy="66.5955983543645" fx="30.919384950240662" fy="66.5955983543645" r="3.3635857105255127"><stop offset="0.0" stop-color="#db0000"></stop><stop offset="1.0" stop-color="#540303"></stop></radialGradient></defs><path fill="url(#p.6)" d="m96.0 224.0l0 0c0 -4.418274 3.5817184 -8.0 8.0 -8.0l0 0c2.1217346 0 4.156563 0.84284973 5.6568527 2.3431396c1.5002899 1.5002899 2.3431473 3.5351257 2.3431473 5.6568604l0 0c0 4.418274 -3.5817184 8.0 -8.0 8.0l0 0c-4.4182816 0 -8.0 -3.581726 -8.0 -8.0z" fill-rule="evenodd"></path><path stroke="#000000" stroke-width="1.0" stroke-linejoin="round" stroke-linecap="butt" d="m96.0 224.0l0 0c0 -4.418274 3.5817184 -8.0 8.0 -8.0l0 0c2.1217346 0 4.156563 0.84284973 5.6568527 2.3431396c1.5002899 1.5002899 2.3431473 3.5351257 2.3431473 5.6568604l0 0c0 4.418274 -3.5817184 8.0 -8.0 8.0l0 0c-4.4182816 0 -8.0 -3.581726 -8.0 -8.0z" fill-rule="evenodd"></path><defs><radialGradient id="p.7" gradientUnits="userSpaceOnUse" gradientTransform="matrix(3.3635856653478005 0.0 0.0 3.3635856653478005 0.0 0.0)" spreadMethod="pad" cx="38.05462763106543" cy="66.5955983543645" fx="38.05462763106543" fy="66.5955983543645" r="3.3635857105255127"><stop offset="0.0" stop-color="#51ab2a"></stop><stop offset="1.0" stop-color="#203e13"></stop></radialGradient></defs><path fill="url(#p.7)" d="m120.0 224.0l0 0c0 -4.418274 3.5817184 -8.0 8.0 -8.0l0 0c2.1217346 0 4.1565704 0.84284973 5.6568604 2.3431396c1.5002899 1.5002899 2.3431396 3.5351257 2.3431396 5.6568604l0 0c0 4.418274 -3.581726 8.0 -8.0 8.0l0 0c-4.4182816 0 -8.0 -3.581726 -8.0 -8.0z" fill-rule="evenodd"></path><path stroke="#000000" stroke-width="1.0" stroke-linejoin="round" stroke-linecap="butt" d="m120.0 224.0l0 0c0 -4.418274 3.5817184 -8.0 8.0 -8.0l0 0c2.1217346 0 4.1565704 0.84284973 5.6568604 2.3431396c1.5002899 1.5002899 2.3431396 3.5351257 2.3431396 5.6568604l0 0c0 4.418274 -3.581726 8.0 -8.0 8.0l0 0c-4.4182816 0 -8.0 -3.581726 -8.0 -8.0z" fill-rule="evenodd"></path><defs><radialGradient id="p.8" gradientUnits="userSpaceOnUse" gradientTransform="matrix(3.3635856653478005 0.0 0.0 3.3635856653478005 0.0 0.0)" spreadMethod="pad" cx="40.43304185800702" cy="59.46035567353974" fx="40.43304185800702" fy="59.46035567353974" r="3.3635857105255127"><stop offset="0.0" stop-color="#3177ee"></stop><stop offset="1.0" stop-color="#113d8a"></stop></radialGradient></defs><path fill="url(#p.8)" d="m128.0 200.0l0 0c0 -4.418274 3.581726 -8.0 8.0 -8.0l0 0c2.1217346 0 4.1565704 0.84284973 5.6568604 2.3431396c1.5002899 1.5002899 2.3431396 3.5351257 2.3431396 5.6568604l0 0c0 4.418274 -3.581726 8.0 -8.0 8.0l0 0c-4.418274 0 -8.0 -3.581726 -8.0 -8.0z" fill-rule="evenodd"></path><path stroke="#000000" stroke-width="1.0" stroke-linejoin="round" stroke-linecap="butt" d="m128.0 200.0l0 0c0 -4.418274 3.581726 -8.0 8.0 -8.0l0 0c2.1217346 0 4.1565704 0.84284973 5.6568604 2.3431396c1.5002899 1.5002899 2.3431396 3.5351257 2.3431396 5.6568604l0 0c0 4.418274 -3.581726 8.0 -8.0 8.0l0 0c-4.418274 0 -8.0 -3.581726 -8.0 -8.0z" fill-rule="evenodd"></path><defs><linearGradient id="p.9" gradientUnits="userSpaceOnUse" gradientTransform="matrix(-7.483333954448037 0.0 0.0 -7.483333954448037 0.0 0.0)" spreadMethod="pad" x1="-23.5189290056188" y1="-24.58800959485744" x2="-23.518953666718417" y2="-17.10467564045004"><stop offset="0.0" stop-color="#ffffff"></stop><stop offset="1.0" stop-color="#b3b3b3"></stop></linearGradient></defs><path fill="url(#p.9)" d="m176.0 128.0l-15.999756 56.0l-64.000244 0l15.9997635 -56.0z" fill-rule="evenodd"></path><path stroke="#000000" stroke-width="1.0" stroke-linejoin="round" stroke-linecap="butt" d="m176.0 128.0l-15.999756 56.0l-64.000244 0l15.9997635 -56.0z" fill-rule="evenodd"></path><defs><radialGradient id="p.10" gradientUnits="userSpaceOnUse" gradientTransform="matrix(-3.3635856653478005 0.0 0.0 -3.3635856653478005 0.0 0.0)" spreadMethod="pad" cx="-45.189870311890196" cy="-42.81145608494861" fx="-45.189870311890196" fy="-42.81145608494861" r="3.3635857105255127"><stop offset="0.0" stop-color="#db0000"></stop><stop offset="1.0" stop-color="#540303"></stop></radialGradient></defs><path fill="url(#p.10)" d="m160.0 144.0l0 0c0 4.418274 -3.581726 8.0 -8.0 8.0l0 0c-2.1217346 0 -4.1565704 -0.84284973 -5.6568604 -2.3431396c-1.5002899 -1.5002899 -2.3431396 -3.5351257 -2.3431396 -5.6568604l0 0c0 -4.418274 3.581726 -8.0 8.0 -8.0l0 0c4.418274 0 8.0 3.581726 8.0 8.0z" fill-rule="evenodd"></path><path stroke="#000000" stroke-width="1.0" stroke-linejoin="round" stroke-linecap="butt" d="m160.0 144.0l0 0c0 4.418274 -3.581726 8.0 -8.0 8.0l0 0c-2.1217346 0 -4.1565704 -0.84284973 -5.6568604 -2.3431396c-1.5002899 -1.5002899 -2.3431396 -3.5351257 -2.3431396 -5.6568604l0 0c0 -4.418274 3.581726 -8.0 8.0 -8.0l0 0c4.418274 0 8.0 3.581726 8.0 8.0z" fill-rule="evenodd"></path><defs><radialGradient id="p.11" gradientUnits="userSpaceOnUse" gradientTransform="matrix(-3.3635856653478005 0.0 0.0 -3.3635856653478005 0.0 0.0)" spreadMethod="pad" cx="-38.05462763106543" cy="-42.81145608494861" fx="-38.05462763106543" fy="-42.81145608494861" r="3.3635857105255127"><stop offset="0.0" stop-color="#51ab2a"></stop><stop offset="1.0" stop-color="#203e13"></stop></radialGradient></defs><path fill="url(#p.11)" d="m136.0 144.0l0 0c0 4.418274 -3.581726 8.0 -8.0 8.0l0 0c-2.1217346 0 -4.156563 -0.84284973 -5.6568527 -2.3431396c-1.5002899 -1.5002899 -2.3431473 -3.5351257 -2.3431473 -5.6568604l0 0c0 -4.418274 3.5817184 -8.0 8.0 -8.0l0 0c4.418274 0 8.0 3.581726 8.0 8.0z" fill-rule="evenodd"></path><path stroke="#000000" stroke-width="1.0" stroke-linejoin="round" stroke-linecap="butt" d="m136.0 144.0l0 0c0 4.418274 -3.581726 8.0 -8.0 8.0l0 0c-2.1217346 0 -4.156563 -0.84284973 -5.6568527 -2.3431396c-1.5002899 -1.5002899 -2.3431473 -3.5351257 -2.3431473 -5.6568604l0 0c0 -4.418274 3.5817184 -8.0 8.0 -8.0l0 0c4.418274 0 8.0 3.581726 8.0 8.0z" fill-rule="evenodd"></path><defs><radialGradient id="p.12" gradientUnits="userSpaceOnUse" gradientTransform="matrix(-3.3635856653478005 0.0 0.0 -3.3635856653478005 0.0 0.0)" spreadMethod="pad" cx="-35.67621340412384" cy="-49.94669876577338" fx="-35.67621340412384" fy="-49.94669876577338" r="3.3635857105255127"><stop offset="0.0" stop-color="#3177ee"></stop><stop offset="1.0" stop-color="#113d8a"></stop></radialGradient></defs><path fill="url(#p.12)" d="m128.0 168.0l0 0c0 4.418274 -3.5817184 8.0 -8.0 8.0l0 0c-2.1217346 0 -4.156563 -0.84284973 -5.6568527 -2.3431396c-1.5002899 -1.5002899 -2.3431473 -3.5351257 -2.3431473 -5.6568604l0 0c0 -4.418274 3.5817184 -8.0 8.0 -8.0l0 0c4.4182816 0 8.0 3.581726 8.0 8.0z" fill-rule="evenodd"></path><path stroke="#000000" stroke-width="1.0" stroke-linejoin="round" stroke-linecap="butt" d="m128.0 168.0l0 0c0 4.418274 -3.5817184 8.0 -8.0 8.0l0 0c-2.1217346 0 -4.156563 -0.84284973 -5.6568527 -2.3431396c-1.5002899 -1.5002899 -2.3431473 -3.5351257 -2.3431473 -5.6568604l0 0c0 -4.418274 3.5817184 -8.0 8.0 -8.0l0 0c4.4182816 0 8.0 3.581726 8.0 8.0z" fill-rule="evenodd"></path><defs><linearGradient id="p.13" gradientUnits="userSpaceOnUse" gradientTransform="matrix(7.483335324513766 0.0 0.0 7.483335324513766 0.0 0.0)" spreadMethod="pad" x1="19.242756572498834" y1="24.587925629701125" x2="19.242729171282058" y2="32.07126095416473"><stop offset="0.0" stop-color="#ffffff"></stop><stop offset="1.0" stop-color="#b3b3b3"></stop></linearGradient></defs><path fill="url(#p.13)" d="m144.0 240.0l15.999756 -56.0l64.000244 0l-15.999756 56.0z" fill-rule="evenodd"></path><path stroke="#000000" stroke-width="1.0" stroke-linejoin="round" stroke-linecap="butt" d="m144.0 240.0l15.999756 -56.0l64.000244 0l-15.999756 56.0z" fill-rule="evenodd"></path><defs><radialGradient id="p.14" gradientUnits="userSpaceOnUse" gradientTransform="matrix(3.3635856653478005 0.0 0.0 3.3635856653478005 0.0 0.0)" spreadMethod="pad" cx="49.94669876577338" cy="66.5955983543645" fx="49.94669876577338" fy="66.5955983543645" r="3.3635857105255127"><stop offset="0.0" stop-color="#db0000"></stop><stop offset="1.0" stop-color="#540303"></stop></radialGradient></defs><path fill="url(#p.14)" d="m160.0 224.0l0 0c0 -4.418274 3.581726 -8.0 8.0 -8.0l0 0c2.1217346 0 4.1565704 0.84284973 5.6568604 2.3431396c1.5002899 1.5002899 2.3431396 3.5351257 2.3431396 5.6568604l0 0c0 4.418274 -3.581726 8.0 -8.0 8.0l0 0c-4.418274 0 -8.0 -3.581726 -8.0 -8.0z" fill-rule="evenodd"></path><path stroke="#000000" stroke-width="1.0" stroke-linejoin="round" stroke-linecap="butt" d="m160.0 224.0l0 0c0 -4.418274 3.581726 -8.0 8.0 -8.0l0 0c2.1217346 0 4.1565704 0.84284973 5.6568604 2.3431396c1.5002899 1.5002899 2.3431396 3.5351257 2.3431396 5.6568604l0 0c0 4.418274 -3.581726 8.0 -8.0 8.0l0 0c-4.418274 0 -8.0 -3.581726 -8.0 -8.0z" fill-rule="evenodd"></path><defs><radialGradient id="p.15" gradientUnits="userSpaceOnUse" gradientTransform="matrix(3.3635856653478005 0.0 0.0 3.3635856653478005 0.0 0.0)" spreadMethod="pad" cx="57.081941446598144" cy="66.5955983543645" fx="57.081941446598144" fy="66.5955983543645" r="3.3635857105255127"><stop offset="0.0" stop-color="#51ab2a"></stop><stop offset="1.0" stop-color="#203e13"></stop></radialGradient></defs><path fill="url(#p.15)" d="m184.0 224.0l0 0c0 -4.418274 3.581726 -8.0 8.0 -8.0l0 0c2.1217346 0 4.1565704 0.84284973 5.6568604 2.3431396c1.5002899 1.5002899 2.3431396 3.5351257 2.3431396 5.6568604l0 0c0 4.418274 -3.581726 8.0 -8.0 8.0l0 0c-4.418274 0 -8.0 -3.581726 -8.0 -8.0z" fill-rule="evenodd"></path><path stroke="#000000" stroke-width="1.0" stroke-linejoin="round" stroke-linecap="butt" d="m184.0 224.0l0 0c0 -4.418274 3.581726 -8.0 8.0 -8.0l0 0c2.1217346 0 4.1565704 0.84284973 5.6568604 2.3431396c1.5002899 1.5002899 2.3431396 3.5351257 2.3431396 5.6568604l0 0c0 4.418274 -3.581726 8.0 -8.0 8.0l0 0c-4.418274 0 -8.0 -3.581726 -8.0 -8.0z" fill-rule="evenodd"></path><defs><radialGradient id="p.16" gradientUnits="userSpaceOnUse" gradientTransform="matrix(3.3635856653478005 0.0 0.0 3.3635856653478005 0.0 0.0)" spreadMethod="pad" cx="59.46035567353974" cy="59.46035567353974" fx="59.46035567353974" fy="59.46035567353974" r="3.3635857105255127"><stop offset="0.0" stop-color="#3177ee"></stop><stop offset="1.0" stop-color="#113d8a"></stop></radialGradient></defs><path fill="url(#p.16)" d="m192.0 200.0l0 0c0 -4.418274 3.581726 -8.0 8.0 -8.0l0 0c2.1217346 0 4.1565704 0.84284973 5.6568604 2.3431396c1.5002899 1.5002899 2.3431396 3.5351257 2.3431396 5.6568604l0 0c0 4.418274 -3.581726 8.0 -8.0 8.0l0 0c-4.418274 0 -8.0 -3.581726 -8.0 -8.0z" fill-rule="evenodd"></path><path stroke="#000000" stroke-width="1.0" stroke-linejoin="round" stroke-linecap="butt" d="m192.0 200.0l0 0c0 -4.418274 3.581726 -8.0 8.0 -8.0l0 0c2.1217346 0 4.1565704 0.84284973 5.6568604 2.3431396c1.5002899 1.5002899 2.3431396 3.5351257 2.3431396 5.6568604l0 0c0 4.418274 -3.581726 8.0 -8.0 8.0l0 0c-4.418274 0 -8.0 -3.581726 -8.0 -8.0z" fill-rule="evenodd"></path><defs><linearGradient id="p.17" gradientUnits="userSpaceOnUse" gradientTransform="matrix(-7.483333954448037 0.0 0.0 -7.483333954448037 0.0 0.0)" spreadMethod="pad" x1="-32.07126682584382" y1="-24.58800959485744" x2="-32.07129148694344" y2="-17.10467564045004"><stop offset="0.0" stop-color="#ffffff"></stop><stop offset="1.0" stop-color="#b3b3b3"></stop></linearGradient></defs><path fill="url(#p.17)" d="m240.0 128.0l-15.999756 56.0l-64.000244 0l15.999756 -56.0z" fill-rule="evenodd"></path><path stroke="#000000" stroke-width="1.0" stroke-linejoin="round" stroke-linecap="butt" d="m240.0 128.0l-15.999756 56.0l-64.000244 0l15.999756 -56.0z" fill-rule="evenodd"></path><defs><radialGradient id="p.18" gradientUnits="userSpaceOnUse" gradientTransform="matrix(-3.3635856653478005 0.0 0.0 -3.3635856653478005 0.0 0.0)" spreadMethod="pad" cx="-64.21718412742291" cy="-42.81145608494861" fx="-64.21718412742291" fy="-42.81145608494861" r="3.3635857105255127"><stop offset="0.0" stop-color="#db0000"></stop><stop offset="1.0" stop-color="#540303"></stop></radialGradient></defs><path fill="url(#p.18)" d="m224.0 144.0l0 0c0 4.418274 -3.581726 8.0 -8.0 8.0l0 0c-2.1217346 0 -4.1565704 -0.84284973 -5.6568604 -2.3431396c-1.5002899 -1.5002899 -2.3431396 -3.5351257 -2.3431396 -5.6568604l0 0c0 -4.418274 3.581726 -8.0 8.0 -8.0l0 0c4.418274 0 8.0 3.581726 8.0 8.0z" fill-rule="evenodd"></path><path stroke="#000000" stroke-width="1.0" stroke-linejoin="round" stroke-linecap="butt" d="m224.0 144.0l0 0c0 4.418274 -3.581726 8.0 -8.0 8.0l0 0c-2.1217346 0 -4.1565704 -0.84284973 -5.6568604 -2.3431396c-1.5002899 -1.5002899 -2.3431396 -3.5351257 -2.3431396 -5.6568604l0 0c0 -4.418274 3.581726 -8.0 8.0 -8.0l0 0c4.418274 0 8.0 3.581726 8.0 8.0z" fill-rule="evenodd"></path><defs><radialGradient id="p.19" gradientUnits="userSpaceOnUse" gradientTransform="matrix(-3.3635856653478005 0.0 0.0 -3.3635856653478005 0.0 0.0)" spreadMethod="pad" cx="-57.081941446598144" cy="-42.81145608494861" fx="-57.081941446598144" fy="-42.81145608494861" r="3.3635857105255127"><stop offset="0.0" stop-color="#51ab2a"></stop><stop offset="1.0" stop-color="#203e13"></stop></radialGradient></defs><path fill="url(#p.19)" d="m200.0 144.0l0 0c0 4.418274 -3.581726 8.0 -8.0 8.0l0 0c-2.1217346 0 -4.1565704 -0.84284973 -5.6568604 -2.3431396c-1.5002899 -1.5002899 -2.3431396 -3.5351257 -2.3431396 -5.6568604l0 0c0 -4.418274 3.581726 -8.0 8.0 -8.0l0 0c4.418274 0 8.0 3.581726 8.0 8.0z" fill-rule="evenodd"></path><path stroke="#000000" stroke-width="1.0" stroke-linejoin="round" stroke-linecap="butt" d="m200.0 144.0l0 0c0 4.418274 -3.581726 8.0 -8.0 8.0l0 0c-2.1217346 0 -4.1565704 -0.84284973 -5.6568604 -2.3431396c-1.5002899 -1.5002899 -2.3431396 -3.5351257 -2.3431396 -5.6568604l0 0c0 -4.418274 3.581726 -8.0 8.0 -8.0l0 0c4.418274 0 8.0 3.581726 8.0 8.0z" fill-rule="evenodd"></path><defs><radialGradient id="p.20" gradientUnits="userSpaceOnUse" gradientTransform="matrix(-3.3635856653478005 0.0 0.0 -3.3635856653478005 0.0 0.0)" spreadMethod="pad" cx="-54.70352721965656" cy="-49.94669876577338" fx="-54.70352721965656" fy="-49.94669876577338" r="3.3635857105255127"><stop offset="0.0" stop-color="#3177ee"></stop><stop offset="1.0" stop-color="#113d8a"></stop></radialGradient></defs><path fill="url(#p.20)" d="m192.0 168.0l0 0c0 4.418274 -3.581726 8.0 -8.0 8.0l0 0c-2.1217346 0 -4.1565704 -0.84284973 -5.6568604 -2.3431396c-1.5002899 -1.5002899 -2.3431396 -3.5351257 -2.3431396 -5.6568604l0 0c0 -4.418274 3.581726 -8.0 8.0 -8.0l0 0c4.418274 0 8.0 3.581726 8.0 8.0z" fill-rule="evenodd"></path><path stroke="#000000" stroke-width="1.0" stroke-linejoin="round" stroke-linecap="butt" d="m192.0 168.0l0 0c0 4.418274 -3.581726 8.0 -8.0 8.0l0 0c-2.1217346 0 -4.1565704 -0.84284973 -5.6568604 -2.3431396c-1.5002899 -1.5002899 -2.3431396 -3.5351257 -2.3431396 -5.6568604l0 0c0 -4.418274 3.581726 -8.0 8.0 -8.0l0 0c4.418274 0 8.0 3.581726 8.0 8.0z" fill-rule="evenodd"></path><defs><linearGradient id="p.21" gradientUnits="userSpaceOnUse" gradientTransform="matrix(7.4833339544521795 0.0 0.0 7.4833339544521795 0.0 0.0)" spreadMethod="pad" x1="2.138084455055071" y1="24.587932871422808" x2="2.1380573963485503" y2="32.071266825826065"><stop offset="0.0" stop-color="#ffffff"></stop><stop offset="1.0" stop-color="#b3b3b3"></stop></linearGradient></defs><path fill="url(#p.21)" d="m16.0 240.0l15.99976 -56.0l64.000244 0l-15.9997635 56.0z" fill-rule="evenodd"></path><path stroke="#000000" stroke-width="1.0" stroke-linejoin="round" stroke-linecap="butt" d="m16.0 240.0l15.99976 -56.0l64.000244 0l-15.9997635 56.0z" fill-rule="evenodd"></path><defs><radialGradient id="p.22" gradientUnits="userSpaceOnUse" gradientTransform="matrix(3.3635856653478005 0.0 0.0 3.3635856653478005 0.0 0.0)" spreadMethod="pad" cx="11.892071134707948" cy="66.5955983543645" fx="11.892071134707948" fy="66.5955983543645" r="3.3635857105255127"><stop offset="0.0" stop-color="#db0000"></stop><stop offset="1.0" stop-color="#540303"></stop></radialGradient></defs><path fill="url(#p.22)" d="m32.0 224.0l0 0c0 -4.418274 3.5817223 -8.0 8.0 -8.0l0 0c2.1217308 0 4.156563 0.84284973 5.6568527 2.3431396c1.5002937 1.5002899 2.3431473 3.5351257 2.3431473 5.6568604l0 0c0 4.418274 -3.5817223 8.0 -8.0 8.0l0 0c-4.4182777 0 -8.0 -3.581726 -8.0 -8.0z" fill-rule="evenodd"></path><path stroke="#000000" stroke-width="1.0" stroke-linejoin="round" stroke-linecap="butt" d="m32.0 224.0l0 0c0 -4.418274 3.5817223 -8.0 8.0 -8.0l0 0c2.1217308 0 4.156563 0.84284973 5.6568527 2.3431396c1.5002937 1.5002899 2.3431473 3.5351257 2.3431473 5.6568604l0 0c0 4.418274 -3.5817223 8.0 -8.0 8.0l0 0c-4.4182777 0 -8.0 -3.581726 -8.0 -8.0z" fill-rule="evenodd"></path><defs><radialGradient id="p.23" gradientUnits="userSpaceOnUse" gradientTransform="matrix(3.3635856653478005 0.0 0.0 3.3635856653478005 0.0 0.0)" spreadMethod="pad" cx="19.027313815532715" cy="66.5955983543645" fx="19.027313815532715" fy="66.5955983543645" r="3.3635857105255127"><stop offset="0.0" stop-color="#51ab2a"></stop><stop offset="1.0" stop-color="#203e13"></stop></radialGradient></defs><path fill="url(#p.23)" d="m56.0 224.0l0 0c0 -4.418274 3.5817223 -8.0 8.0 -8.0l0 0c2.1217346 0 4.156563 0.84284973 5.6568527 2.3431396c1.5002899 1.5002899 2.3431473 3.5351257 2.3431473 5.6568604l0 0c0 4.418274 -3.5817184 8.0 -8.0 8.0l0 0c-4.4182777 0 -8.0 -3.581726 -8.0 -8.0z" fill-rule="evenodd"></path><path stroke="#000000" stroke-width="1.0" stroke-linejoin="round" stroke-linecap="butt" d="m56.0 224.0l0 0c0 -4.418274 3.5817223 -8.0 8.0 -8.0l0 0c2.1217346 0 4.156563 0.84284973 5.6568527 2.3431396c1.5002899 1.5002899 2.3431473 3.5351257 2.3431473 5.6568604l0 0c0 4.418274 -3.5817184 8.0 -8.0 8.0l0 0c-4.4182777 0 -8.0 -3.581726 -8.0 -8.0z" fill-rule="evenodd"></path><defs><radialGradient id="p.24" gradientUnits="userSpaceOnUse" gradientTransform="matrix(3.3635856653478005 0.0 0.0 3.3635856653478005 0.0 0.0)" spreadMethod="pad" cx="21.405728042474305" cy="59.46035567353974" fx="21.405728042474305" fy="59.46035567353974" r="3.3635857105255127"><stop offset="0.0" stop-color="#3177ee"></stop><stop offset="1.0" stop-color="#113d8a"></stop></radialGradient></defs><path fill="url(#p.24)" d="m64.0 200.0l0 0c0 -4.418274 3.5817184 -8.0 8.0 -8.0l0 0c2.1217346 0 4.156563 0.84284973 5.6568527 2.3431396c1.5002899 1.5002899 2.3431473 3.5351257 2.3431473 5.6568604l0 0c0 4.418274 -3.5817184 8.0 -8.0 8.0l0 0c-4.4182816 0 -8.0 -3.581726 -8.0 -8.0z" fill-rule="evenodd"></path><path stroke="#000000" stroke-width="1.0" stroke-linejoin="round" stroke-linecap="butt" d="m64.0 200.0l0 0c0 -4.418274 3.5817184 -8.0 8.0 -8.0l0 0c2.1217346 0 4.156563 0.84284973 5.6568527 2.3431396c1.5002899 1.5002899 2.3431473 3.5351257 2.3431473 5.6568604l0 0c0 4.418274 -3.5817184 8.0 -8.0 8.0l0 0c-4.4182816 0 -8.0 -3.581726 -8.0 -8.0z" fill-rule="evenodd"></path><defs><linearGradient id="p.25" gradientUnits="userSpaceOnUse" gradientTransform="matrix(7.483333954452803 0.0 0.0 7.483333954452803 0.0 0.0)" spreadMethod="pad" x1="27.79509791571361" y1="24.58793287142076" x2="27.79507051449182" y2="32.0712668258234"><stop offset="0.0" stop-color="#ffffff"></stop><stop offset="1.0" stop-color="#b3b3b3"></stop></linearGradient></defs><path fill="url(#p.25)" d="m208.0 240.0l15.999756 -56.0l64.000244 0l-15.999756 56.0z" fill-rule="evenodd"></path><path stroke="#000000" stroke-width="1.0" stroke-linejoin="round" stroke-linecap="butt" d="m208.0 240.0l15.999756 -56.0l64.000244 0l-15.999756 56.0z" fill-rule="evenodd"></path><defs><radialGradient id="p.26" gradientUnits="userSpaceOnUse" gradientTransform="matrix(3.3635856653478005 0.0 0.0 3.3635856653478005 0.0 0.0)" spreadMethod="pad" cx="68.9740125813061" cy="66.5955983543645" fx="68.9740125813061" fy="66.5955983543645" r="3.3635857105255127"><stop offset="0.0" stop-color="#db0000"></stop><stop offset="1.0" stop-color="#540303"></stop></radialGradient></defs><path fill="url(#p.26)" d="m224.0 224.0l0 0c0 -4.418274 3.581726 -8.0 8.0 -8.0l0 0c2.1217346 0 4.1565704 0.84284973 5.6568604 2.3431396c1.5002899 1.5002899 2.3431396 3.5351257 2.3431396 5.6568604l0 0c0 4.418274 -3.581726 8.0 -8.0 8.0l0 0c-4.418274 0 -8.0 -3.581726 -8.0 -8.0z" fill-rule="evenodd"></path><path stroke="#000000" stroke-width="1.0" stroke-linejoin="round" stroke-linecap="butt" d="m224.0 224.0l0 0c0 -4.418274 3.581726 -8.0 8.0 -8.0l0 0c2.1217346 0 4.1565704 0.84284973 5.6568604 2.3431396c1.5002899 1.5002899 2.3431396 3.5351257 2.3431396 5.6568604l0 0c0 4.418274 -3.581726 8.0 -8.0 8.0l0 0c-4.418274 0 -8.0 -3.581726 -8.0 -8.0z" fill-rule="evenodd"></path><defs><radialGradient id="p.27" gradientUnits="userSpaceOnUse" gradientTransform="matrix(3.3635856653478005 0.0 0.0 3.3635856653478005 0.0 0.0)" spreadMethod="pad" cx="76.10925526213086" cy="66.5955983543645" fx="76.10925526213086" fy="66.5955983543645" r="3.3635857105255127"><stop offset="0.0" stop-color="#51ab2a"></stop><stop offset="1.0" stop-color="#203e13"></stop></radialGradient></defs><path fill="url(#p.27)" d="m248.0 224.0l0 0c0 -4.418274 3.581726 -8.0 8.0 -8.0l0 0c2.1217346 0 4.156555 0.84284973 5.6568604 2.3431396c1.5002747 1.5002899 2.3431396 3.5351257 2.3431396 5.6568604l0 0c0 4.418274 -3.581726 8.0 -8.0 8.0l0 0c-4.418274 0 -8.0 -3.581726 -8.0 -8.0z" fill-rule="evenodd"></path><path stroke="#000000" stroke-width="1.0" stroke-linejoin="round" stroke-linecap="butt" d="m248.0 224.0l0 0c0 -4.418274 3.581726 -8.0 8.0 -8.0l0 0c2.1217346 0 4.156555 0.84284973 5.6568604 2.3431396c1.5002747 1.5002899 2.3431396 3.5351257 2.3431396 5.6568604l0 0c0 4.418274 -3.581726 8.0 -8.0 8.0l0 0c-4.418274 0 -8.0 -3.581726 -8.0 -8.0z" fill-rule="evenodd"></path><defs><radialGradient id="p.28" gradientUnits="userSpaceOnUse" gradientTransform="matrix(3.3635856653478005 0.0 0.0 3.3635856653478005 0.0 0.0)" spreadMethod="pad" cx="78.48766948907245" cy="59.46035567353974" fx="78.48766948907245" fy="59.46035567353974" r="3.3635857105255127"><stop offset="0.0" stop-color="#3177ee"></stop><stop offset="1.0" stop-color="#113d8a"></stop></radialGradient></defs><path fill="url(#p.28)" d="m256.0 200.0l0 0c0 -4.418274 3.581726 -8.0 8.0 -8.0l0 0c2.1217346 0 4.156555 0.84284973 5.6568604 2.3431396c1.5002747 1.5002899 2.3431396 3.5351257 2.3431396 5.6568604l0 0c0 4.418274 -3.581726 8.0 -8.0 8.0l0 0c-4.418274 0 -8.0 -3.581726 -8.0 -8.0z" fill-rule="evenodd"></path><path stroke="#000000" stroke-width="1.0" stroke-linejoin="round" stroke-linecap="butt" d="m256.0 200.0l0 0c0 -4.418274 3.581726 -8.0 8.0 -8.0l0 0c2.1217346 0 4.156555 0.84284973 5.6568604 2.3431396c1.5002747 1.5002899 2.3431396 3.5351257 2.3431396 5.6568604l0 0c0 4.418274 -3.581726 8.0 -8.0 8.0l0 0c-4.418274 0 -8.0 -3.581726 -8.0 -8.0z" fill-rule="evenodd"></path><defs><linearGradient id="p.29" gradientUnits="userSpaceOnUse" gradientTransform="matrix(-7.483333954448037 0.0 0.0 -7.483333954448037 0.0 0.0)" spreadMethod="pad" x1="-40.62360464606884" y1="-24.58800959485744" x2="-40.62362930716846" y2="-17.10467564045004"><stop offset="0.0" stop-color="#ffffff"></stop><stop offset="1.0" stop-color="#b3b3b3"></stop></linearGradient></defs><path fill="url(#p.29)" d="m304.0 128.0l-15.999756 56.0l-64.000244 0l15.999756 -56.0z" fill-rule="evenodd"></path><path stroke="#000000" stroke-width="1.0" stroke-linejoin="round" stroke-linecap="butt" d="m304.0 128.0l-15.999756 56.0l-64.000244 0l15.999756 -56.0z" fill-rule="evenodd"></path><defs><radialGradient id="p.30" gradientUnits="userSpaceOnUse" gradientTransform="matrix(-3.3635856653478005 0.0 0.0 -3.3635856653478005 0.0 0.0)" spreadMethod="pad" cx="-83.24449794295563" cy="-42.81145608494861" fx="-83.24449794295563" fy="-42.81145608494861" r="3.3635857105255127"><stop offset="0.0" stop-color="#db0000"></stop><stop offset="1.0" stop-color="#540303"></stop></radialGradient></defs><path fill="url(#p.30)" d="m288.0 144.0l0 0c0 4.418274 -3.581726 8.0 -8.0 8.0l0 0c-2.1217346 0 -4.156555 -0.84284973 -5.6568604 -2.3431396c-1.5002747 -1.5002899 -2.3431396 -3.5351257 -2.3431396 -5.6568604l0 0c0 -4.418274 3.581726 -8.0 8.0 -8.0l0 0c4.418274 0 8.0 3.581726 8.0 8.0z" fill-rule="evenodd"></path><path stroke="#000000" stroke-width="1.0" stroke-linejoin="round" stroke-linecap="butt" d="m288.0 144.0l0 0c0 4.418274 -3.581726 8.0 -8.0 8.0l0 0c-2.1217346 0 -4.156555 -0.84284973 -5.6568604 -2.3431396c-1.5002747 -1.5002899 -2.3431396 -3.5351257 -2.3431396 -5.6568604l0 0c0 -4.418274 3.581726 -8.0 8.0 -8.0l0 0c4.418274 0 8.0 3.581726 8.0 8.0z" fill-rule="evenodd"></path><defs><radialGradient id="p.31" gradientUnits="userSpaceOnUse" gradientTransform="matrix(-3.3635856653478005 0.0 0.0 -3.3635856653478005 0.0 0.0)" spreadMethod="pad" cx="-76.10925526213086" cy="-42.81145608494861" fx="-76.10925526213086" fy="-42.81145608494861" r="3.3635857105255127"><stop offset="0.0" stop-color="#51ab2a"></stop><stop offset="1.0" stop-color="#203e13"></stop></radialGradient></defs><path fill="url(#p.31)" d="m264.0 144.0l0 0c0 4.418274 -3.581726 8.0 -8.0 8.0l0 0c-2.1217346 0 -4.1565704 -0.84284973 -5.6568604 -2.3431396c-1.5002899 -1.5002899 -2.3431396 -3.5351257 -2.3431396 -5.6568604l0 0c0 -4.418274 3.581726 -8.0 8.0 -8.0l0 0c4.418274 0 8.0 3.581726 8.0 8.0z" fill-rule="evenodd"></path><path stroke="#000000" stroke-width="1.0" stroke-linejoin="round" stroke-linecap="butt" d="m264.0 144.0l0 0c0 4.418274 -3.581726 8.0 -8.0 8.0l0 0c-2.1217346 0 -4.1565704 -0.84284973 -5.6568604 -2.3431396c-1.5002899 -1.5002899 -2.3431396 -3.5351257 -2.3431396 -5.6568604l0 0c0 -4.418274 3.581726 -8.0 8.0 -8.0l0 0c4.418274 0 8.0 3.581726 8.0 8.0z" fill-rule="evenodd"></path><defs><radialGradient id="p.32" gradientUnits="userSpaceOnUse" gradientTransform="matrix(-3.3635856653478005 0.0 0.0 -3.3635856653478005 0.0 0.0)" spreadMethod="pad" cx="-73.73084103518927" cy="-49.94669876577338" fx="-73.73084103518927" fy="-49.94669876577338" r="3.3635857105255127"><stop offset="0.0" stop-color="#3177ee"></stop><stop offset="1.0" stop-color="#113d8a"></stop></radialGradient></defs><path fill="url(#p.32)" d="m256.0 168.0l0 0c0 4.418274 -3.581726 8.0 -8.0 8.0l0 0c-2.1217346 0 -4.1565704 -0.84284973 -5.6568604 -2.3431396c-1.5002899 -1.5002899 -2.3431396 -3.5351257 -2.3431396 -5.6568604l0 0c0 -4.418274 3.581726 -8.0 8.0 -8.0l0 0c4.418274 0 8.0 3.581726 8.0 8.0z" fill-rule="evenodd"></path><path stroke="#000000" stroke-width="1.0" stroke-linejoin="round" stroke-linecap="butt" d="m256.0 168.0l0 0c0 4.418274 -3.581726 8.0 -8.0 8.0l0 0c-2.1217346 0 -4.1565704 -0.84284973 -5.6568604 -2.3431396c-1.5002899 -1.5002899 -2.3431396 -3.5351257 -2.3431396 -5.6568604l0 0c0 -4.418274 3.581726 -8.0 8.0 -8.0l0 0c4.418274 0 8.0 3.581726 8.0 8.0z" fill-rule="evenodd"></path><defs><linearGradient id="p.33" gradientUnits="userSpaceOnUse" gradientTransform="matrix(-7.483334296965621 0.0 0.0 -7.483334296965621 0.0 0.0)" spreadMethod="pad" x1="-19.242759214751345" y1="-9.62141865411494" x2="-19.24278524591086" y2="-2.138084357194594"><stop offset="0.0" stop-color="#ffffff"></stop><stop offset="1.0" stop-color="#b3b3b3"></stop></linearGradient></defs><path fill="url(#p.33)" d="m144.0 16.0l-15.999756 56.0l-64.000244 0l15.9997635 -56.0z" fill-rule="evenodd"></path><path stroke="#000000" stroke-width="1.0" stroke-linejoin="round" stroke-linecap="butt" d="m144.0 16.0l-15.999756 56.0l-64.000244 0l15.9997635 -56.0z" fill-rule="evenodd"></path><defs><radialGradient id="p.34" gradientUnits="userSpaceOnUse" gradientTransform="matrix(-3.3635856653478005 0.0 0.0 -3.3635856653478005 0.0 0.0)" spreadMethod="pad" cx="-35.67621340412384" cy="-9.513656907766357" fx="-35.67621340412384" fy="-9.513656907766357" r="3.3635857105255127"><stop offset="0.0" stop-color="#db0000"></stop><stop offset="1.0" stop-color="#540303"></stop></radialGradient></defs><path fill="url(#p.34)" d="m128.0 32.0l0 0c0 4.4182777 -3.5817184 8.0 -8.0 8.0l0 0c-2.1217346 0 -4.156563 -0.84285355 -5.6568527 -2.3431473c-1.5002899 -1.5002899 -2.3431473 -3.535122 -2.3431473 -5.6568527l0 0c0 -4.4182777 3.5817184 -8.0 8.0 -8.0l0 0c4.4182816 0 8.0 3.5817223 8.0 8.0z" fill-rule="evenodd"></path><path stroke="#000000" stroke-width="1.0" stroke-linejoin="round" stroke-linecap="butt" d="m128.0 32.0l0 0c0 4.4182777 -3.5817184 8.0 -8.0 8.0l0 0c-2.1217346 0 -4.156563 -0.84285355 -5.6568527 -2.3431473c-1.5002899 -1.5002899 -2.3431473 -3.535122 -2.3431473 -5.6568527l0 0c0 -4.4182777 3.5817184 -8.0 8.0 -8.0l0 0c4.4182816 0 8.0 3.5817223 8.0 8.0z" fill-rule="evenodd"></path><defs><radialGradient id="p.35" gradientUnits="userSpaceOnUse" gradientTransform="matrix(-3.3635856653478005 0.0 0.0 -3.3635856653478005 0.0 0.0)" spreadMethod="pad" cx="-28.540970723299072" cy="-9.513656907766357" fx="-28.540970723299072" fy="-9.513656907766357" r="3.3635857105255127"><stop offset="0.0" stop-color="#51ab2a"></stop><stop offset="1.0" stop-color="#203e13"></stop></radialGradient></defs><path fill="url(#p.35)" d="m104.0 32.0l0 0c0 4.4182777 -3.5817184 8.0 -8.0 8.0l0 0c-2.1217346 0 -4.156563 -0.84285355 -5.6568527 -2.3431473c-1.5002899 -1.5002899 -2.3431473 -3.535122 -2.3431473 -5.6568527l0 0c0 -4.4182777 3.5817184 -8.0 8.0 -8.0l0 0c4.4182816 0 8.0 3.5817223 8.0 8.0z" fill-rule="evenodd"></path><path stroke="#000000" stroke-width="1.0" stroke-linejoin="round" stroke-linecap="butt" d="m104.0 32.0l0 0c0 4.4182777 -3.5817184 8.0 -8.0 8.0l0 0c-2.1217346 0 -4.156563 -0.84285355 -5.6568527 -2.3431473c-1.5002899 -1.5002899 -2.3431473 -3.535122 -2.3431473 -5.6568527l0 0c0 -4.4182777 3.5817184 -8.0 8.0 -8.0l0 0c4.4182816 0 8.0 3.5817223 8.0 8.0z" fill-rule="evenodd"></path><defs><radialGradient id="p.36" gradientUnits="userSpaceOnUse" gradientTransform="matrix(-3.3635856653478005 0.0 0.0 -3.3635856653478005 0.0 0.0)" spreadMethod="pad" cx="-26.162556496357485" cy="-16.648899588591124" fx="-26.162556496357485" fy="-16.648899588591124" r="3.3635857105255127"><stop offset="0.0" stop-color="#3177ee"></stop><stop offset="1.0" stop-color="#113d8a"></stop></radialGradient></defs><path fill="url(#p.36)" d="m96.0 56.0l0 0c0 4.4182777 -3.5817184 8.0 -8.0 8.0l0 0c-2.1217346 0 -4.156563 -0.84285355 -5.6568527 -2.3431473c-1.5002899 -1.5002899 -2.3431473 -3.535122 -2.3431473 -5.6568527l0 0c0 -4.4182777 3.5817184 -8.0 8.0 -8.0l0 0c4.4182816 0 8.0 3.5817223 8.0 8.0z" fill-rule="evenodd"></path><path stroke="#000000" stroke-width="1.0" stroke-linejoin="round" stroke-linecap="butt" d="m96.0 56.0l0 0c0 4.4182777 -3.5817184 8.0 -8.0 8.0l0 0c-2.1217346 0 -4.156563 -0.84285355 -5.6568527 -2.3431473c-1.5002899 -1.5002899 -2.3431473 -3.535122 -2.3431473 -5.6568527l0 0c0 -4.4182777 3.5817184 -8.0 8.0 -8.0l0 0c4.4182816 0 8.0 3.5817223 8.0 8.0z" fill-rule="evenodd"></path><defs><linearGradient id="p.37" gradientUnits="userSpaceOnUse" gradientTransform="matrix(7.483334296968067 0.0 0.0 7.483334296968067 0.0 0.0)" spreadMethod="pad" x1="14.966590500357269" y1="9.62134056063326" x2="14.966563099136728" y2="17.104674857551164"><stop offset="0.0" stop-color="#ffffff"></stop><stop offset="1.0" stop-color="#b3b3b3"></stop></linearGradient></defs><path fill="url(#p.37)" d="m112.0 128.0l15.9997635 -56.0l64.00024 0l-15.999756 56.0z" fill-rule="evenodd"></path><path stroke="#000000" stroke-width="1.0" stroke-linejoin="round" stroke-linecap="butt" d="m112.0 128.0l15.9997635 -56.0l64.00024 0l-15.999756 56.0z" fill-rule="evenodd"></path><defs><radialGradient id="p.38" gradientUnits="userSpaceOnUse" gradientTransform="matrix(3.3635856653478005 0.0 0.0 3.3635856653478005 0.0 0.0)" spreadMethod="pad" cx="40.43304185800702" cy="33.29779917718225" fx="40.43304185800702" fy="33.29779917718225" r="3.3635857105255127"><stop offset="0.0" stop-color="#db0000"></stop><stop offset="1.0" stop-color="#540303"></stop></radialGradient></defs><path fill="url(#p.38)" d="m128.0 112.0l0 0c0 -4.4182816 3.581726 -8.0 8.0 -8.0l0 0c2.1217346 0 4.1565704 0.84285736 5.6568604 2.3431473c1.5002899 1.5002899 2.3431396 3.535118 2.3431396 5.6568527l0 0c0 4.4182816 -3.581726 8.0 -8.0 8.0l0 0c-4.418274 0 -8.0 -3.5817184 -8.0 -8.0z" fill-rule="evenodd"></path><path stroke="#000000" stroke-width="1.0" stroke-linejoin="round" stroke-linecap="butt" d="m128.0 112.0l0 0c0 -4.4182816 3.581726 -8.0 8.0 -8.0l0 0c2.1217346 0 4.1565704 0.84285736 5.6568604 2.3431473c1.5002899 1.5002899 2.3431396 3.535118 2.3431396 5.6568527l0 0c0 4.4182816 -3.581726 8.0 -8.0 8.0l0 0c-4.418274 0 -8.0 -3.5817184 -8.0 -8.0z" fill-rule="evenodd"></path><defs><radialGradient id="p.39" gradientUnits="userSpaceOnUse" gradientTransform="matrix(3.3635856653478005 0.0 0.0 3.3635856653478005 0.0 0.0)" spreadMethod="pad" cx="47.56828453883179" cy="33.29779917718225" fx="47.56828453883179" fy="33.29779917718225" r="3.3635857105255127"><stop offset="0.0" stop-color="#51ab2a"></stop><stop offset="1.0" stop-color="#203e13"></stop></radialGradient></defs><path fill="url(#p.39)" d="m152.0 112.0l0 0c0 -4.4182816 3.581726 -8.0 8.0 -8.0l0 0c2.1217346 0 4.1565704 0.84285736 5.6568604 2.3431473c1.5002899 1.5002899 2.3431396 3.535118 2.3431396 5.6568527l0 0c0 4.4182816 -3.581726 8.0 -8.0 8.0l0 0c-4.418274 0 -8.0 -3.5817184 -8.0 -8.0z" fill-rule="evenodd"></path><path stroke="#000000" stroke-width="1.0" stroke-linejoin="round" stroke-linecap="butt" d="m152.0 112.0l0 0c0 -4.4182816 3.581726 -8.0 8.0 -8.0l0 0c2.1217346 0 4.1565704 0.84285736 5.6568604 2.3431473c1.5002899 1.5002899 2.3431396 3.535118 2.3431396 5.6568527l0 0c0 4.4182816 -3.581726 8.0 -8.0 8.0l0 0c-4.418274 0 -8.0 -3.5817184 -8.0 -8.0z" fill-rule="evenodd"></path><defs><radialGradient id="p.40" gradientUnits="userSpaceOnUse" gradientTransform="matrix(3.3635856653478005 0.0 0.0 3.3635856653478005 0.0 0.0)" spreadMethod="pad" cx="49.94669876577338" cy="26.162556496357485" fx="49.94669876577338" fy="26.162556496357485" r="3.3635857105255127"><stop offset="0.0" stop-color="#3177ee"></stop><stop offset="1.0" stop-color="#113d8a"></stop></radialGradient></defs><path fill="url(#p.40)" d="m160.0 88.0l0 0c0 -4.4182816 3.581726 -8.0 8.0 -8.0l0 0c2.1217346 0 4.1565704 0.84285736 5.6568604 2.3431473c1.5002899 1.5002899 2.3431396 3.535118 2.3431396 5.6568527l0 0c0 4.4182816 -3.581726 8.0 -8.0 8.0l0 0c-4.418274 0 -8.0 -3.5817184 -8.0 -8.0z" fill-rule="evenodd"></path><path stroke="#000000" stroke-width="1.0" stroke-linejoin="round" stroke-linecap="butt" d="m160.0 88.0l0 0c0 -4.4182816 3.581726 -8.0 8.0 -8.0l0 0c2.1217346 0 4.1565704 0.84285736 5.6568604 2.3431473c1.5002899 1.5002899 2.3431396 3.535118 2.3431396 5.6568527l0 0c0 4.4182816 -3.581726 8.0 -8.0 8.0l0 0c-4.418274 0 -8.0 -3.5817184 -8.0 -8.0z" fill-rule="evenodd"></path><defs><linearGradient id="p.41" gradientUnits="userSpaceOnUse" gradientTransform="matrix(-7.483334296968067 0.0 0.0 -7.483334296968067 0.0 0.0)" spreadMethod="pad" x1="-27.79509664352064" y1="-9.621418654111798" x2="-27.79512404474118" y2="-2.1380843571938954"><stop offset="0.0" stop-color="#ffffff"></stop><stop offset="1.0" stop-color="#b3b3b3"></stop></linearGradient></defs><path fill="url(#p.41)" d="m208.0 16.0l-15.999756 56.0l-64.000244 0l15.999756 -56.0z" fill-rule="evenodd"></path><path stroke="#000000" stroke-width="1.0" stroke-linejoin="round" stroke-linecap="butt" d="m208.0 16.0l-15.999756 56.0l-64.000244 0l15.999756 -56.0z" fill-rule="evenodd"></path><defs><radialGradient id="p.42" gradientUnits="userSpaceOnUse" gradientTransform="matrix(-3.3635856653478005 0.0 0.0 -3.3635856653478005 0.0 0.0)" spreadMethod="pad" cx="-54.70352721965656" cy="-9.513656907766357" fx="-54.70352721965656" fy="-9.513656907766357" r="3.3635857105255127"><stop offset="0.0" stop-color="#db0000"></stop><stop offset="1.0" stop-color="#540303"></stop></radialGradient></defs><path fill="url(#p.42)" d="m192.0 32.0l0 0c0 4.4182777 -3.581726 8.0 -8.0 8.0l0 0c-2.1217346 0 -4.1565704 -0.84285355 -5.6568604 -2.3431473c-1.5002899 -1.5002899 -2.3431396 -3.535122 -2.3431396 -5.6568527l0 0c0 -4.4182777 3.581726 -8.0 8.0 -8.0l0 0c4.418274 0 8.0 3.5817223 8.0 8.0z" fill-rule="evenodd"></path><path stroke="#000000" stroke-width="1.0" stroke-linejoin="round" stroke-linecap="butt" d="m192.0 32.0l0 0c0 4.4182777 -3.581726 8.0 -8.0 8.0l0 0c-2.1217346 0 -4.1565704 -0.84285355 -5.6568604 -2.3431473c-1.5002899 -1.5002899 -2.3431396 -3.535122 -2.3431396 -5.6568527l0 0c0 -4.4182777 3.581726 -8.0 8.0 -8.0l0 0c4.418274 0 8.0 3.5817223 8.0 8.0z" fill-rule="evenodd"></path><defs><radialGradient id="p.43" gradientUnits="userSpaceOnUse" gradientTransform="matrix(-3.3635856653478005 0.0 0.0 -3.3635856653478005 0.0 0.0)" spreadMethod="pad" cx="-47.56828453883179" cy="-9.513656907766357" fx="-47.56828453883179" fy="-9.513656907766357" r="3.3635857105255127"><stop offset="0.0" stop-color="#51ab2a"></stop><stop offset="1.0" stop-color="#203e13"></stop></radialGradient></defs><path fill="url(#p.43)" d="m168.0 32.0l0 0c0 4.4182777 -3.581726 8.0 -8.0 8.0l0 0c-2.1217346 0 -4.1565704 -0.84285355 -5.6568604 -2.3431473c-1.5002899 -1.5002899 -2.3431396 -3.535122 -2.3431396 -5.6568527l0 0c0 -4.4182777 3.581726 -8.0 8.0 -8.0l0 0c4.418274 0 8.0 3.5817223 8.0 8.0z" fill-rule="evenodd"></path><path stroke="#000000" stroke-width="1.0" stroke-linejoin="round" stroke-linecap="butt" d="m168.0 32.0l0 0c0 4.4182777 -3.581726 8.0 -8.0 8.0l0 0c-2.1217346 0 -4.1565704 -0.84285355 -5.6568604 -2.3431473c-1.5002899 -1.5002899 -2.3431396 -3.535122 -2.3431396 -5.6568527l0 0c0 -4.4182777 3.581726 -8.0 8.0 -8.0l0 0c4.418274 0 8.0 3.5817223 8.0 8.0z" fill-rule="evenodd"></path><defs><radialGradient id="p.44" gradientUnits="userSpaceOnUse" gradientTransform="matrix(-3.3635856653478005 0.0 0.0 -3.3635856653478005 0.0 0.0)" spreadMethod="pad" cx="-45.189870311890196" cy="-16.648899588591124" fx="-45.189870311890196" fy="-16.648899588591124" r="3.3635857105255127"><stop offset="0.0" stop-color="#3177ee"></stop><stop offset="1.0" stop-color="#113d8a"></stop></radialGradient></defs><path fill="url(#p.44)" d="m160.0 56.0l0 0c0 4.4182777 -3.581726 8.0 -8.0 8.0l0 0c-2.1217346 0 -4.1565704 -0.84285355 -5.6568604 -2.3431473c-1.5002899 -1.5002899 -2.3431396 -3.535122 -2.3431396 -5.6568527l0 0c0 -4.4182777 3.581726 -8.0 8.0 -8.0l0 0c4.418274 0 8.0 3.5817223 8.0 8.0z" fill-rule="evenodd"></path><path stroke="#000000" stroke-width="1.0" stroke-linejoin="round" stroke-linecap="butt" d="m160.0 56.0l0 0c0 4.4182777 -3.581726 8.0 -8.0 8.0l0 0c-2.1217346 0 -4.1565704 -0.84285355 -5.6568604 -2.3431473c-1.5002899 -1.5002899 -2.3431396 -3.535122 -2.3431396 -5.6568527l0 0c0 -4.4182777 3.581726 -8.0 8.0 -8.0l0 0c4.418274 0 8.0 3.5817223 8.0 8.0z" fill-rule="evenodd"></path><defs><linearGradient id="p.45" gradientUnits="userSpaceOnUse" gradientTransform="matrix(7.483334296968067 0.0 0.0 7.483334296968067 0.0 0.0)" spreadMethod="pad" x1="23.51892792913285" y1="9.62134056063326" x2="23.51890052791231" y2="17.104674857551164"><stop offset="0.0" stop-color="#ffffff"></stop><stop offset="1.0" stop-color="#b3b3b3"></stop></linearGradient></defs><path fill="url(#p.45)" d="m176.0 128.0l15.999756 -56.0l64.000244 0l-15.999756 56.0z" fill-rule="evenodd"></path><path stroke="#000000" stroke-width="1.0" stroke-linejoin="round" stroke-linecap="butt" d="m176.0 128.0l15.999756 -56.0l64.000244 0l-15.999756 56.0z" fill-rule="evenodd"></path><defs><radialGradient id="p.46" gradientUnits="userSpaceOnUse" gradientTransform="matrix(3.3635856653478005 0.0 0.0 3.3635856653478005 0.0 0.0)" spreadMethod="pad" cx="59.46035567353974" cy="33.29779917718225" fx="59.46035567353974" fy="33.29779917718225" r="3.3635857105255127"><stop offset="0.0" stop-color="#db0000"></stop><stop offset="1.0" stop-color="#540303"></stop></radialGradient></defs><path fill="url(#p.46)" d="m192.0 112.0l0 0c0 -4.4182816 3.581726 -8.0 8.0 -8.0l0 0c2.1217346 0 4.1565704 0.84285736 5.6568604 2.3431473c1.5002899 1.5002899 2.3431396 3.535118 2.3431396 5.6568527l0 0c0 4.4182816 -3.581726 8.0 -8.0 8.0l0 0c-4.418274 0 -8.0 -3.5817184 -8.0 -8.0z" fill-rule="evenodd"></path><path stroke="#000000" stroke-width="1.0" stroke-linejoin="round" stroke-linecap="butt" d="m192.0 112.0l0 0c0 -4.4182816 3.581726 -8.0 8.0 -8.0l0 0c2.1217346 0 4.1565704 0.84285736 5.6568604 2.3431473c1.5002899 1.5002899 2.3431396 3.535118 2.3431396 5.6568527l0 0c0 4.4182816 -3.581726 8.0 -8.0 8.0l0 0c-4.418274 0 -8.0 -3.5817184 -8.0 -8.0z" fill-rule="evenodd"></path><defs><radialGradient id="p.47" gradientUnits="userSpaceOnUse" gradientTransform="matrix(3.3635856653478005 0.0 0.0 3.3635856653478005 0.0 0.0)" spreadMethod="pad" cx="66.5955983543645" cy="33.29779917718225" fx="66.5955983543645" fy="33.29779917718225" r="3.3635857105255127"><stop offset="0.0" stop-color="#51ab2a"></stop><stop offset="1.0" stop-color="#203e13"></stop></radialGradient></defs><path fill="url(#p.47)" d="m216.0 112.0l0 0c0 -4.4182816 3.581726 -8.0 8.0 -8.0l0 0c2.1217346 0 4.1565704 0.84285736 5.6568604 2.3431473c1.5002899 1.5002899 2.3431396 3.535118 2.3431396 5.6568527l0 0c0 4.4182816 -3.581726 8.0 -8.0 8.0l0 0c-4.418274 0 -8.0 -3.5817184 -8.0 -8.0z" fill-rule="evenodd"></path><path stroke="#000000" stroke-width="1.0" stroke-linejoin="round" stroke-linecap="butt" d="m216.0 112.0l0 0c0 -4.4182816 3.581726 -8.0 8.0 -8.0l0 0c2.1217346 0 4.1565704 0.84285736 5.6568604 2.3431473c1.5002899 1.5002899 2.3431396 3.535118 2.3431396 5.6568527l0 0c0 4.4182816 -3.581726 8.0 -8.0 8.0l0 0c-4.418274 0 -8.0 -3.5817184 -8.0 -8.0z" fill-rule="evenodd"></path><defs><radialGradient id="p.48" gradientUnits="userSpaceOnUse" gradientTransform="matrix(3.3635856653478005 0.0 0.0 3.3635856653478005 0.0 0.0)" spreadMethod="pad" cx="68.9740125813061" cy="26.162556496357485" fx="68.9740125813061" fy="26.162556496357485" r="3.3635857105255127"><stop offset="0.0" stop-color="#3177ee"></stop><stop offset="1.0" stop-color="#113d8a"></stop></radialGradient></defs><path fill="url(#p.48)" d="m224.0 88.0l0 0c0 -4.4182816 3.581726 -8.0 8.0 -8.0l0 0c2.1217346 0 4.1565704 0.84285736 5.6568604 2.3431473c1.5002899 1.5002899 2.3431396 3.535118 2.3431396 5.6568527l0 0c0 4.4182816 -3.581726 8.0 -8.0 8.0l0 0c-4.418274 0 -8.0 -3.5817184 -8.0 -8.0z" fill-rule="evenodd"></path><path stroke="#000000" stroke-width="1.0" stroke-linejoin="round" stroke-linecap="butt" d="m224.0 88.0l0 0c0 -4.4182816 3.581726 -8.0 8.0 -8.0l0 0c2.1217346 0 4.1565704 0.84285736 5.6568604 2.3431473c1.5002899 1.5002899 2.3431396 3.535118 2.3431396 5.6568527l0 0c0 4.4182816 -3.581726 8.0 -8.0 8.0l0 0c-4.418274 0 -8.0 -3.5817184 -8.0 -8.0z" fill-rule="evenodd"></path><defs><linearGradient id="p.49" gradientUnits="userSpaceOnUse" gradientTransform="matrix(-7.483333954452803 0.0 0.0 -7.483333954452803 0.0 0.0)" spreadMethod="pad" x1="-36.34743573593319" y1="-9.62141840945753" x2="-36.34746313715498" y2="-2.1380844550548934"><stop offset="0.0" stop-color="#ffffff"></stop><stop offset="1.0" stop-color="#b3b3b3"></stop></linearGradient></defs><path fill="url(#p.49)" d="m272.0 16.0l-15.999756 56.0l-64.000244 0l15.999756 -56.0z" fill-rule="evenodd"></path><path stroke="#000000" stroke-width="1.0" stroke-linejoin="round" stroke-linecap="butt" d="m272.0 16.0l-15.999756 56.0l-64.000244 0l15.999756 -56.0z" fill-rule="evenodd"></path><defs><radialGradient id="p.50" gradientUnits="userSpaceOnUse" gradientTransform="matrix(-3.3635856653478005 0.0 0.0 -3.3635856653478005 0.0 0.0)" spreadMethod="pad" cx="-73.73084103518927" cy="-9.513656907766357" fx="-73.73084103518927" fy="-9.513656907766357" r="3.3635857105255127"><stop offset="0.0" stop-color="#db0000"></stop><stop offset="1.0" stop-color="#540303"></stop></radialGradient></defs><path fill="url(#p.50)" d="m256.0 32.0l0 0c0 4.4182777 -3.581726 8.0 -8.0 8.0l0 0c-2.1217346 0 -4.1565704 -0.84285355 -5.6568604 -2.3431473c-1.5002899 -1.5002899 -2.3431396 -3.535122 -2.3431396 -5.6568527l0 0c0 -4.4182777 3.581726 -8.0 8.0 -8.0l0 0c4.418274 0 8.0 3.5817223 8.0 8.0z" fill-rule="evenodd"></path><path stroke="#000000" stroke-width="1.0" stroke-linejoin="round" stroke-linecap="butt" d="m256.0 32.0l0 0c0 4.4182777 -3.581726 8.0 -8.0 8.0l0 0c-2.1217346 0 -4.1565704 -0.84285355 -5.6568604 -2.3431473c-1.5002899 -1.5002899 -2.3431396 -3.535122 -2.3431396 -5.6568527l0 0c0 -4.4182777 3.581726 -8.0 8.0 -8.0l0 0c4.418274 0 8.0 3.5817223 8.0 8.0z" fill-rule="evenodd"></path><defs><radialGradient id="p.51" gradientUnits="userSpaceOnUse" gradientTransform="matrix(-3.3635856653478005 0.0 0.0 -3.3635856653478005 0.0 0.0)" spreadMethod="pad" cx="-66.5955983543645" cy="-9.513656907766357" fx="-66.5955983543645" fy="-9.513656907766357" r="3.3635857105255127"><stop offset="0.0" stop-color="#51ab2a"></stop><stop offset="1.0" stop-color="#203e13"></stop></radialGradient></defs><path fill="url(#p.51)" d="m232.0 32.0l0 0c0 4.4182777 -3.581726 8.0 -8.0 8.0l0 0c-2.1217346 0 -4.1565704 -0.84285355 -5.6568604 -2.3431473c-1.5002899 -1.5002899 -2.3431396 -3.535122 -2.3431396 -5.6568527l0 0c0 -4.4182777 3.581726 -8.0 8.0 -8.0l0 0c4.418274 0 8.0 3.5817223 8.0 8.0z" fill-rule="evenodd"></path><path stroke="#000000" stroke-width="1.0" stroke-linejoin="round" stroke-linecap="butt" d="m232.0 32.0l0 0c0 4.4182777 -3.581726 8.0 -8.0 8.0l0 0c-2.1217346 0 -4.1565704 -0.84285355 -5.6568604 -2.3431473c-1.5002899 -1.5002899 -2.3431396 -3.535122 -2.3431396 -5.6568527l0 0c0 -4.4182777 3.581726 -8.0 8.0 -8.0l0 0c4.418274 0 8.0 3.5817223 8.0 8.0z" fill-rule="evenodd"></path><defs><radialGradient id="p.52" gradientUnits="userSpaceOnUse" gradientTransform="matrix(-3.3635856653478005 0.0 0.0 -3.3635856653478005 0.0 0.0)" spreadMethod="pad" cx="-64.21718412742291" cy="-16.648899588591124" fx="-64.21718412742291" fy="-16.648899588591124" r="3.3635857105255127"><stop offset="0.0" stop-color="#3177ee"></stop><stop offset="1.0" stop-color="#113d8a"></stop></radialGradient></defs><path fill="url(#p.52)" d="m224.0 56.0l0 0c0 4.4182777 -3.581726 8.0 -8.0 8.0l0 0c-2.1217346 0 -4.1565704 -0.84285355 -5.6568604 -2.3431473c-1.5002899 -1.5002899 -2.3431396 -3.535122 -2.3431396 -5.6568527l0 0c0 -4.4182777 3.581726 -8.0 8.0 -8.0l0 0c4.418274 0 8.0 3.5817223 8.0 8.0z" fill-rule="evenodd"></path><path stroke="#000000" stroke-width="1.0" stroke-linejoin="round" stroke-linecap="butt" d="m224.0 56.0l0 0c0 4.4182777 -3.581726 8.0 -8.0 8.0l0 0c-2.1217346 0 -4.1565704 -0.84285355 -5.6568604 -2.3431473c-1.5002899 -1.5002899 -2.3431396 -3.535122 -2.3431396 -5.6568527l0 0c0 -4.4182777 3.581726 -8.0 8.0 -8.0l0 0c4.418274 0 8.0 3.5817223 8.0 8.0z" fill-rule="evenodd"></path><defs><linearGradient id="p.53" gradientUnits="userSpaceOnUse" gradientTransform="matrix(7.483333954451565 0.0 0.0 7.483333954451565 0.0 0.0)" spreadMethod="pad" x1="6.414253365165741" y1="9.6213416860381" x2="6.414226648974492" y2="17.104675640441975"><stop offset="0.0" stop-color="#ffffff"></stop><stop offset="1.0" stop-color="#b3b3b3"></stop></linearGradient></defs><path fill="url(#p.53)" d="m48.0 128.0l15.99976 -56.0l64.000244 0l-15.9997635 56.0z" fill-rule="evenodd"></path><path stroke="#000000" stroke-width="1.0" stroke-linejoin="round" stroke-linecap="butt" d="m48.0 128.0l15.99976 -56.0l64.000244 0l-15.9997635 56.0z" fill-rule="evenodd"></path><defs><radialGradient id="p.54" gradientUnits="userSpaceOnUse" gradientTransform="matrix(3.3635856653478005 0.0 0.0 3.3635856653478005 0.0 0.0)" spreadMethod="pad" cx="21.405728042474305" cy="33.29779917718225" fx="21.405728042474305" fy="33.29779917718225" r="3.3635857105255127"><stop offset="0.0" stop-color="#db0000"></stop><stop offset="1.0" stop-color="#540303"></stop></radialGradient></defs><path fill="url(#p.54)" d="m64.0 112.0l0 0c0 -4.4182816 3.5817184 -8.0 8.0 -8.0l0 0c2.1217346 0 4.156563 0.84285736 5.6568527 2.3431473c1.5002899 1.5002899 2.3431473 3.535118 2.3431473 5.6568527l0 0c0 4.4182816 -3.5817184 8.0 -8.0 8.0l0 0c-4.4182816 0 -8.0 -3.5817184 -8.0 -8.0z" fill-rule="evenodd"></path><path stroke="#000000" stroke-width="1.0" stroke-linejoin="round" stroke-linecap="butt" d="m64.0 112.0l0 0c0 -4.4182816 3.5817184 -8.0 8.0 -8.0l0 0c2.1217346 0 4.156563 0.84285736 5.6568527 2.3431473c1.5002899 1.5002899 2.3431473 3.535118 2.3431473 5.6568527l0 0c0 4.4182816 -3.5817184 8.0 -8.0 8.0l0 0c-4.4182816 0 -8.0 -3.5817184 -8.0 -8.0z" fill-rule="evenodd"></path><defs><radialGradient id="p.55" gradientUnits="userSpaceOnUse" gradientTransform="matrix(3.3635856653478005 0.0 0.0 3.3635856653478005 0.0 0.0)" spreadMethod="pad" cx="28.540970723299072" cy="33.29779917718225" fx="28.540970723299072" fy="33.29779917718225" r="3.3635857105255127"><stop offset="0.0" stop-color="#51ab2a"></stop><stop offset="1.0" stop-color="#203e13"></stop></radialGradient></defs><path fill="url(#p.55)" d="m88.0 112.0l0 0c0 -4.4182816 3.5817184 -8.0 8.0 -8.0l0 0c2.1217346 0 4.156563 0.84285736 5.6568527 2.3431473c1.5002899 1.5002899 2.3431473 3.535118 2.3431473 5.6568527l0 0c0 4.4182816 -3.5817184 8.0 -8.0 8.0l0 0c-4.4182816 0 -8.0 -3.5817184 -8.0 -8.0z" fill-rule="evenodd"></path><path stroke="#000000" stroke-width="1.0" stroke-linejoin="round" stroke-linecap="butt" d="m88.0 112.0l0 0c0 -4.4182816 3.5817184 -8.0 8.0 -8.0l0 0c2.1217346 0 4.156563 0.84285736 5.6568527 2.3431473c1.5002899 1.5002899 2.3431473 3.535118 2.3431473 5.6568527l0 0c0 4.4182816 -3.5817184 8.0 -8.0 8.0l0 0c-4.4182816 0 -8.0 -3.5817184 -8.0 -8.0z" fill-rule="evenodd"></path><defs><radialGradient id="p.56" gradientUnits="userSpaceOnUse" gradientTransform="matrix(3.3635856653478005 0.0 0.0 3.3635856653478005 0.0 0.0)" spreadMethod="pad" cx="30.919384950240662" cy="26.162556496357485" fx="30.919384950240662" fy="26.162556496357485" r="3.3635857105255127"><stop offset="0.0" stop-color="#3177ee"></stop><stop offset="1.0" stop-color="#113d8a"></stop></radialGradient></defs><path fill="url(#p.56)" d="m96.0 88.0l0 0c0 -4.4182816 3.5817184 -8.0 8.0 -8.0l0 0c2.1217346 0 4.156563 0.84285736 5.6568527 2.3431473c1.5002899 1.5002899 2.3431473 3.535118 2.3431473 5.6568527l0 0c0 4.4182816 -3.5817184 8.0 -8.0 8.0l0 0c-4.4182816 0 -8.0 -3.5817184 -8.0 -8.0z" fill-rule="evenodd"></path><path stroke="#000000" stroke-width="1.0" stroke-linejoin="round" stroke-linecap="butt" d="m96.0 88.0l0 0c0 -4.4182816 3.5817184 -8.0 8.0 -8.0l0 0c2.1217346 0 4.156563 0.84285736 5.6568527 2.3431473c1.5002899 1.5002899 2.3431473 3.535118 2.3431473 5.6568527l0 0c0 4.4182816 -3.5817184 8.0 -8.0 8.0l0 0c-4.4182816 0 -8.0 -3.5817184 -8.0 -8.0z" fill-rule="evenodd"></path><defs><linearGradient id="p.57" gradientUnits="userSpaceOnUse" gradientTransform="matrix(7.483334296968067 0.0 0.0 7.483334296968067 0.0 0.0)" spreadMethod="pad" x1="32.07126535790843" y1="9.62134056063326" x2="32.071237956687895" y2="17.104674857551164"><stop offset="0.0" stop-color="#ffffff"></stop><stop offset="1.0" stop-color="#b3b3b3"></stop></linearGradient></defs><path fill="url(#p.57)" d="m240.0 128.0l15.999756 -56.0l64.000244 0l-15.999756 56.0z" fill-rule="evenodd"></path><path stroke="#000000" stroke-width="1.0" stroke-linejoin="round" stroke-linecap="butt" d="m240.0 128.0l15.999756 -56.0l64.000244 0l-15.999756 56.0z" fill-rule="evenodd"></path><defs><radialGradient id="p.58" gradientUnits="userSpaceOnUse" gradientTransform="matrix(3.3635856653478005 0.0 0.0 3.3635856653478005 0.0 0.0)" spreadMethod="pad" cx="78.48766948907245" cy="33.29779917718225" fx="78.48766948907245" fy="33.29779917718225" r="3.3635857105255127"><stop offset="0.0" stop-color="#db0000"></stop><stop offset="1.0" stop-color="#540303"></stop></radialGradient></defs><path fill="url(#p.58)" d="m256.0 112.0l0 0c0 -4.4182816 3.581726 -8.0 8.0 -8.0l0 0c2.1217346 0 4.156555 0.84285736 5.6568604 2.3431473c1.5002747 1.5002899 2.3431396 3.535118 2.3431396 5.6568527l0 0c0 4.4182816 -3.581726 8.0 -8.0 8.0l0 0c-4.418274 0 -8.0 -3.5817184 -8.0 -8.0z" fill-rule="evenodd"></path><path stroke="#000000" stroke-width="1.0" stroke-linejoin="round" stroke-linecap="butt" d="m256.0 112.0l0 0c0 -4.4182816 3.581726 -8.0 8.0 -8.0l0 0c2.1217346 0 4.156555 0.84285736 5.6568604 2.3431473c1.5002747 1.5002899 2.3431396 3.535118 2.3431396 5.6568527l0 0c0 4.4182816 -3.581726 8.0 -8.0 8.0l0 0c-4.418274 0 -8.0 -3.5817184 -8.0 -8.0z" fill-rule="evenodd"></path><defs><radialGradient id="p.59" gradientUnits="userSpaceOnUse" gradientTransform="matrix(3.3635856653478005 0.0 0.0 3.3635856653478005 0.0 0.0)" spreadMethod="pad" cx="85.62291216989722" cy="33.29779917718225" fx="85.62291216989722" fy="33.29779917718225" r="3.3635857105255127"><stop offset="0.0" stop-color="#51ab2a"></stop><stop offset="1.0" stop-color="#203e13"></stop></radialGradient></defs><path fill="url(#p.59)" d="m280.0 112.0l0 0c0 -4.4182816 3.581726 -8.0 8.0 -8.0l0 0c2.1217346 0 4.156555 0.84285736 5.6568604 2.3431473c1.5002747 1.5002899 2.3431396 3.535118 2.3431396 5.6568527l0 0c0 4.4182816 -3.581726 8.0 -8.0 8.0l0 0c-4.418274 0 -8.0 -3.5817184 -8.0 -8.0z" fill-rule="evenodd"></path><path stroke="#000000" stroke-width="1.0" stroke-linejoin="round" stroke-linecap="butt" d="m280.0 112.0l0 0c0 -4.4182816 3.581726 -8.0 8.0 -8.0l0 0c2.1217346 0 4.156555 0.84285736 5.6568604 2.3431473c1.5002747 1.5002899 2.3431396 3.535118 2.3431396 5.6568527l0 0c0 4.4182816 -3.581726 8.0 -8.0 8.0l0 0c-4.418274 0 -8.0 -3.5817184 -8.0 -8.0z" fill-rule="evenodd"></path><defs><radialGradient id="p.60" gradientUnits="userSpaceOnUse" gradientTransform="matrix(3.3635856653478005 0.0 0.0 3.3635856653478005 0.0 0.0)" spreadMethod="pad" cx="88.0013263968388" cy="26.162556496357485" fx="88.0013263968388" fy="26.162556496357485" r="3.3635857105255127"><stop offset="0.0" stop-color="#3177ee"></stop><stop offset="1.0" stop-color="#113d8a"></stop></radialGradient></defs><path fill="url(#p.60)" d="m288.0 88.0l0 0c0 -4.4182816 3.581726 -8.0 8.0 -8.0l0 0c2.1217346 0 4.156555 0.84285736 5.6568604 2.3431473c1.5002747 1.5002899 2.3431396 3.535118 2.3431396 5.6568527l0 0c0 4.4182816 -3.581726 8.0 -8.0 8.0l0 0c-4.418274 0 -8.0 -3.5817184 -8.0 -8.0z" fill-rule="evenodd"></path><path stroke="#000000" stroke-width="1.0" stroke-linejoin="round" stroke-linecap="butt" d="m288.0 88.0l0 0c0 -4.4182816 3.581726 -8.0 8.0 -8.0l0 0c2.1217346 0 4.156555 0.84285736 5.6568604 2.3431473c1.5002747 1.5002899 2.3431396 3.535118 2.3431396 5.6568527l0 0c0 4.4182816 -3.581726 8.0 -8.0 8.0l0 0c-4.418274 0 -8.0 -3.5817184 -8.0 -8.0z" fill-rule="evenodd"></path><defs><linearGradient id="p.61" gradientUnits="userSpaceOnUse" gradientTransform="matrix(-7.483333954452803 0.0 0.0 -7.483333954452803 0.0 0.0)" spreadMethod="pad" x1="-44.89977355615276" y1="-9.62141840945753" x2="-44.89980095737455" y2="-2.1380844550548934"><stop offset="0.0" stop-color="#ffffff"></stop><stop offset="1.0" stop-color="#b3b3b3"></stop></linearGradient></defs><path fill="url(#p.61)" d="m336.0 16.0l-15.999756 56.0l-64.000244 0l15.999756 -56.0z" fill-rule="evenodd"></path><path stroke="#000000" stroke-width="1.0" stroke-linejoin="round" stroke-linecap="butt" d="m336.0 16.0l-15.999756 56.0l-64.000244 0l15.999756 -56.0z" fill-rule="evenodd"></path><defs><radialGradient id="p.62" gradientUnits="userSpaceOnUse" gradientTransform="matrix(-3.3635856653478005 0.0 0.0 -3.3635856653478005 0.0 0.0)" spreadMethod="pad" cx="-92.758154850722" cy="-9.513656907766357" fx="-92.758154850722" fy="-9.513656907766357" r="3.3635857105255127"><stop offset="0.0" stop-color="#db0000"></stop><stop offset="1.0" stop-color="#540303"></stop></radialGradient></defs><path fill="url(#p.62)" d="m320.0 32.0l0 0c0 4.4182777 -3.581726 8.0 -8.0 8.0l0 0c-2.1217346 0 -4.156555 -0.84285355 -5.6568604 -2.3431473c-1.5002747 -1.5002899 -2.3431396 -3.535122 -2.3431396 -5.6568527l0 0c0 -4.4182777 3.581726 -8.0 8.0 -8.0l0 0c4.418274 0 8.0 3.5817223 8.0 8.0z" fill-rule="evenodd"></path><path stroke="#000000" stroke-width="1.0" stroke-linejoin="round" stroke-linecap="butt" d="m320.0 32.0l0 0c0 4.4182777 -3.581726 8.0 -8.0 8.0l0 0c-2.1217346 0 -4.156555 -0.84285355 -5.6568604 -2.3431473c-1.5002747 -1.5002899 -2.3431396 -3.535122 -2.3431396 -5.6568527l0 0c0 -4.4182777 3.581726 -8.0 8.0 -8.0l0 0c4.418274 0 8.0 3.5817223 8.0 8.0z" fill-rule="evenodd"></path><defs><radialGradient id="p.63" gradientUnits="userSpaceOnUse" gradientTransform="matrix(-3.3635856653478005 0.0 0.0 -3.3635856653478005 0.0 0.0)" spreadMethod="pad" cx="-85.62291216989722" cy="-9.513656907766357" fx="-85.62291216989722" fy="-9.513656907766357" r="3.3635857105255127"><stop offset="0.0" stop-color="#51ab2a"></stop><stop offset="1.0" stop-color="#203e13"></stop></radialGradient></defs><path fill="url(#p.63)" d="m296.0 32.0l0 0c0 4.4182777 -3.581726 8.0 -8.0 8.0l0 0c-2.1217346 0 -4.156555 -0.84285355 -5.6568604 -2.3431473c-1.5002747 -1.5002899 -2.3431396 -3.535122 -2.3431396 -5.6568527l0 0c0 -4.4182777 3.581726 -8.0 8.0 -8.0l0 0c4.418274 0 8.0 3.5817223 8.0 8.0z" fill-rule="evenodd"></path><path stroke="#000000" stroke-width="1.0" stroke-linejoin="round" stroke-linecap="butt" d="m296.0 32.0l0 0c0 4.4182777 -3.581726 8.0 -8.0 8.0l0 0c-2.1217346 0 -4.156555 -0.84285355 -5.6568604 -2.3431473c-1.5002747 -1.5002899 -2.3431396 -3.535122 -2.3431396 -5.6568527l0 0c0 -4.4182777 3.581726 -8.0 8.0 -8.0l0 0c4.418274 0 8.0 3.5817223 8.0 8.0z" fill-rule="evenodd"></path><defs><radialGradient id="p.64" gradientUnits="userSpaceOnUse" gradientTransform="matrix(-3.3635856653478005 0.0 0.0 -3.3635856653478005 0.0 0.0)" spreadMethod="pad" cx="-83.24449794295563" cy="-16.648899588591124" fx="-83.24449794295563" fy="-16.648899588591124" r="3.3635857105255127"><stop offset="0.0" stop-color="#3177ee"></stop><stop offset="1.0" stop-color="#113d8a"></stop></radialGradient></defs><path fill="url(#p.64)" d="m288.0 56.0l0 0c0 4.4182777 -3.581726 8.0 -8.0 8.0l0 0c-2.1217346 0 -4.156555 -0.84285355 -5.6568604 -2.3431473c-1.5002747 -1.5002899 -2.3431396 -3.535122 -2.3431396 -5.6568527l0 0c0 -4.4182777 3.581726 -8.0 8.0 -8.0l0 0c4.418274 0 8.0 3.5817223 8.0 8.0z" fill-rule="evenodd"></path><path stroke="#000000" stroke-width="1.0" stroke-linejoin="round" stroke-linecap="butt" d="m288.0 56.0l0 0c0 4.4182777 -3.581726 8.0 -8.0 8.0l0 0c-2.1217346 0 -4.156555 -0.84285355 -5.6568604 -2.3431473c-1.5002747 -1.5002899 -2.3431396 -3.535122 -2.3431396 -5.6568527l0 0c0 -4.4182777 3.581726 -8.0 8.0 -8.0l0 0c4.418274 0 8.0 3.5817223 8.0 8.0z" fill-rule="evenodd"></path></g></svg>

