<?xml version="1.0" standalone="yes"?>

<svg version="1.1" viewBox="0.0 0.0 307.20997375328085 250.0551181102362" fill="none" stroke="none" stroke-linecap="square" stroke-miterlimit="10" xmlns="http://www.w3.org/2000/svg" xmlns:xlink="http://www.w3.org/1999/xlink"><clipPath id="p.0"><path d="m0 0l307.20996 0l0 250.05511l-307.20996 0l0 -250.05511z" clip-rule="nonzero"></path></clipPath><g clip-path="url(#p.0)"><path fill="#000000" fill-opacity="0.0" d="m0 0l307.20996 0l0 250.05511l-307.20996 0z" fill-rule="evenodd"></path><defs><linearGradient id="p.1" gradientUnits="userSpaceOnUse" gradientTransform="matrix(6.963928889363437 4.020744162408767 -4.020744162408767 6.963928889363437 0.0 0.0)" spreadMethod="pad" x1="7.895009593163375" y1="3.6791201305031436" x2="7.894984730778261" y2="10.643049019822199"><stop offset="0.0" stop-color="#ffffff"></stop><stop offset="1.0" stop-color="#b3b3b3"></stop></linearGradient></defs><path fill="url(#p.1)" d="m12.187309 105.86125l56.28917 -32.162758l56.59247 32.67463l-56.28917 32.162766z" fill-rule="evenodd"></path><path stroke="#000000" stroke-width="1.0" stroke-linejoin="round" stroke-linecap="butt" d="m12.187309 105.86125l56.28917 -32.162758l56.59247 32.67463l-56.28917 32.162766z" fill-rule="evenodd"></path><defs><radialGradient id="p.2" gradientUnits="userSpaceOnUse" gradientTransform="matrix(3.1301232925369704 1.8072305382596416 -1.8072305382596416 3.1301232925369704 0.0 0.0)" spreadMethod="pad" cx="26.6970652859668" cy="19.252097102952288" fx="26.6970652859668" fy="19.252097102952288" r="3.1301233768463135"><stop offset="0.0" stop-color="#db0000"></stop><stop offset="1.0" stop-color="#540303"></stop></radialGradient></defs><path fill="url(#p.2)" d="m41.844128 104.509186l0 0c2.2091408 -3.8262253 7.1017723 -5.1371384 10.928001 -2.9279938l0 0c1.8374176 1.0608597 3.178154 2.8081894 3.7272606 4.8575897c0.5491066 2.0493927 0.2616043 4.2329865 -0.799263 6.070404l0 0c-2.209137 3.826233 -7.1017685 5.137146 -10.927998 2.9280014l0 0c-3.826229 -2.209137 -5.1371384 -7.1017685 -2.9280014 -10.928001z" fill-rule="evenodd"></path><path stroke="#000000" stroke-width="1.0" stroke-linejoin="round" stroke-linecap="butt" d="m41.844128 104.509186l0 0c2.2091408 -3.8262253 7.1017723 -5.1371384 10.928001 -2.9279938l0 0c1.8374176 1.0608597 3.178154 2.8081894 3.7272606 4.8575897c0.5491066 2.0493927 0.2616043 4.2329865 -0.799263 6.070404l0 0c-2.209137 3.826233 -7.1017685 5.137146 -10.927998 2.9280014l0 0c-3.826229 -2.209137 -5.1371384 -7.1017685 -2.9280014 -10.928001z" fill-rule="evenodd"></path><defs><radialGradient id="p.3" gradientUnits="userSpaceOnUse" gradientTransform="matrix(3.1301232925369704 1.8072305382596416 -1.8072305382596416 3.1301232925369704 0.0 0.0)" spreadMethod="pad" cx="33.3370593239029" cy="19.25209710320146" fx="33.3370593239029" fy="19.25209710320146" r="3.1301233768463135"><stop offset="0.0" stop-color="#51ab2a"></stop><stop offset="1.0" stop-color="#203e13"></stop></radialGradient></defs><path fill="url(#p.3)" d="m62.628128 116.509186l0 0c2.209137 -3.8262253 7.1017685 -5.1371384 10.928001 -2.9279938l0 0c1.8374176 1.0608597 3.178154 2.8081894 3.7272644 4.8575897c0.5491028 2.0493927 0.26159668 4.2329865 -0.799263 6.070404l0 0c-2.2091446 3.826233 -7.101776 5.137146 -10.928001 2.9280014l0 0c-3.826229 -2.209137 -5.137142 -7.1017685 -2.9280014 -10.928001z" fill-rule="evenodd"></path><path stroke="#000000" stroke-width="1.0" stroke-linejoin="round" stroke-linecap="butt" d="m62.628128 116.509186l0 0c2.209137 -3.8262253 7.1017685 -5.1371384 10.928001 -2.9279938l0 0c1.8374176 1.0608597 3.178154 2.8081894 3.7272644 4.8575897c0.5491028 2.0493927 0.26159668 4.2329865 -0.799263 6.070404l0 0c-2.2091446 3.826233 -7.101776 5.137146 -10.928001 2.9280014l0 0c-3.826229 -2.209137 -5.137142 -7.1017685 -2.9280014 -10.928001z" fill-rule="evenodd"></path><defs><radialGradient id="p.4" gradientUnits="userSpaceOnUse" gradientTransform="matrix(3.1301232925369704 1.8072305382596416 -1.8072305382596416 3.1301232925369704 0.0 0.0)" spreadMethod="pad" cx="35.55039067013076" cy="12.612103065348473" fx="35.55039067013076" fy="12.612103065348473" r="3.1301233768463135"><stop offset="0.0" stop-color="#3177ee"></stop><stop offset="1.0" stop-color="#113d8a"></stop></radialGradient></defs><path fill="url(#p.4)" d="m81.55613 99.72519l0 0c2.209137 -3.8262253 7.1017685 -5.1371384 10.928001 -2.9280014l0 0c1.8374176 1.0608673 3.178154 2.808197 3.7272568 4.8575897c0.5491104 2.0494003 0.2616043 4.232994 -0.799263 6.0704117l0 0c-2.209137 3.8262253 -7.1017685 5.1371384 -10.927994 2.9280014l0 0c-3.826233 -2.209137 -5.1371384 -7.101776 -2.9280014 -10.928001z" fill-rule="evenodd"></path><path stroke="#000000" stroke-width="1.0" stroke-linejoin="round" stroke-linecap="butt" d="m81.55613 99.72519l0 0c2.209137 -3.8262253 7.1017685 -5.1371384 10.928001 -2.9280014l0 0c1.8374176 1.0608673 3.178154 2.808197 3.7272568 4.8575897c0.5491104 2.0494003 0.2616043 4.232994 -0.799263 6.0704117l0 0c-2.209137 3.8262253 -7.1017685 5.1371384 -10.927994 2.9280014l0 0c-3.826233 -2.209137 -5.1371384 -7.101776 -2.9280014 -10.928001z" fill-rule="evenodd"></path><defs><linearGradient id="p.5" gradientUnits="userSpaceOnUse" gradientTransform="matrix(0.0 -7.48333874966508 7.48333874966508 0.0 0.0 0.0)" spreadMethod="pad" x1="-14.166904850624443" y1="9.223961886949363" x2="-14.166932251828678" y2="16.707300636564277"><stop offset="0.0" stop-color="#ffffff"></stop><stop offset="1.0" stop-color="#b3b3b3"></stop></linearGradient></defs><path fill="url(#p.5)" d="m125.02639 106.01575l-56.0 -32.66648l0 -65.349266l56.0 32.66648z" fill-rule="evenodd"></path><path stroke="#000000" stroke-width="1.0" stroke-linejoin="round" stroke-linecap="butt" d="m125.02639 106.01575l-56.0 -32.66648l0 -65.349266l56.0 32.66648z" fill-rule="evenodd"></path><defs><radialGradient id="p.6" gradientUnits="userSpaceOnUse" gradientTransform="matrix(0.0 -3.3635856653478005 3.3635856653478005 0.0 0.0 0.0)" spreadMethod="pad" cx="-21.70537077972679" cy="32.4137391756217" fx="-21.70537077972679" fy="32.4137391756217" r="3.3635857105255127"><stop offset="0.0" stop-color="#db0000"></stop><stop offset="1.0" stop-color="#540303"></stop></radialGradient></defs><path fill="url(#p.6)" d="m109.02639 81.00787l0 0c-4.4182816 0 -8.0 -3.5817184 -8.0 -8.0l0 0c0 -2.1217346 0.84284973 -4.156563 2.3431473 -5.6568527c1.5002899 -1.5002899 3.535118 -2.3431473 5.6568527 -2.3431473l0 0c4.418274 0 8.0 3.581726 8.0 8.0l0 0c0 4.4182816 -3.581726 8.0 -8.0 8.0z" fill-rule="evenodd"></path><path stroke="#000000" stroke-width="1.0" stroke-linejoin="round" stroke-linecap="butt" d="m109.02639 81.00787l0 0c-4.4182816 0 -8.0 -3.5817184 -8.0 -8.0l0 0c0 -2.1217346 0.84284973 -4.156563 2.3431473 -5.6568527c1.5002899 -1.5002899 3.535118 -2.3431473 5.6568527 -2.3431473l0 0c4.418274 0 8.0 3.581726 8.0 8.0l0 0c0 4.4182816 -3.581726 8.0 -8.0 8.0z" fill-rule="evenodd"></path><defs><radialGradient id="p.7" gradientUnits="userSpaceOnUse" gradientTransform="matrix(0.0 -3.3635856653478005 3.3635856653478005 0.0 0.0 0.0)" spreadMethod="pad" cx="-14.57012809890202" cy="32.4137391756217" fx="-14.57012809890202" fy="32.4137391756217" r="3.3635857105255127"><stop offset="0.0" stop-color="#51ab2a"></stop><stop offset="1.0" stop-color="#203e13"></stop></radialGradient></defs><path fill="url(#p.7)" d="m109.02639 57.007874l0 0c-4.4182816 0 -8.0 -3.5817223 -8.0 -8.0l0 0c0 -2.1217308 0.84284973 -4.156563 2.3431473 -5.6568527c1.5002899 -1.5002937 3.535118 -2.3431473 5.6568527 -2.3431473l0 0c4.418274 0 8.0 3.5817223 8.0 8.0l0 0c0 4.4182777 -3.581726 8.0 -8.0 8.0z" fill-rule="evenodd"></path><path stroke="#000000" stroke-width="1.0" stroke-linejoin="round" stroke-linecap="butt" d="m109.02639 57.007874l0 0c-4.4182816 0 -8.0 -3.5817223 -8.0 -8.0l0 0c0 -2.1217308 0.84284973 -4.156563 2.3431473 -5.6568527c1.5002899 -1.5002937 3.535118 -2.3431473 5.6568527 -2.3431473l0 0c4.418274 0 8.0 3.5817223 8.0 8.0l0 0c0 4.4182777 -3.581726 8.0 -8.0 8.0z" fill-rule="evenodd"></path><defs><radialGradient id="p.8" gradientUnits="userSpaceOnUse" gradientTransform="matrix(0.0 -3.3635856653478005 3.3635856653478005 0.0 0.0 0.0)" spreadMethod="pad" cx="-12.191713871960431" cy="25.278496494796933" fx="-12.191713871960431" fy="25.278496494796933" r="3.3635857105255127"><stop offset="0.0" stop-color="#3177ee"></stop><stop offset="1.0" stop-color="#113d8a"></stop></radialGradient></defs><path fill="url(#p.8)" d="m85.02639 49.007874l0 0c-4.4182816 0 -8.0 -3.5817223 -8.0 -8.0l0 0c0 -2.1217308 0.84284973 -4.156563 2.3431473 -5.6568527c1.5002899 -1.5002937 3.535118 -2.3431473 5.6568527 -2.3431473l0 0c4.418274 0 8.0 3.5817223 8.0 8.0l0 0c0 4.4182777 -3.581726 8.0 -8.0 8.0z" fill-rule="evenodd"></path><path stroke="#000000" stroke-width="1.0" stroke-linejoin="round" stroke-linecap="butt" d="m85.02639 49.007874l0 0c-4.4182816 0 -8.0 -3.5817223 -8.0 -8.0l0 0c0 -2.1217308 0.84284973 -4.156563 2.3431473 -5.6568527c1.5002899 -1.5002937 3.535118 -2.3431473 5.6568527 -2.3431473l0 0c4.418274 0 8.0 3.5817223 8.0 8.0l0 0c0 4.4182777 -3.581726 8.0 -8.0 8.0z" fill-rule="evenodd"></path><defs><linearGradient id="p.9" gradientUnits="userSpaceOnUse" gradientTransform="matrix(-6.96392920812486 4.020744346396887 -4.020744346396887 -6.96392920812486 0.0 0.0)" spreadMethod="pad" x1="-6.904207530527925" y1="-12.137405309061894" x2="-6.9042330304089266" y2="-5.173476100983719"><stop offset="0.0" stop-color="#ffffff"></stop><stop offset="1.0" stop-color="#b3b3b3"></stop></linearGradient></defs><path fill="url(#p.9)" d="m68.88164 8.267668l-0.2891693 64.82924l-56.59247 32.674637l0.28917122 -64.82924z" fill-rule="evenodd"></path><path stroke="#000000" stroke-width="1.0" stroke-linejoin="round" stroke-linecap="butt" d="m68.88164 8.267668l-0.2891693 64.82924l-56.59247 32.674637l0.28917122 -64.82924z" fill-rule="evenodd"></path><defs><radialGradient id="p.10" gradientUnits="userSpaceOnUse" gradientTransform="matrix(-3.1301232925089484 1.8072305383728884 -1.8072305383728884 -3.1301232925089484 0.0 0.0)" spreadMethod="pad" cx="-6.228378965366113" cy="-15.936663426185415" fx="-6.228378965366113" fy="-15.936663426185415" r="3.1301233768463135"><stop offset="0.0" stop-color="#db0000"></stop><stop offset="1.0" stop-color="#540303"></stop></radialGradient></defs><path fill="url(#p.10)" d="m55.22482 34.627605l0 0c2.209137 3.826229 0.8982277 8.718861 -2.9280014 10.927998l0 0c-1.8374176 1.0608673 -4.0210114 1.3483696 -6.070408 0.799263c-2.0493965 -0.5491066 -3.7967262 -1.889843 -4.8575897 -3.7272606l0 0c-2.2091408 -3.826229 -0.8982315 -8.718861 2.9279976 -10.928001l0 0c3.826229 -2.2091389 8.718861 -0.8982277 10.928001 2.9280014z" fill-rule="evenodd"></path><path stroke="#000000" stroke-width="1.0" stroke-linejoin="round" stroke-linecap="butt" d="m55.22482 34.627605l0 0c2.209137 3.826229 0.8982277 8.718861 -2.9280014 10.927998l0 0c-1.8374176 1.0608673 -4.0210114 1.3483696 -6.070408 0.799263c-2.0493965 -0.5491066 -3.7967262 -1.889843 -4.8575897 -3.7272606l0 0c-2.2091408 -3.826229 -0.8982315 -8.718861 2.9279976 -10.928001l0 0c3.826229 -2.2091389 8.718861 -0.8982277 10.928001 2.9280014z" fill-rule="evenodd"></path><defs><radialGradient id="p.11" gradientUnits="userSpaceOnUse" gradientTransform="matrix(-3.130123292520792 1.8072305383250271 -1.8072305383250271 -3.130123292520792 0.0 0.0)" spreadMethod="pad" cx="0.4116150723032285" cy="-15.936663426294366" fx="0.4116150723032285" fy="-15.936663426294366" r="3.1301233768463135"><stop offset="0.0" stop-color="#51ab2a"></stop><stop offset="1.0" stop-color="#203e13"></stop></radialGradient></defs><path fill="url(#p.11)" d="m34.44082 46.627605l0 0c2.2091408 3.826229 0.8982277 8.718861 -2.9279995 10.927998l0 0c-1.8374195 1.0608673 -4.0210114 1.3483696 -6.07041 0.799263c-2.0493965 -0.5491066 -3.7967243 -1.889843 -4.8575897 -3.7272606l0 0c-2.2091408 -3.826229 -0.8982296 -8.718861 2.9279995 -10.928001l0 0c3.826229 -2.209137 8.718859 -0.8982277 10.9279995 2.9280014z" fill-rule="evenodd"></path><path stroke="#000000" stroke-width="1.0" stroke-linejoin="round" stroke-linecap="butt" d="m34.44082 46.627605l0 0c2.2091408 3.826229 0.8982277 8.718861 -2.9279995 10.927998l0 0c-1.8374195 1.0608673 -4.0210114 1.3483696 -6.07041 0.799263c-2.0493965 -0.5491066 -3.7967243 -1.889843 -4.8575897 -3.7272606l0 0c-2.2091408 -3.826229 -0.8982296 -8.718861 2.9279995 -10.928001l0 0c3.826229 -2.209137 8.718859 -0.8982277 10.9279995 2.9280014z" fill-rule="evenodd"></path><defs><radialGradient id="p.12" gradientUnits="userSpaceOnUse" gradientTransform="matrix(-3.1301232925369704 1.8072305382596388 -1.8072305382596388 -3.1301232925369704 0.0 0.0)" spreadMethod="pad" cx="2.6249464177494883" cy="-22.576657464403265" fx="2.6249464177494883" fy="-22.576657464403265" r="3.1301233768463135"><stop offset="0.0" stop-color="#3177ee"></stop><stop offset="1.0" stop-color="#113d8a"></stop></radialGradient></defs><path fill="url(#p.12)" d="m39.512817 71.411606l0 0c2.2091408 3.8262253 0.8982315 8.718857 -2.9279976 10.928001l0 0c-1.8374214 1.0608597 -4.0210114 1.3483658 -6.07041 0.799263c-2.0493965 -0.5491104 -3.7967243 -1.8898468 -4.8575916 -3.7272644l0 0c-2.2091389 -3.826233 -0.8982277 -8.718864 2.9280014 -10.928001l0 0c3.826229 -2.209137 8.718861 -0.8982315 10.927998 2.9280014z" fill-rule="evenodd"></path><path stroke="#000000" stroke-width="1.0" stroke-linejoin="round" stroke-linecap="butt" d="m39.512817 71.411606l0 0c2.2091408 3.8262253 0.8982315 8.718857 -2.9279976 10.928001l0 0c-1.8374214 1.0608597 -4.0210114 1.3483658 -6.07041 0.799263c-2.0493965 -0.5491104 -3.7967243 -1.8898468 -4.8575916 -3.7272644l0 0c-2.2091389 -3.826233 -0.8982277 -8.718864 2.9280014 -10.928001l0 0c3.826229 -2.209137 8.718861 -0.8982315 10.927998 2.9280014z" fill-rule="evenodd"></path><defs><linearGradient id="p.13" gradientUnits="userSpaceOnUse" gradientTransform="matrix(6.9639290487483265 4.020744254378102 -4.020744254378102 6.9639290487483265 0.0 0.0)" spreadMethod="pad" x1="20.02046065484701" y1="-3.2850722886727803" x2="20.020436429959503" y2="3.678856760033411"><stop offset="0.0" stop-color="#ffffff"></stop><stop offset="1.0" stop-color="#b3b3b3"></stop></linearGradient></defs><path fill="url(#p.13)" d="m124.62933 106.116455l56.28917 -32.162758l56.59247 32.67463l-56.28917 32.162766z" fill-rule="evenodd"></path><path stroke="#000000" stroke-width="1.0" stroke-linejoin="round" stroke-linecap="butt" d="m124.62933 106.116455l56.28917 -32.162758l56.59247 32.67463l-56.28917 32.162766z" fill-rule="evenodd"></path><defs><radialGradient id="p.14" gradientUnits="userSpaceOnUse" gradientTransform="matrix(3.1301232925046127 1.807230538390409 -1.807230538390409 3.1301232925046127 0.0 0.0)" spreadMethod="pad" cx="53.673890059764815" cy="3.7580941736495186" fx="53.673890059764815" fy="3.7580941736495186" r="3.1301233768463135"><stop offset="0.0" stop-color="#db0000"></stop><stop offset="1.0" stop-color="#540303"></stop></radialGradient></defs><path fill="url(#p.14)" d="m154.28615 104.76439l0 0c2.209137 -3.8262253 7.101776 -5.1371384 10.928009 -2.9280014l0 0c1.8374176 1.0608673 3.1781464 2.808197 3.7272491 4.8575974c0.54911804 2.0493927 0.26161194 4.2329865 -0.7992554 6.070404l0 0c-2.209137 3.826233 -7.101776 5.1371384 -10.927994 2.9280014l0 0c-3.826233 -2.209137 -5.137146 -7.1017685 -2.928009 -10.928001z" fill-rule="evenodd"></path><path stroke="#000000" stroke-width="1.0" stroke-linejoin="round" stroke-linecap="butt" d="m154.28615 104.76439l0 0c2.209137 -3.8262253 7.101776 -5.1371384 10.928009 -2.9280014l0 0c1.8374176 1.0608673 3.1781464 2.808197 3.7272491 4.8575974c0.54911804 2.0493927 0.26161194 4.2329865 -0.7992554 6.070404l0 0c-2.209137 3.826233 -7.101776 5.1371384 -10.927994 2.9280014l0 0c-3.826233 -2.209137 -5.137146 -7.1017685 -2.928009 -10.928001z" fill-rule="evenodd"></path><defs><radialGradient id="p.15" gradientUnits="userSpaceOnUse" gradientTransform="matrix(3.1301232925046127 1.807230538390409 -1.807230538390409 3.1301232925046127 0.0 0.0)" spreadMethod="pad" cx="60.31388409763227" cy="3.7580941736609206" fx="60.31388409763227" fy="3.7580941736609206" r="3.1301233768463135"><stop offset="0.0" stop-color="#51ab2a"></stop><stop offset="1.0" stop-color="#203e13"></stop></radialGradient></defs><path fill="url(#p.15)" d="m175.07014 116.76439l0 0c2.2091522 -3.8262253 7.101776 -5.1371384 10.928009 -2.9280014l0 0c1.8374176 1.0608673 3.1781464 2.808197 3.7272644 4.8575974c0.5491028 2.0493927 0.26159668 4.2329865 -0.79927063 6.070404l0 0c-2.209137 3.826233 -7.101761 5.137146 -10.927994 2.9280014l0 0c-3.826233 -2.209137 -5.137146 -7.1017685 -2.928009 -10.928001z" fill-rule="evenodd"></path><path stroke="#000000" stroke-width="1.0" stroke-linejoin="round" stroke-linecap="butt" d="m175.07014 116.76439l0 0c2.2091522 -3.8262253 7.101776 -5.1371384 10.928009 -2.9280014l0 0c1.8374176 1.0608673 3.1781464 2.808197 3.7272644 4.8575974c0.5491028 2.0493927 0.26159668 4.2329865 -0.79927063 6.070404l0 0c-2.209137 3.826233 -7.101761 5.137146 -10.927994 2.9280014l0 0c-3.826233 -2.209137 -5.137146 -7.1017685 -2.928009 -10.928001z" fill-rule="evenodd"></path><defs><radialGradient id="p.16" gradientUnits="userSpaceOnUse" gradientTransform="matrix(3.1301232925046127 1.807230538390409 -1.807230538390409 3.1301232925046127 0.0 0.0)" spreadMethod="pad" cx="62.52721544359949" cy="-2.88189986420268" fx="62.52721544359949" fy="-2.88189986420268" r="3.1301233768463135"><stop offset="0.0" stop-color="#3177ee"></stop><stop offset="1.0" stop-color="#113d8a"></stop></radialGradient></defs><path fill="url(#p.16)" d="m193.99815 99.98039l0 0c2.209137 -3.826233 7.101761 -5.1371384 10.927994 -2.9280014l0 0c1.8374176 1.0608673 3.1781616 2.808197 3.7272644 4.8575897c0.5491028 2.0494003 0.26161194 4.232994 -0.7992554 6.0704117l0 0c-2.209137 3.8262253 -7.101776 5.1371384 -10.928009 2.9280014l0 0c-3.826233 -2.2091446 -5.1371307 -7.101776 -2.9279938 -10.928001z" fill-rule="evenodd"></path><path stroke="#000000" stroke-width="1.0" stroke-linejoin="round" stroke-linecap="butt" d="m193.99815 99.98039l0 0c2.209137 -3.826233 7.101761 -5.1371384 10.927994 -2.9280014l0 0c1.8374176 1.0608673 3.1781616 2.808197 3.7272644 4.8575897c0.5491028 2.0494003 0.26161194 4.232994 -0.7992554 6.0704117l0 0c-2.209137 3.8262253 -7.101776 5.1371384 -10.928009 2.9280014l0 0c-3.826233 -2.2091446 -5.1371307 -7.101776 -2.9279938 -10.928001z" fill-rule="evenodd"></path><defs><linearGradient id="p.17" gradientUnits="userSpaceOnUse" gradientTransform="matrix(0.0 -7.4833380646349426 7.4833380646349426 0.0 0.0 0.0)" spreadMethod="pad" x1="-14.201008319325329" y1="24.24961310770006" x2="-14.201035720532072" y2="31.73295117228484"><stop offset="0.0" stop-color="#ffffff"></stop><stop offset="1.0" stop-color="#b3b3b3"></stop></linearGradient></defs><path fill="url(#p.17)" d="m237.46841 106.27095l-56.0 -32.66648l0 -65.349266l56.0 32.666477z" fill-rule="evenodd"></path><path stroke="#000000" stroke-width="1.0" stroke-linejoin="round" stroke-linecap="butt" d="m237.46841 106.27095l-56.0 -32.66648l0 -65.349266l56.0 32.666477z" fill-rule="evenodd"></path><defs><radialGradient id="p.18" gradientUnits="userSpaceOnUse" gradientTransform="matrix(0.0 -3.3635856653478005 3.3635856653478005 0.0 0.0 0.0)" spreadMethod="pad" cx="-21.781242817821898" cy="65.84295252762325" fx="-21.781242817821898" fy="65.84295252762325" r="3.3635857105255127"><stop offset="0.0" stop-color="#db0000"></stop><stop offset="1.0" stop-color="#540303"></stop></radialGradient></defs><path fill="url(#p.18)" d="m221.46841 81.26308l0 0c-4.418274 0 -8.0 -3.581726 -8.0 -8.0l0 0c0 -2.1217346 0.84284973 -4.156563 2.3431396 -5.6568527c1.5002899 -1.5002899 3.5351257 -2.3431473 5.6568604 -2.3431473l0 0c4.418274 0 8.0 3.5817184 8.0 8.0l0 0c0 4.418274 -3.581726 8.0 -8.0 8.0z" fill-rule="evenodd"></path><path stroke="#000000" stroke-width="1.0" stroke-linejoin="round" stroke-linecap="butt" d="m221.46841 81.26308l0 0c-4.418274 0 -8.0 -3.581726 -8.0 -8.0l0 0c0 -2.1217346 0.84284973 -4.156563 2.3431396 -5.6568527c1.5002899 -1.5002899 3.5351257 -2.3431473 5.6568604 -2.3431473l0 0c4.418274 0 8.0 3.5817184 8.0 8.0l0 0c0 4.418274 -3.581726 8.0 -8.0 8.0z" fill-rule="evenodd"></path><defs><radialGradient id="p.19" gradientUnits="userSpaceOnUse" gradientTransform="matrix(0.0 -3.3635856653478005 3.3635856653478005 0.0 0.0 0.0)" spreadMethod="pad" cx="-14.646000136997129" cy="65.84295252762325" fx="-14.646000136997129" fy="65.84295252762325" r="3.3635857105255127"><stop offset="0.0" stop-color="#51ab2a"></stop><stop offset="1.0" stop-color="#203e13"></stop></radialGradient></defs><path fill="url(#p.19)" d="m221.46841 57.263077l0 0c-4.418274 0 -8.0 -3.5817223 -8.0 -8.0l0 0c0 -2.1217308 0.84284973 -4.156563 2.3431396 -5.6568565c1.5002899 -1.5002899 3.5351257 -2.3431435 5.6568604 -2.3431435l0 0c4.418274 0 8.0 3.5817223 8.0 8.0l0 0c0 4.4182777 -3.581726 8.0 -8.0 8.0z" fill-rule="evenodd"></path><path stroke="#000000" stroke-width="1.0" stroke-linejoin="round" stroke-linecap="butt" d="m221.46841 57.263077l0 0c-4.418274 0 -8.0 -3.5817223 -8.0 -8.0l0 0c0 -2.1217308 0.84284973 -4.156563 2.3431396 -5.6568565c1.5002899 -1.5002899 3.5351257 -2.3431435 5.6568604 -2.3431435l0 0c4.418274 0 8.0 3.5817223 8.0 8.0l0 0c0 4.4182777 -3.581726 8.0 -8.0 8.0z" fill-rule="evenodd"></path><defs><radialGradient id="p.20" gradientUnits="userSpaceOnUse" gradientTransform="matrix(0.0 -3.3635856653478005 3.3635856653478005 0.0 0.0 0.0)" spreadMethod="pad" cx="-12.267585910055539" cy="58.70770984679848" fx="-12.267585910055539" fy="58.70770984679848" r="3.3635857105255127"><stop offset="0.0" stop-color="#3177ee"></stop><stop offset="1.0" stop-color="#113d8a"></stop></radialGradient></defs><path fill="url(#p.20)" d="m197.46841 49.263077l0 0c-4.418274 0 -8.0 -3.5817223 -8.0 -8.0l0 0c0 -2.1217308 0.84284973 -4.156563 2.3431396 -5.6568565c1.5002899 -1.5002899 3.5351257 -2.3431435 5.6568604 -2.3431435l0 0c4.418274 0 8.0 3.5817223 8.0 8.0l0 0c0 4.4182777 -3.581726 8.0 -8.0 8.0z" fill-rule="evenodd"></path><path stroke="#000000" stroke-width="1.0" stroke-linejoin="round" stroke-linecap="butt" d="m197.46841 49.263077l0 0c-4.418274 0 -8.0 -3.5817223 -8.0 -8.0l0 0c0 -2.1217308 0.84284973 -4.156563 2.3431396 -5.6568565c1.5002899 -1.5002899 3.5351257 -2.3431435 5.6568604 -2.3431435l0 0c4.418274 0 8.0 3.5817223 8.0 8.0l0 0c0 4.4182777 -3.581726 8.0 -8.0 8.0z" fill-rule="evenodd"></path><defs><linearGradient id="p.21" gradientUnits="userSpaceOnUse" gradientTransform="matrix(-6.9639287299998 4.020744070343157 -4.020744070343157 -6.9639287299998 0.0 0.0)" spreadMethod="pad" x1="-18.997923922823965" y1="-19.156566343388437" x2="-18.99794814771258" y2="-12.192637613430776"><stop offset="0.0" stop-color="#ffffff"></stop><stop offset="1.0" stop-color="#b3b3b3"></stop></linearGradient></defs><path fill="url(#p.21)" d="m181.32365 8.52287l-0.2891693 64.82924l-56.59246 32.67463l0.2891693 -64.82924z" fill-rule="evenodd"></path><path stroke="#000000" stroke-width="1.0" stroke-linejoin="round" stroke-linecap="butt" d="m181.32365 8.52287l-0.2891693 64.82924l-56.59246 32.67463l0.2891693 -64.82924z" fill-rule="evenodd"></path><defs><radialGradient id="p.22" gradientUnits="userSpaceOnUse" gradientTransform="matrix(-3.130123292476592 1.8072305385036525 -1.8072305385036525 -3.130123292476592 0.0 0.0)" spreadMethod="pad" cx="-33.13459480631237" cy="-31.552961168945725" fx="-33.13459480631237" fy="-31.552961168945725" r="3.1301233768463135"><stop offset="0.0" stop-color="#db0000"></stop><stop offset="1.0" stop-color="#540303"></stop></radialGradient></defs><path fill="url(#p.22)" d="m167.66684 34.88281l0 0c2.209137 3.8262253 0.8982239 8.718861 -2.9279938 10.927998l0 0c-1.8374176 1.0608673 -4.0210114 1.3483696 -6.0704193 0.799263c-2.0493927 -0.5491066 -3.7967224 -1.889843 -4.8575897 -3.7272606l0 0c-2.209137 -3.826229 -0.8982239 -8.718864 2.928009 -10.928001l0 0c3.8262177 -2.2091389 8.718857 -0.8982296 10.927994 2.9280014z" fill-rule="evenodd"></path><path stroke="#000000" stroke-width="1.0" stroke-linejoin="round" stroke-linecap="butt" d="m167.66684 34.88281l0 0c2.209137 3.8262253 0.8982239 8.718861 -2.9279938 10.927998l0 0c-1.8374176 1.0608673 -4.0210114 1.3483696 -6.0704193 0.799263c-2.0493927 -0.5491066 -3.7967224 -1.889843 -4.8575897 -3.7272606l0 0c-2.209137 -3.826229 -0.8982239 -8.718864 2.928009 -10.928001l0 0c3.8262177 -2.2091389 8.718857 -0.8982296 10.927994 2.9280014z" fill-rule="evenodd"></path><defs><radialGradient id="p.23" gradientUnits="userSpaceOnUse" gradientTransform="matrix(-3.1301232925046127 1.8072305383904097 -1.8072305383904097 -3.1301232925046127 0.0 0.0)" spreadMethod="pad" cx="-26.494600769719995" cy="-31.552961168212093" fx="-26.494600769719995" fy="-31.552961168212093" r="3.1301233768463135"><stop offset="0.0" stop-color="#51ab2a"></stop><stop offset="1.0" stop-color="#203e13"></stop></radialGradient></defs><path fill="url(#p.23)" d="m146.88284 46.88281l0 0c2.209137 3.8262253 0.8982239 8.718861 -2.9279938 10.927998l0 0c-1.8374329 1.0608673 -4.0210114 1.3483696 -6.0704193 0.799263c-2.0493927 -0.5491066 -3.7967224 -1.889843 -4.8575897 -3.7272606l0 0c-2.209137 -3.826229 -0.8982239 -8.718864 2.928009 -10.928001l0 0c3.8262177 -2.2091408 8.718857 -0.8982277 10.927994 2.9280014z" fill-rule="evenodd"></path><path stroke="#000000" stroke-width="1.0" stroke-linejoin="round" stroke-linecap="butt" d="m146.88284 46.88281l0 0c2.209137 3.8262253 0.8982239 8.718861 -2.9279938 10.927998l0 0c-1.8374329 1.0608673 -4.0210114 1.3483696 -6.0704193 0.799263c-2.0493927 -0.5491066 -3.7967224 -1.889843 -4.8575897 -3.7272606l0 0c-2.209137 -3.826229 -0.8982239 -8.718864 2.928009 -10.928001l0 0c3.8262177 -2.2091408 8.718857 -0.8982277 10.927994 2.9280014z" fill-rule="evenodd"></path><defs><radialGradient id="p.24" gradientUnits="userSpaceOnUse" gradientTransform="matrix(-3.1301232925046127 1.8072305383904097 -1.8072305383904097 -3.1301232925046127 0.0 0.0)" spreadMethod="pad" cx="-24.28126942377562" cy="-38.19295520608335" fx="-24.28126942377562" fy="-38.19295520608335" r="3.1301233768463135"><stop offset="0.0" stop-color="#3177ee"></stop><stop offset="1.0" stop-color="#113d8a"></stop></radialGradient></defs><path fill="url(#p.24)" d="m151.95485 71.66681l0 0c2.209137 3.8262253 0.8982239 8.718857 -2.928009 10.928001l0 0c-1.8374176 1.0608597 -4.0210114 1.3483658 -6.070404 0.799263c-2.049408 -0.5491104 -3.7967224 -1.8898468 -4.8575897 -3.7272644l0 0c-2.209137 -3.826233 -0.89823914 -8.718864 2.9279938 -10.928001l0 0c3.826233 -2.209137 8.718857 -0.8982315 10.928009 2.9280014z" fill-rule="evenodd"></path><path stroke="#000000" stroke-width="1.0" stroke-linejoin="round" stroke-linecap="butt" d="m151.95485 71.66681l0 0c2.209137 3.8262253 0.8982239 8.718857 -2.928009 10.928001l0 0c-1.8374176 1.0608597 -4.0210114 1.3483658 -6.070404 0.799263c-2.049408 -0.5491104 -3.7967224 -1.8898468 -4.8575897 -3.7272644l0 0c-2.209137 -3.826233 -0.89823914 -8.718864 2.9279938 -10.928001l0 0c3.826233 -2.209137 8.718857 -0.8982315 10.928009 2.9280014z" fill-rule="evenodd"></path><defs><linearGradient id="p.25" gradientUnits="userSpaceOnUse" gradientTransform="matrix(6.9639287299998 4.020744070343156 -4.020744070343156 6.9639287299998 0.0 0.0)" spreadMethod="pad" x1="20.02047687114048" y1="10.75267453435993" x2="20.02045264625187" y2="17.716603264317595"><stop offset="0.0" stop-color="#ffffff"></stop><stop offset="1.0" stop-color="#b3b3b3"></stop></linearGradient></defs><path fill="url(#p.25)" d="m68.18725 203.87439l56.289177 -32.162766l56.59247 32.674637l-56.289177 32.16275z" fill-rule="evenodd"></path><path stroke="#000000" stroke-width="1.0" stroke-linejoin="round" stroke-linecap="butt" d="m68.18725 203.87439l56.289177 -32.162766l56.59247 32.674637l-56.289177 32.16275z" fill-rule="evenodd"></path><defs><radialGradient id="p.26" gradientUnits="userSpaceOnUse" gradientTransform="matrix(3.1301232925046127 1.807230538390409 -1.807230538390409 3.1301232925046127 0.0 0.0)" spreadMethod="pad" cx="53.673923698308904" cy="34.98940941464213" fx="53.673923698308904" fy="34.98940941464213" r="3.1301233768463135"><stop offset="0.0" stop-color="#db0000"></stop><stop offset="1.0" stop-color="#540303"></stop></radialGradient></defs><path fill="url(#p.26)" d="m97.84407 202.52232l0 0c2.209137 -3.826233 7.1017685 -5.137146 10.928001 -2.928009l0 0c1.8374176 1.0608673 3.178154 2.808197 3.7272644 4.8575897c0.5491028 2.049408 0.26159668 4.2330017 -0.799263 6.0704193l0 0c-2.2091446 3.8262177 -7.101776 5.1371307 -10.928001 2.9279938l0 0c-3.826233 -2.209137 -5.1371384 -7.101776 -2.9280014 -10.927994z" fill-rule="evenodd"></path><path stroke="#000000" stroke-width="1.0" stroke-linejoin="round" stroke-linecap="butt" d="m97.84407 202.52232l0 0c2.209137 -3.826233 7.1017685 -5.137146 10.928001 -2.928009l0 0c1.8374176 1.0608673 3.178154 2.808197 3.7272644 4.8575897c0.5491028 2.049408 0.26159668 4.2330017 -0.799263 6.0704193l0 0c-2.2091446 3.8262177 -7.101776 5.1371307 -10.928001 2.9279938l0 0c-3.826233 -2.209137 -5.1371384 -7.101776 -2.9280014 -10.927994z" fill-rule="evenodd"></path><defs><radialGradient id="p.27" gradientUnits="userSpaceOnUse" gradientTransform="matrix(3.1301232925046127 1.807230538390409 -1.807230538390409 3.1301232925046127 0.0 0.0)" spreadMethod="pad" cx="60.31391773617635" cy="34.989409414653544" fx="60.31391773617635" fy="34.989409414653544" r="3.1301233768463135"><stop offset="0.0" stop-color="#51ab2a"></stop><stop offset="1.0" stop-color="#203e13"></stop></radialGradient></defs><path fill="url(#p.27)" d="m118.62807 214.52232l0 0c2.2091446 -3.826233 7.101776 -5.137146 10.928009 -2.928009l0 0c1.8374176 1.0608673 3.1781464 2.808197 3.7272491 4.8575897c0.54911804 2.049408 0.26161194 4.2330017 -0.7992554 6.0704193l0 0c-2.209137 3.8262177 -7.1017685 5.1371307 -10.928001 2.9279938l0 0c-3.8262253 -2.209137 -5.1371384 -7.101776 -2.9280014 -10.927994z" fill-rule="evenodd"></path><path stroke="#000000" stroke-width="1.0" stroke-linejoin="round" stroke-linecap="butt" d="m118.62807 214.52232l0 0c2.2091446 -3.826233 7.101776 -5.137146 10.928009 -2.928009l0 0c1.8374176 1.0608673 3.1781464 2.808197 3.7272491 4.8575897c0.54911804 2.049408 0.26161194 4.2330017 -0.7992554 6.0704193l0 0c-2.209137 3.8262177 -7.1017685 5.1371307 -10.928001 2.9279938l0 0c-3.8262253 -2.209137 -5.1371384 -7.101776 -2.9280014 -10.927994z" fill-rule="evenodd"></path><defs><radialGradient id="p.28" gradientUnits="userSpaceOnUse" gradientTransform="matrix(3.1301232925046127 1.807230538390409 -1.807230538390409 3.1301232925046127 0.0 0.0)" spreadMethod="pad" cx="62.52724908214358" cy="28.349415376789942" fx="62.52724908214358" fy="28.349415376789942" r="3.1301233768463135"><stop offset="0.0" stop-color="#3177ee"></stop><stop offset="1.0" stop-color="#113d8a"></stop></radialGradient></defs><path fill="url(#p.28)" d="m137.55608 197.73833l0 0c2.209137 -3.826233 7.101761 -5.137146 10.927994 -2.928009l0 0c1.8374176 1.0608673 3.1781616 2.808197 3.7272644 4.8575897c0.5491028 2.049408 0.26159668 4.2329865 -0.79927063 6.0704193l0 0c-2.209137 3.8262177 -7.101761 5.1371307 -10.927994 2.9279938l0 0c-3.826233 -2.209137 -5.137146 -7.101776 -2.9279938 -10.927994z" fill-rule="evenodd"></path><path stroke="#000000" stroke-width="1.0" stroke-linejoin="round" stroke-linecap="butt" d="m137.55608 197.73833l0 0c2.209137 -3.826233 7.101761 -5.137146 10.927994 -2.928009l0 0c1.8374176 1.0608673 3.1781616 2.808197 3.7272644 4.8575897c0.5491028 2.049408 0.26159668 4.2329865 -0.79927063 6.0704193l0 0c-2.209137 3.8262177 -7.101761 5.1371307 -10.927994 2.9279938l0 0c-3.826233 -2.209137 -5.137146 -7.101776 -2.9279938 -10.927994z" fill-rule="evenodd"></path><defs><linearGradient id="p.29" gradientUnits="userSpaceOnUse" gradientTransform="matrix(0.0 -7.4833380646349426 7.4833380646349426 0.0 0.0 0.0)" spreadMethod="pad" x1="-27.264419919137943" y1="16.707247363549083" x2="-27.264447320344686" y2="24.19058542813386"><stop offset="0.0" stop-color="#ffffff"></stop><stop offset="1.0" stop-color="#b3b3b3"></stop></linearGradient></defs><path fill="url(#p.29)" d="m181.02634 204.02888l-56.000008 -32.66649l0 -65.349266l56.000008 32.66648z" fill-rule="evenodd"></path><path stroke="#000000" stroke-width="1.0" stroke-linejoin="round" stroke-linecap="butt" d="m181.02634 204.02888l-56.000008 -32.66649l0 -65.349266l56.000008 32.66648z" fill-rule="evenodd"></path><defs><radialGradient id="p.30" gradientUnits="userSpaceOnUse" gradientTransform="matrix(0.0 -3.3635856653478005 3.3635856653478005 0.0 0.0 0.0)" spreadMethod="pad" cx="-50.84484876476553" cy="49.06262136308516" fx="-50.84484876476553" fy="49.06262136308516" r="3.3635857105255127"><stop offset="0.0" stop-color="#db0000"></stop><stop offset="1.0" stop-color="#540303"></stop></radialGradient></defs><path fill="url(#p.30)" d="m165.02634 179.02101l0 0c-4.418289 0 -8.0 -3.581726 -8.0 -8.0l0 0c0 -2.1217346 0.84284973 -4.1565704 2.3431396 -5.6568604c1.5002899 -1.5002899 3.5351257 -2.3431396 5.6568604 -2.3431396l0 0c4.418274 0 8.0 3.5817108 8.0 8.0l0 0c0 4.418274 -3.581726 8.0 -8.0 8.0z" fill-rule="evenodd"></path><path stroke="#000000" stroke-width="1.0" stroke-linejoin="round" stroke-linecap="butt" d="m165.02634 179.02101l0 0c-4.418289 0 -8.0 -3.581726 -8.0 -8.0l0 0c0 -2.1217346 0.84284973 -4.1565704 2.3431396 -5.6568604c1.5002899 -1.5002899 3.5351257 -2.3431396 5.6568604 -2.3431396l0 0c4.418274 0 8.0 3.5817108 8.0 8.0l0 0c0 4.418274 -3.581726 8.0 -8.0 8.0z" fill-rule="evenodd"></path><defs><radialGradient id="p.31" gradientUnits="userSpaceOnUse" gradientTransform="matrix(0.0 -3.3635856653478005 3.3635856653478005 0.0 0.0 0.0)" spreadMethod="pad" cx="-43.709606083940756" cy="49.06262136308516" fx="-43.709606083940756" fy="49.06262136308516" r="3.3635857105255127"><stop offset="0.0" stop-color="#51ab2a"></stop><stop offset="1.0" stop-color="#203e13"></stop></radialGradient></defs><path fill="url(#p.31)" d="m165.02634 155.02101l0 0c-4.418289 0 -8.0 -3.581726 -8.0 -8.0l0 0c0 -2.1217346 0.84284973 -4.1565704 2.3431396 -5.6568604c1.5002899 -1.5002899 3.5351257 -2.3431396 5.6568604 -2.3431396l0 0c4.418274 0 8.0 3.5817108 8.0 8.0l0 0c0 4.418274 -3.581726 8.0 -8.0 8.0z" fill-rule="evenodd"></path><path stroke="#000000" stroke-width="1.0" stroke-linejoin="round" stroke-linecap="butt" d="m165.02634 155.02101l0 0c-4.418289 0 -8.0 -3.581726 -8.0 -8.0l0 0c0 -2.1217346 0.84284973 -4.1565704 2.3431396 -5.6568604c1.5002899 -1.5002899 3.5351257 -2.3431396 5.6568604 -2.3431396l0 0c4.418274 0 8.0 3.5817108 8.0 8.0l0 0c0 4.418274 -3.581726 8.0 -8.0 8.0z" fill-rule="evenodd"></path><defs><radialGradient id="p.32" gradientUnits="userSpaceOnUse" gradientTransform="matrix(0.0 -3.3635856653478005 3.3635856653478005 0.0 0.0 0.0)" spreadMethod="pad" cx="-41.33119185699917" cy="41.92737868226038" fx="-41.33119185699917" fy="41.92737868226038" r="3.3635857105255127"><stop offset="0.0" stop-color="#3177ee"></stop><stop offset="1.0" stop-color="#113d8a"></stop></radialGradient></defs><path fill="url(#p.32)" d="m141.02634 147.02101l0 0c-4.418289 0 -8.0 -3.581726 -8.0 -8.0l0 0c0 -2.1217346 0.84284973 -4.1565704 2.3431396 -5.6568604c1.5002899 -1.5002899 3.5351257 -2.3431396 5.6568604 -2.3431396l0 0c4.418274 0 8.0 3.5817108 8.0 8.0l0 0c0 4.418274 -3.581726 8.0 -8.0 8.0z" fill-rule="evenodd"></path><path stroke="#000000" stroke-width="1.0" stroke-linejoin="round" stroke-linecap="butt" d="m141.02634 147.02101l0 0c-4.418289 0 -8.0 -3.581726 -8.0 -8.0l0 0c0 -2.1217346 0.84284973 -4.1565704 2.3431396 -5.6568604c1.5002899 -1.5002899 3.5351257 -2.3431396 5.6568604 -2.3431396l0 0c4.418274 0 8.0 3.5817108 8.0 8.0l0 0c0 4.418274 -3.581726 8.0 -8.0 8.0z" fill-rule="evenodd"></path><defs><linearGradient id="p.33" gradientUnits="userSpaceOnUse" gradientTransform="matrix(-6.963929367499115 4.020744438414355 -4.020744438414355 -6.963929367499115 0.0 0.0)" spreadMethod="pad" x1="-6.840706932807588" y1="-26.175142750913313" x2="-6.8407324326880055" y2="-19.211213383460887"><stop offset="0.0" stop-color="#ffffff"></stop><stop offset="1.0" stop-color="#b3b3b3"></stop></linearGradient></defs><path fill="url(#p.33)" d="m124.88158 106.2808l-0.2891693 64.82923l-56.59247 32.674637l0.28917694 -64.82924z" fill-rule="evenodd"></path><path stroke="#000000" stroke-width="1.0" stroke-linejoin="round" stroke-linecap="butt" d="m124.88158 106.2808l-0.2891693 64.82923l-56.59247 32.674637l0.28917694 -64.82924z" fill-rule="evenodd"></path><defs><radialGradient id="p.34" gradientUnits="userSpaceOnUse" gradientTransform="matrix(-3.1301232925046127 1.8072305383904097 -1.8072305383904097 -3.1301232925046127 0.0 0.0)" spreadMethod="pad" cx="-6.087102573383021" cy="-47.16796073899428" fx="-6.087102573383021" fy="-47.16796073899428" r="3.1301233768463135"><stop offset="0.0" stop-color="#db0000"></stop><stop offset="1.0" stop-color="#540303"></stop></radialGradient></defs><path fill="url(#p.34)" d="m111.22476 132.64073l0 0c2.209137 3.826233 0.8982239 8.718857 -2.9280014 10.928009l0 0c-1.8374176 1.0608673 -4.0210114 1.3483582 -6.0704117 0.7992554c-2.0493927 -0.5491028 -3.7967224 -1.8898468 -4.8575897 -3.7272644l0 0c-2.209137 -3.826233 -0.8982239 -8.718857 2.9280014 -10.927994l0 0c3.8262253 -2.2091446 8.718864 -0.89823914 10.928001 2.9279938z" fill-rule="evenodd"></path><path stroke="#000000" stroke-width="1.0" stroke-linejoin="round" stroke-linecap="butt" d="m111.22476 132.64073l0 0c2.209137 3.826233 0.8982239 8.718857 -2.9280014 10.928009l0 0c-1.8374176 1.0608673 -4.0210114 1.3483582 -6.0704117 0.7992554c-2.0493927 -0.5491028 -3.7967224 -1.8898468 -4.8575897 -3.7272644l0 0c-2.209137 -3.826233 -0.8982239 -8.718857 2.9280014 -10.927994l0 0c3.8262253 -2.2091446 8.718864 -0.89823914 10.928001 2.9279938z" fill-rule="evenodd"></path><defs><radialGradient id="p.35" gradientUnits="userSpaceOnUse" gradientTransform="matrix(-3.1301232925046127 1.8072305383904097 -1.8072305383904097 -3.1301232925046127 0.0 0.0)" spreadMethod="pad" cx="0.5528914644844372" cy="-47.167960739005686" fx="0.5528914644844372" fy="-47.167960739005686" r="3.1301233768463135"><stop offset="0.0" stop-color="#51ab2a"></stop><stop offset="1.0" stop-color="#203e13"></stop></radialGradient></defs><path fill="url(#p.35)" d="m90.44076 144.64073l0 0c2.2091446 3.826233 0.8982315 8.718857 -2.9279938 10.928009l0 0c-1.8374252 1.0608673 -4.0210114 1.3483582 -6.0704117 0.7992554c-2.0494003 -0.5491028 -3.7967224 -1.8898468 -4.8575897 -3.7272644l0 0c-2.2091446 -3.826233 -0.8982315 -8.718857 2.9280014 -10.927994l0 0c3.8262253 -2.209137 8.718857 -0.89823914 10.927994 2.9279938z" fill-rule="evenodd"></path><path stroke="#000000" stroke-width="1.0" stroke-linejoin="round" stroke-linecap="butt" d="m90.44076 144.64073l0 0c2.2091446 3.826233 0.8982315 8.718857 -2.9279938 10.928009l0 0c-1.8374252 1.0608673 -4.0210114 1.3483582 -6.0704117 0.7992554c-2.0494003 -0.5491028 -3.7967224 -1.8898468 -4.8575897 -3.7272644l0 0c-2.2091446 -3.826233 -0.8982315 -8.718857 2.9280014 -10.927994l0 0c3.8262253 -2.209137 8.718857 -0.89823914 10.927994 2.9279938z" fill-rule="evenodd"></path><defs><radialGradient id="p.36" gradientUnits="userSpaceOnUse" gradientTransform="matrix(-3.1301232925046127 1.8072305383904097 -1.8072305383904097 -3.1301232925046127 0.0 0.0)" spreadMethod="pad" cx="2.766222810428821" cy="-53.80795477687693" fx="2.766222810428821" fy="-53.80795477687693" r="3.1301233768463135"><stop offset="0.0" stop-color="#3177ee"></stop><stop offset="1.0" stop-color="#113d8a"></stop></radialGradient></defs><path fill="url(#p.36)" d="m95.512764 169.42473l0 0c2.209137 3.826233 0.8982239 8.718872 -2.9280014 10.928009l0 0c-1.8374252 1.0608673 -4.0210114 1.3483734 -6.0704117 0.7992554c-2.0493927 -0.5491028 -3.7967224 -1.8898315 -4.8575897 -3.7272644l0 0c-2.209137 -3.8262177 -0.8982315 -8.718857 2.9280014 -10.927994l0 0c3.8262253 -2.209137 8.718857 -0.8982239 10.928001 2.9279938z" fill-rule="evenodd"></path><path stroke="#000000" stroke-width="1.0" stroke-linejoin="round" stroke-linecap="butt" d="m95.512764 169.42473l0 0c2.209137 3.826233 0.8982239 8.718872 -2.9280014 10.928009l0 0c-1.8374252 1.0608673 -4.0210114 1.3483734 -6.0704117 0.7992554c-2.0493927 -0.5491028 -3.7967224 -1.8898315 -4.8575897 -3.7272644l0 0c-2.209137 -3.8262177 -0.8982315 -8.718857 2.9280014 -10.927994l0 0c3.8262253 -2.209137 8.718857 -0.8982239 10.928001 2.9279938z" fill-rule="evenodd"></path><defs><linearGradient id="p.37" gradientUnits="userSpaceOnUse" gradientTransform="matrix(6.963929367499115 4.020744438414354 -4.020744438414354 6.963929367499115 0.0 0.0)" spreadMethod="pad" x1="32.14576380151374" y1="3.6789748473413706" x2="32.145738301633315" y2="10.642904214793798"><stop offset="0.0" stop-color="#ffffff"></stop><stop offset="1.0" stop-color="#b3b3b3"></stop></linearGradient></defs><path fill="url(#p.37)" d="m181.06842 203.36633l56.289185 -32.162766l56.59247 32.674637l-56.289185 32.16275z" fill-rule="evenodd"></path><path stroke="#000000" stroke-width="1.0" stroke-linejoin="round" stroke-linecap="butt" d="m181.06842 203.36633l56.289185 -32.162766l56.59247 32.674637l-56.289185 32.16275z" fill-rule="evenodd"></path><defs><radialGradient id="p.38" gradientUnits="userSpaceOnUse" gradientTransform="matrix(3.1301232925046127 1.807230538390409 -1.807230538390409 3.1301232925046127 0.0 0.0)" spreadMethod="pad" cx="80.65038230609512" cy="19.25177493806358" fx="80.65038230609512" fy="19.25177493806358" r="3.1301233768463135"><stop offset="0.0" stop-color="#db0000"></stop><stop offset="1.0" stop-color="#540303"></stop></radialGradient></defs><path fill="url(#p.38)" d="m210.72525 202.01427l0 0c2.209137 -3.826233 7.101761 -5.137146 10.927994 -2.928009l0 0c1.8374176 1.0608673 3.1781616 2.808197 3.7272644 4.8575897c0.5491028 2.049408 0.26159668 4.2330017 -0.79927063 6.0704193l0 0c-2.209137 3.8262177 -7.101761 5.1371307 -10.927994 2.9279938l0 0c-3.826233 -2.209137 -5.137146 -7.101776 -2.9279938 -10.927994z" fill-rule="evenodd"></path><path stroke="#000000" stroke-width="1.0" stroke-linejoin="round" stroke-linecap="butt" d="m210.72525 202.01427l0 0c2.209137 -3.826233 7.101761 -5.137146 10.927994 -2.928009l0 0c1.8374176 1.0608673 3.1781616 2.808197 3.7272644 4.8575897c0.5491028 2.049408 0.26159668 4.2330017 -0.79927063 6.0704193l0 0c-2.209137 3.8262177 -7.101761 5.1371307 -10.927994 2.9279938l0 0c-3.826233 -2.209137 -5.137146 -7.101776 -2.9279938 -10.927994z" fill-rule="evenodd"></path><defs><radialGradient id="p.39" gradientUnits="userSpaceOnUse" gradientTransform="matrix(3.1301232925046127 1.807230538390409 -1.807230538390409 3.1301232925046127 0.0 0.0)" spreadMethod="pad" cx="87.29037634396256" cy="19.25177493807498" fx="87.29037634396256" fy="19.25177493807498" r="3.1301233768463135"><stop offset="0.0" stop-color="#51ab2a"></stop><stop offset="1.0" stop-color="#203e13"></stop></radialGradient></defs><path fill="url(#p.39)" d="m231.50925 214.01427l0 0c2.209137 -3.826233 7.101776 -5.137146 10.927994 -2.928009l0 0c1.8374176 1.0608673 3.1781616 2.808197 3.7272644 4.8575897c0.5491028 2.049408 0.26161194 4.2330017 -0.7992554 6.0704193l0 0c-2.209137 3.8262177 -7.101776 5.1371307 -10.928009 2.9279938l0 0c-3.8262177 -2.209137 -5.1371307 -7.101776 -2.9279938 -10.927994z" fill-rule="evenodd"></path><path stroke="#000000" stroke-width="1.0" stroke-linejoin="round" stroke-linecap="butt" d="m231.50925 214.01427l0 0c2.209137 -3.826233 7.101776 -5.137146 10.927994 -2.928009l0 0c1.8374176 1.0608673 3.1781616 2.808197 3.7272644 4.8575897c0.5491028 2.049408 0.26161194 4.2330017 -0.7992554 6.0704193l0 0c-2.209137 3.8262177 -7.101776 5.1371307 -10.928009 2.9279938l0 0c-3.8262177 -2.209137 -5.1371307 -7.101776 -2.9279938 -10.927994z" fill-rule="evenodd"></path><defs><radialGradient id="p.40" gradientUnits="userSpaceOnUse" gradientTransform="matrix(3.1301232925046127 1.807230538390409 -1.807230538390409 3.1301232925046127 0.0 0.0)" spreadMethod="pad" cx="89.50370768992978" cy="12.611780900211377" fx="89.50370768992978" fy="12.611780900211377" r="3.1301233768463135"><stop offset="0.0" stop-color="#3177ee"></stop><stop offset="1.0" stop-color="#113d8a"></stop></radialGradient></defs><path fill="url(#p.40)" d="m250.43724 197.23027l0 0c2.209137 -3.826233 7.101761 -5.137146 10.927994 -2.928009l0 0c1.8374329 1.0608673 3.1781616 2.808197 3.7272644 4.8575897c0.5491028 2.049408 0.26159668 4.2329865 -0.7992554 6.0704193l0 0c-2.209137 3.8262177 -7.101776 5.1371307 -10.927994 2.9279938l0 0c-3.826233 -2.209137 -5.137146 -7.101776 -2.928009 -10.927994z" fill-rule="evenodd"></path><path stroke="#000000" stroke-width="1.0" stroke-linejoin="round" stroke-linecap="butt" d="m250.43724 197.23027l0 0c2.209137 -3.826233 7.101761 -5.137146 10.927994 -2.928009l0 0c1.8374329 1.0608673 3.1781616 2.808197 3.7272644 4.8575897c0.5491028 2.049408 0.26159668 4.2329865 -0.7992554 6.0704193l0 0c-2.209137 3.8262177 -7.101776 5.1371307 -10.927994 2.9279938l0 0c-3.826233 -2.209137 -5.137146 -7.101776 -2.928009 -10.927994z" fill-rule="evenodd"></path><defs><linearGradient id="p.41" gradientUnits="userSpaceOnUse" gradientTransform="matrix(0.0 -7.4833380646349426 7.4833380646349426 0.0 0.0 0.0)" spreadMethod="pad" x1="-27.196527949190315" y1="31.791581534353263" x2="-27.19655535039706" y2="39.27491959893804"><stop offset="0.0" stop-color="#ffffff"></stop><stop offset="1.0" stop-color="#b3b3b3"></stop></linearGradient></defs><path fill="url(#p.41)" d="m293.9075 203.52083l-56.0 -32.66649l0 -65.349266l56.0 32.66648z" fill-rule="evenodd"></path><path stroke="#000000" stroke-width="1.0" stroke-linejoin="round" stroke-linecap="butt" d="m293.9075 203.52083l-56.0 -32.66649l0 -65.349266l56.0 32.66648z" fill-rule="evenodd"></path><defs><radialGradient id="p.42" gradientUnits="userSpaceOnUse" gradientTransform="matrix(0.0 -3.3635856653478005 3.3635856653478005 0.0 0.0 0.0)" spreadMethod="pad" cx="-50.693802606450824" cy="82.62239545432854" fx="-50.693802606450824" fy="82.62239545432854" r="3.3635857105255127"><stop offset="0.0" stop-color="#db0000"></stop><stop offset="1.0" stop-color="#540303"></stop></radialGradient></defs><path fill="url(#p.42)" d="m277.9075 178.51295l0 0c-4.418274 0 -8.0 -3.581726 -8.0 -8.0l0 0c0 -2.1217346 0.842865 -4.1565704 2.3431396 -5.6568604c1.5003052 -1.5002899 3.5351257 -2.3431396 5.6568604 -2.3431396l0 0c4.418274 0 8.0 3.5817108 8.0 8.0l0 0c0 4.418274 -3.581726 8.0 -8.0 8.0z" fill-rule="evenodd"></path><path stroke="#000000" stroke-width="1.0" stroke-linejoin="round" stroke-linecap="butt" d="m277.9075 178.51295l0 0c-4.418274 0 -8.0 -3.581726 -8.0 -8.0l0 0c0 -2.1217346 0.842865 -4.1565704 2.3431396 -5.6568604c1.5003052 -1.5002899 3.5351257 -2.3431396 5.6568604 -2.3431396l0 0c4.418274 0 8.0 3.5817108 8.0 8.0l0 0c0 4.418274 -3.581726 8.0 -8.0 8.0z" fill-rule="evenodd"></path><defs><radialGradient id="p.43" gradientUnits="userSpaceOnUse" gradientTransform="matrix(0.0 -3.3635856653478005 3.3635856653478005 0.0 0.0 0.0)" spreadMethod="pad" cx="-43.55855992562605" cy="82.62239545432854" fx="-43.55855992562605" fy="82.62239545432854" r="3.3635857105255127"><stop offset="0.0" stop-color="#51ab2a"></stop><stop offset="1.0" stop-color="#203e13"></stop></radialGradient></defs><path fill="url(#p.43)" d="m277.9075 154.51295l0 0c-4.418274 0 -8.0 -3.581726 -8.0 -8.0l0 0c0 -2.1217346 0.842865 -4.1565704 2.3431396 -5.6568604c1.5003052 -1.5002899 3.5351257 -2.3431396 5.6568604 -2.3431396l0 0c4.418274 0 8.0 3.5817108 8.0 8.0l0 0c0 4.418274 -3.581726 8.0 -8.0 8.0z" fill-rule="evenodd"></path><path stroke="#000000" stroke-width="1.0" stroke-linejoin="round" stroke-linecap="butt" d="m277.9075 154.51295l0 0c-4.418274 0 -8.0 -3.581726 -8.0 -8.0l0 0c0 -2.1217346 0.842865 -4.1565704 2.3431396 -5.6568604c1.5003052 -1.5002899 3.5351257 -2.3431396 5.6568604 -2.3431396l0 0c4.418274 0 8.0 3.5817108 8.0 8.0l0 0c0 4.418274 -3.581726 8.0 -8.0 8.0z" fill-rule="evenodd"></path><defs><radialGradient id="p.44" gradientUnits="userSpaceOnUse" gradientTransform="matrix(0.0 -3.3635856653478005 3.3635856653478005 0.0 0.0 0.0)" spreadMethod="pad" cx="-41.18014569868446" cy="75.48715277350378" fx="-41.18014569868446" fy="75.48715277350378" r="3.3635857105255127"><stop offset="0.0" stop-color="#3177ee"></stop><stop offset="1.0" stop-color="#113d8a"></stop></radialGradient></defs><path fill="url(#p.44)" d="m253.9075 146.51295l0 0c-4.418274 0 -8.0 -3.581726 -8.0 -8.0l0 0c0 -2.1217346 0.842865 -4.1565704 2.343155 -5.6568604c1.5002899 -1.5002899 3.5351105 -2.3431396 5.656845 -2.3431396l0 0c4.418274 0 8.0 3.5817108 8.0 8.0l0 0c0 4.418274 -3.581726 8.0 -8.0 8.0z" fill-rule="evenodd"></path><path stroke="#000000" stroke-width="1.0" stroke-linejoin="round" stroke-linecap="butt" d="m253.9075 146.51295l0 0c-4.418274 0 -8.0 -3.581726 -8.0 -8.0l0 0c0 -2.1217346 0.842865 -4.1565704 2.343155 -5.6568604c1.5002899 -1.5002899 3.5351105 -2.3431396 5.656845 -2.3431396l0 0c4.418274 0 8.0 3.5817108 8.0 8.0l0 0c0 4.418274 -3.581726 8.0 -8.0 8.0z" fill-rule="evenodd"></path><defs><linearGradient id="p.45" gradientUnits="userSpaceOnUse" gradientTransform="matrix(-6.9639300049960955 4.020744806484205 -4.020744806484205 -6.9639300049960955 0.0 0.0)" spreadMethod="pad" x1="-19.02917437014769" y1="-33.13940695811009" x2="-19.029199870025774" y2="-26.17547695316068"><stop offset="0.0" stop-color="#ffffff"></stop><stop offset="1.0" stop-color="#b3b3b3"></stop></linearGradient></defs><path fill="url(#p.45)" d="m237.76276 105.77274l-0.2891693 64.82923l-56.59247 32.674637l0.2891693 -64.82924z" fill-rule="evenodd"></path><path stroke="#000000" stroke-width="1.0" stroke-linejoin="round" stroke-linecap="butt" d="m237.76276 105.77274l-0.2891693 64.82923l-56.59247 32.674637l0.2891693 -64.82924z" fill-rule="evenodd"></path><defs><radialGradient id="p.46" gradientUnits="userSpaceOnUse" gradientTransform="matrix(-3.1301232925046127 1.8072305383904097 -1.8072305383904097 -3.1301232925046127 0.0 0.0)" spreadMethod="pad" cx="-33.20412958194137" cy="-62.6621308906662" fx="-33.20412958194137" fy="-62.6621308906662" r="3.1301233768463135"><stop offset="0.0" stop-color="#db0000"></stop><stop offset="1.0" stop-color="#540303"></stop></radialGradient></defs><path fill="url(#p.46)" d="m224.10594 132.13268l0 0c2.209137 3.826233 0.8982239 8.718857 -2.928009 10.928009l0 0c-1.8374176 1.0608673 -4.0210114 1.3483582 -6.070404 0.7992554c-2.0493927 -0.5491028 -3.7967224 -1.8898468 -4.8575897 -3.7272644l0 0c-2.209137 -3.826233 -0.89823914 -8.718857 2.9279938 -10.927994l0 0c3.826233 -2.2091446 8.718857 -0.89823914 10.928009 2.9279938z" fill-rule="evenodd"></path><path stroke="#000000" stroke-width="1.0" stroke-linejoin="round" stroke-linecap="butt" d="m224.10594 132.13268l0 0c2.209137 3.826233 0.8982239 8.718857 -2.928009 10.928009l0 0c-1.8374176 1.0608673 -4.0210114 1.3483582 -6.070404 0.7992554c-2.0493927 -0.5491028 -3.7967224 -1.8898468 -4.8575897 -3.7272644l0 0c-2.209137 -3.826233 -0.89823914 -8.718857 2.9279938 -10.927994l0 0c3.826233 -2.2091446 8.718857 -0.89823914 10.928009 2.9279938z" fill-rule="evenodd"></path><defs><radialGradient id="p.47" gradientUnits="userSpaceOnUse" gradientTransform="matrix(-3.1301232925046127 1.8072305383904097 -1.8072305383904097 -3.1301232925046127 0.0 0.0)" spreadMethod="pad" cx="-26.564135544073913" cy="-62.66213089067761" fx="-26.564135544073913" fy="-62.66213089067761" r="3.1301233768463135"><stop offset="0.0" stop-color="#51ab2a"></stop><stop offset="1.0" stop-color="#203e13"></stop></radialGradient></defs><path fill="url(#p.47)" d="m203.32193 144.13268l0 0c2.2091522 3.826233 0.89823914 8.718857 -2.9279938 10.928009l0 0c-1.8374176 1.0608673 -4.0210114 1.3483582 -6.070404 0.7992554c-2.049408 -0.5491028 -3.7967377 -1.8898468 -4.8575897 -3.7272644l0 0c-2.2091522 -3.826233 -0.89823914 -8.718857 2.9279938 -10.927994l0 0c3.826233 -2.209137 8.718857 -0.89823914 10.927994 2.9279938z" fill-rule="evenodd"></path><path stroke="#000000" stroke-width="1.0" stroke-linejoin="round" stroke-linecap="butt" d="m203.32193 144.13268l0 0c2.2091522 3.826233 0.89823914 8.718857 -2.9279938 10.928009l0 0c-1.8374176 1.0608673 -4.0210114 1.3483582 -6.070404 0.7992554c-2.049408 -0.5491028 -3.7967377 -1.8898468 -4.8575897 -3.7272644l0 0c-2.2091522 -3.826233 -0.89823914 -8.718857 2.9279938 -10.927994l0 0c3.826233 -2.209137 8.718857 -0.89823914 10.927994 2.9279938z" fill-rule="evenodd"></path><defs><radialGradient id="p.48" gradientUnits="userSpaceOnUse" gradientTransform="matrix(-3.1301232925046127 1.8072305383904097 -1.8072305383904097 -3.1301232925046127 0.0 0.0)" spreadMethod="pad" cx="-24.350804198129538" cy="-69.30212492854886" fx="-24.350804198129538" fy="-69.30212492854886" r="3.1301233768463135"><stop offset="0.0" stop-color="#3177ee"></stop><stop offset="1.0" stop-color="#113d8a"></stop></radialGradient></defs><path fill="url(#p.48)" d="m208.39394 168.91667l0 0c2.209137 3.826233 0.8982239 8.718872 -2.9279938 10.928009l0 0c-1.8374329 1.0608673 -4.0210114 1.3483734 -6.0704193 0.7992554c-2.0493927 -0.5491028 -3.7967224 -1.8898315 -4.8575897 -3.7272644l0 0c-2.209137 -3.8262177 -0.8982239 -8.718857 2.928009 -10.927994l0 0c3.8262177 -2.209137 8.718857 -0.8982239 10.927994 2.9279938z" fill-rule="evenodd"></path><path stroke="#000000" stroke-width="1.0" stroke-linejoin="round" stroke-linecap="butt" d="m208.39394 168.91667l0 0c2.209137 3.826233 0.8982239 8.718872 -2.9279938 10.928009l0 0c-1.8374329 1.0608673 -4.0210114 1.3483734 -6.0704193 0.7992554c-2.0493927 -0.5491028 -3.7967224 -1.8898315 -4.8575897 -3.7272644l0 0c-2.209137 -3.8262177 -0.8982239 -8.718857 2.928009 -10.927994l0 0c3.8262177 -2.209137 8.718857 -0.8982239 10.927994 2.9279938z" fill-rule="evenodd"></path></g></svg>

