<?xml version="1.0" standalone="yes"?>

<svg version="1.1" viewBox="0.0 0.0 256.40682414698165 256.40682414698165" fill="none" stroke="none" stroke-linecap="square" stroke-miterlimit="10" xmlns="http://www.w3.org/2000/svg" xmlns:xlink="http://www.w3.org/1999/xlink"><clipPath id="p.0"><path d="m0 0l256.40683 0l0 256.40683l-256.40683 0l0 -256.40683z" clip-rule="nonzero"></path></clipPath><g clip-path="url(#p.0)"><path fill="#000000" fill-opacity="0.0" d="m0 0l256.40683 0l0 256.40683l-256.40683 0z" fill-rule="evenodd"></path><defs><linearGradient id="p.1" gradientUnits="userSpaceOnUse" gradientTransform="matrix(7.483328474205815 0.0 0.0 7.483328474205815 0.0 0.0)" spreadMethod="pad" x1="2.138086020832867" y1="24.58796183833611" x2="2.1380589621065305" y2="32.071290312493005"><stop offset="0.0" stop-color="#ffffff"></stop><stop offset="1.0" stop-color="#b3b3b3"></stop></linearGradient></defs><path fill="url(#p.1)" d="m16.0 184.0l56.0 0l0 56.0l-56.0 0z" fill-rule="evenodd"></path><path stroke="#000000" stroke-width="1.0" stroke-linejoin="round" stroke-linecap="butt" d="m16.0 184.0l56.0 0l0 56.0l-56.0 0z" fill-rule="evenodd"></path><defs><radialGradient id="p.2" gradientUnits="userSpaceOnUse" gradientTransform="matrix(3.3635856653478005 0.0 0.0 3.3635856653478005 0.0 0.0)" spreadMethod="pad" cx="9.513656907766357" cy="66.5955983543645" fx="9.513656907766357" fy="66.5955983543645" r="3.3635857105255127"><stop offset="0.0" stop-color="#db0000"></stop><stop offset="1.0" stop-color="#540303"></stop></radialGradient></defs><path fill="url(#p.2)" d="m24.0 224.0l0 0c0 -4.418274 3.5817223 -8.0 8.0 -8.0l0 0c2.1217308 0 4.156563 0.84284973 5.6568527 2.3431396c1.5002937 1.5002899 2.3431473 3.5351257 2.3431473 5.6568604l0 0c0 4.418274 -3.5817223 8.0 -8.0 8.0l0 0c-4.4182777 0 -8.0 -3.581726 -8.0 -8.0z" fill-rule="evenodd"></path><path stroke="#000000" stroke-width="1.0" stroke-linejoin="round" stroke-linecap="butt" d="m24.0 224.0l0 0c0 -4.418274 3.5817223 -8.0 8.0 -8.0l0 0c2.1217308 0 4.156563 0.84284973 5.6568527 2.3431396c1.5002937 1.5002899 2.3431473 3.5351257 2.3431473 5.6568604l0 0c0 4.418274 -3.5817223 8.0 -8.0 8.0l0 0c-4.4182777 0 -8.0 -3.581726 -8.0 -8.0z" fill-rule="evenodd"></path><defs><radialGradient id="p.3" gradientUnits="userSpaceOnUse" gradientTransform="matrix(3.3635856653478005 0.0 0.0 3.3635856653478005 0.0 0.0)" spreadMethod="pad" cx="16.648899588591124" cy="59.46035567353974" fx="16.648899588591124" fy="59.46035567353974" r="3.3635857105255127"><stop offset="0.0" stop-color="#3177ee"></stop><stop offset="1.0" stop-color="#113d8a"></stop></radialGradient></defs><path fill="url(#p.3)" d="m48.0 200.0l0 0c0 -4.418274 3.5817223 -8.0 8.0 -8.0l0 0c2.1217308 0 4.156563 0.84284973 5.6568527 2.3431396c1.5002937 1.5002899 2.3431473 3.5351257 2.3431473 5.6568604l0 0c0 4.418274 -3.5817223 8.0 -8.0 8.0l0 0c-4.4182777 0 -8.0 -3.581726 -8.0 -8.0z" fill-rule="evenodd"></path><path stroke="#000000" stroke-width="1.0" stroke-linejoin="round" stroke-linecap="butt" d="m48.0 200.0l0 0c0 -4.418274 3.5817223 -8.0 8.0 -8.0l0 0c2.1217308 0 4.156563 0.84284973 5.6568527 2.3431396c1.5002937 1.5002899 2.3431473 3.5351257 2.3431473 5.6568604l0 0c0 4.418274 -3.5817223 8.0 -8.0 8.0l0 0c-4.4182777 0 -8.0 -3.581726 -8.0 -8.0z" fill-rule="evenodd"></path><defs><radialGradient id="p.4" gradientUnits="userSpaceOnUse" gradientTransform="matrix(3.3635856653478005 0.0 0.0 3.3635856653478005 0.0 0.0)" spreadMethod="pad" cx="16.648899588591124" cy="66.5955983543645" fx="16.648899588591124" fy="66.5955983543645" r="3.3635857105255127"><stop offset="0.0" stop-color="#51ab2a"></stop><stop offset="1.0" stop-color="#203e13"></stop></radialGradient></defs><path fill="url(#p.4)" d="m48.0 224.0l0 0c0 -4.418274 3.5817223 -8.0 8.0 -8.0l0 0c2.1217308 0 4.156563 0.84284973 5.6568527 2.3431396c1.5002937 1.5002899 2.3431473 3.5351257 2.3431473 5.6568604l0 0c0 4.418274 -3.5817223 8.0 -8.0 8.0l0 0c-4.4182777 0 -8.0 -3.581726 -8.0 -8.0z" fill-rule="evenodd"></path><path stroke="#000000" stroke-width="1.0" stroke-linejoin="round" stroke-linecap="butt" d="m48.0 224.0l0 0c0 -4.418274 3.5817223 -8.0 8.0 -8.0l0 0c2.1217308 0 4.156563 0.84284973 5.6568527 2.3431396c1.5002937 1.5002899 2.3431473 3.5351257 2.3431473 5.6568604l0 0c0 4.418274 -3.5817223 8.0 -8.0 8.0l0 0c-4.4182777 0 -8.0 -3.581726 -8.0 -8.0z" fill-rule="evenodd"></path><defs><linearGradient id="p.5" gradientUnits="userSpaceOnUse" gradientTransform="matrix(0.0 -7.483328131690906 7.483328131690906 0.0 0.0 0.0)" spreadMethod="pad" x1="-32.07129178040873" y1="9.621360817910583" x2="-32.071319181651845" y2="17.104688949551324"><stop offset="0.0" stop-color="#ffffff"></stop><stop offset="1.0" stop-color="#b3b3b3"></stop></linearGradient></defs><path fill="url(#p.5)" d="m72.0 240.0l0 -56.0l56.0 0l0 56.0z" fill-rule="evenodd"></path><path stroke="#000000" stroke-width="1.0" stroke-linejoin="round" stroke-linecap="butt" d="m72.0 240.0l0 -56.0l56.0 0l0 56.0z" fill-rule="evenodd"></path><defs><radialGradient id="p.6" gradientUnits="userSpaceOnUse" gradientTransform="matrix(0.0 -3.3635856653478005 3.3635856653478005 0.0 0.0 0.0)" spreadMethod="pad" cx="-66.5955983543645" cy="33.29779917718225" fx="-66.5955983543645" fy="33.29779917718225" r="3.3635857105255127"><stop offset="0.0" stop-color="#db0000"></stop><stop offset="1.0" stop-color="#540303"></stop></radialGradient></defs><path fill="url(#p.6)" d="m112.0 232.0l0 0c-4.4182816 0 -8.0 -3.581726 -8.0 -8.0l0 0c0 -2.1217346 0.84285736 -4.1565704 2.3431473 -5.6568604c1.5002899 -1.5002899 3.535118 -2.3431396 5.6568527 -2.3431396l0 0c4.4182816 0 8.0 3.581726 8.0 8.0l0 0c0 4.418274 -3.5817184 8.0 -8.0 8.0z" fill-rule="evenodd"></path><path stroke="#000000" stroke-width="1.0" stroke-linejoin="round" stroke-linecap="butt" d="m112.0 232.0l0 0c-4.4182816 0 -8.0 -3.581726 -8.0 -8.0l0 0c0 -2.1217346 0.84285736 -4.1565704 2.3431473 -5.6568604c1.5002899 -1.5002899 3.535118 -2.3431396 5.6568527 -2.3431396l0 0c4.4182816 0 8.0 3.581726 8.0 8.0l0 0c0 4.418274 -3.5817184 8.0 -8.0 8.0z" fill-rule="evenodd"></path><defs><radialGradient id="p.7" gradientUnits="userSpaceOnUse" gradientTransform="matrix(0.0 -3.3635856653478005 3.3635856653478005 0.0 0.0 0.0)" spreadMethod="pad" cx="-59.46035567353974" cy="26.162556496357485" fx="-59.46035567353974" fy="26.162556496357485" r="3.3635857105255127"><stop offset="0.0" stop-color="#3177ee"></stop><stop offset="1.0" stop-color="#113d8a"></stop></radialGradient></defs><path fill="url(#p.7)" d="m88.0 208.0l0 0c-4.4182816 0 -8.0 -3.581726 -8.0 -8.0l0 0c0 -2.1217346 0.84285736 -4.1565704 2.3431473 -5.6568604c1.5002899 -1.5002899 3.535118 -2.3431396 5.6568527 -2.3431396l0 0c4.4182816 0 8.0 3.581726 8.0 8.0l0 0c0 4.418274 -3.5817184 8.0 -8.0 8.0z" fill-rule="evenodd"></path><path stroke="#000000" stroke-width="1.0" stroke-linejoin="round" stroke-linecap="butt" d="m88.0 208.0l0 0c-4.4182816 0 -8.0 -3.581726 -8.0 -8.0l0 0c0 -2.1217346 0.84285736 -4.1565704 2.3431473 -5.6568604c1.5002899 -1.5002899 3.535118 -2.3431396 5.6568527 -2.3431396l0 0c4.4182816 0 8.0 3.581726 8.0 8.0l0 0c0 4.418274 -3.5817184 8.0 -8.0 8.0z" fill-rule="evenodd"></path><defs><radialGradient id="p.8" gradientUnits="userSpaceOnUse" gradientTransform="matrix(0.0 -3.3635856653478005 3.3635856653478005 0.0 0.0 0.0)" spreadMethod="pad" cx="-59.46035567353974" cy="33.29779917718225" fx="-59.46035567353974" fy="33.29779917718225" r="3.3635857105255127"><stop offset="0.0" stop-color="#51ab2a"></stop><stop offset="1.0" stop-color="#203e13"></stop></radialGradient></defs><path fill="url(#p.8)" d="m112.0 208.0l0 0c-4.4182816 0 -8.0 -3.581726 -8.0 -8.0l0 0c0 -2.1217346 0.84285736 -4.1565704 2.3431473 -5.6568604c1.5002899 -1.5002899 3.535118 -2.3431396 5.6568527 -2.3431396l0 0c4.4182816 0 8.0 3.581726 8.0 8.0l0 0c0 4.418274 -3.5817184 8.0 -8.0 8.0z" fill-rule="evenodd"></path><path stroke="#000000" stroke-width="1.0" stroke-linejoin="round" stroke-linecap="butt" d="m112.0 208.0l0 0c-4.4182816 0 -8.0 -3.581726 -8.0 -8.0l0 0c0 -2.1217346 0.84285736 -4.1565704 2.3431473 -5.6568604c1.5002899 -1.5002899 3.535118 -2.3431396 5.6568527 -2.3431396l0 0c4.4182816 0 8.0 3.581726 8.0 8.0l0 0c0 4.418274 -3.5817184 8.0 -8.0 8.0z" fill-rule="evenodd"></path><defs><linearGradient id="p.9" gradientUnits="userSpaceOnUse" gradientTransform="matrix(-7.483328474206438 0.0 0.0 -7.483328474206438 0.0 0.0)" spreadMethod="pad" x1="-17.10468816666151" y1="-24.58801664081778" x2="-17.10471556790337" y2="-17.10468816666151"><stop offset="0.0" stop-color="#ffffff"></stop><stop offset="1.0" stop-color="#b3b3b3"></stop></linearGradient></defs><path fill="url(#p.9)" d="m128.0 184.0l-56.0 0l0 -56.0l56.0 0z" fill-rule="evenodd"></path><path stroke="#000000" stroke-width="1.0" stroke-linejoin="round" stroke-linecap="butt" d="m128.0 184.0l-56.0 0l0 -56.0l56.0 0z" fill-rule="evenodd"></path><defs><radialGradient id="p.10" gradientUnits="userSpaceOnUse" gradientTransform="matrix(-3.3635856653478005 0.0 0.0 -3.3635856653478005 0.0 0.0)" spreadMethod="pad" cx="-33.29779917718225" cy="-42.81145608494861" fx="-33.29779917718225" fy="-42.81145608494861" r="3.3635857105255127"><stop offset="0.0" stop-color="#db0000"></stop><stop offset="1.0" stop-color="#540303"></stop></radialGradient></defs><path fill="url(#p.10)" d="m120.0 144.0l0 0c0 4.418274 -3.5817184 8.0 -8.0 8.0l0 0c-2.1217346 0 -4.156563 -0.84284973 -5.6568527 -2.3431396c-1.5002899 -1.5002899 -2.3431473 -3.5351257 -2.3431473 -5.6568604l0 0c0 -4.418274 3.5817184 -8.0 8.0 -8.0l0 0c4.4182816 0 8.0 3.581726 8.0 8.0z" fill-rule="evenodd"></path><path stroke="#000000" stroke-width="1.0" stroke-linejoin="round" stroke-linecap="butt" d="m120.0 144.0l0 0c0 4.418274 -3.5817184 8.0 -8.0 8.0l0 0c-2.1217346 0 -4.156563 -0.84284973 -5.6568527 -2.3431396c-1.5002899 -1.5002899 -2.3431473 -3.5351257 -2.3431473 -5.6568604l0 0c0 -4.418274 3.5817184 -8.0 8.0 -8.0l0 0c4.4182816 0 8.0 3.581726 8.0 8.0z" fill-rule="evenodd"></path><defs><radialGradient id="p.11" gradientUnits="userSpaceOnUse" gradientTransform="matrix(-3.3635856653478005 0.0 0.0 -3.3635856653478005 0.0 0.0)" spreadMethod="pad" cx="-26.162556496357485" cy="-49.94669876577338" fx="-26.162556496357485" fy="-49.94669876577338" r="3.3635857105255127"><stop offset="0.0" stop-color="#3177ee"></stop><stop offset="1.0" stop-color="#113d8a"></stop></radialGradient></defs><path fill="url(#p.11)" d="m96.0 168.0l0 0c0 4.418274 -3.5817184 8.0 -8.0 8.0l0 0c-2.1217346 0 -4.156563 -0.84284973 -5.6568527 -2.3431396c-1.5002899 -1.5002899 -2.3431473 -3.5351257 -2.3431473 -5.6568604l0 0c0 -4.418274 3.5817184 -8.0 8.0 -8.0l0 0c4.4182816 0 8.0 3.581726 8.0 8.0z" fill-rule="evenodd"></path><path stroke="#000000" stroke-width="1.0" stroke-linejoin="round" stroke-linecap="butt" d="m96.0 168.0l0 0c0 4.418274 -3.5817184 8.0 -8.0 8.0l0 0c-2.1217346 0 -4.156563 -0.84284973 -5.6568527 -2.3431396c-1.5002899 -1.5002899 -2.3431473 -3.5351257 -2.3431473 -5.6568604l0 0c0 -4.418274 3.5817184 -8.0 8.0 -8.0l0 0c4.4182816 0 8.0 3.581726 8.0 8.0z" fill-rule="evenodd"></path><defs><radialGradient id="p.12" gradientUnits="userSpaceOnUse" gradientTransform="matrix(-3.3635856653478005 0.0 0.0 -3.3635856653478005 0.0 0.0)" spreadMethod="pad" cx="-26.162556496357485" cy="-42.81145608494861" fx="-26.162556496357485" fy="-42.81145608494861" r="3.3635857105255127"><stop offset="0.0" stop-color="#51ab2a"></stop><stop offset="1.0" stop-color="#203e13"></stop></radialGradient></defs><path fill="url(#p.12)" d="m96.0 144.0l0 0c0 4.418274 -3.5817184 8.0 -8.0 8.0l0 0c-2.1217346 0 -4.156563 -0.84284973 -5.6568527 -2.3431396c-1.5002899 -1.5002899 -2.3431473 -3.5351257 -2.3431473 -5.6568604l0 0c0 -4.418274 3.5817184 -8.0 8.0 -8.0l0 0c4.4182816 0 8.0 3.581726 8.0 8.0z" fill-rule="evenodd"></path><path stroke="#000000" stroke-width="1.0" stroke-linejoin="round" stroke-linecap="butt" d="m96.0 144.0l0 0c0 4.418274 -3.5817184 8.0 -8.0 8.0l0 0c-2.1217346 0 -4.156563 -0.84284973 -5.6568527 -2.3431396c-1.5002899 -1.5002899 -2.3431473 -3.5351257 -2.3431473 -5.6568604l0 0c0 -4.418274 3.5817184 -8.0 8.0 -8.0l0 0c4.4182816 0 8.0 3.581726 8.0 8.0z" fill-rule="evenodd"></path><defs><linearGradient id="p.13" gradientUnits="userSpaceOnUse" gradientTransform="matrix(0.0 7.483328474203991 -7.483328474203991 0.0 0.0 0.0)" spreadMethod="pad" x1="17.104688166667103" y1="-9.621414494992106" x2="17.104662135487334" y2="-2.138086020833388"><stop offset="0.0" stop-color="#ffffff"></stop><stop offset="1.0" stop-color="#b3b3b3"></stop></linearGradient></defs><path fill="url(#p.13)" d="m72.0 128.0l0 56.0l-56.0 0l0 -56.0z" fill-rule="evenodd"></path><path stroke="#000000" stroke-width="1.0" stroke-linejoin="round" stroke-linecap="butt" d="m72.0 128.0l0 56.0l-56.0 0l0 -56.0z" fill-rule="evenodd"></path><defs><radialGradient id="p.14" gradientUnits="userSpaceOnUse" gradientTransform="matrix(0.0 3.3635856653478005 -3.3635856653478005 0.0 0.0 0.0)" spreadMethod="pad" cx="42.81145608494861" cy="-9.513656907766357" fx="42.81145608494861" fy="-9.513656907766357" r="3.3635857105255127"><stop offset="0.0" stop-color="#db0000"></stop><stop offset="1.0" stop-color="#540303"></stop></radialGradient></defs><path fill="url(#p.14)" d="m32.0 136.0l0 0c4.4182777 0 8.0 3.581726 8.0 8.0l0 0c0 2.1217346 -0.84285355 4.1565704 -2.3431473 5.6568604c-1.5002899 1.5002899 -3.535122 2.3431396 -5.6568527 2.3431396l0 0c-4.4182777 0 -8.0 -3.581726 -8.0 -8.0l0 0c0 -4.418274 3.5817223 -8.0 8.0 -8.0z" fill-rule="evenodd"></path><path stroke="#000000" stroke-width="1.0" stroke-linejoin="round" stroke-linecap="butt" d="m32.0 136.0l0 0c4.4182777 0 8.0 3.581726 8.0 8.0l0 0c0 2.1217346 -0.84285355 4.1565704 -2.3431473 5.6568604c-1.5002899 1.5002899 -3.535122 2.3431396 -5.6568527 2.3431396l0 0c-4.4182777 0 -8.0 -3.581726 -8.0 -8.0l0 0c0 -4.418274 3.5817223 -8.0 8.0 -8.0z" fill-rule="evenodd"></path><defs><radialGradient id="p.15" gradientUnits="userSpaceOnUse" gradientTransform="matrix(0.0 3.3635856653478005 -3.3635856653478005 0.0 0.0 0.0)" spreadMethod="pad" cx="49.94669876577338" cy="-16.648899588591124" fx="49.94669876577338" fy="-16.648899588591124" r="3.3635857105255127"><stop offset="0.0" stop-color="#3177ee"></stop><stop offset="1.0" stop-color="#113d8a"></stop></radialGradient></defs><path fill="url(#p.15)" d="m56.0 160.0l0 0c4.4182777 0 8.0 3.581726 8.0 8.0l0 0c0 2.1217346 -0.84285355 4.1565704 -2.3431473 5.6568604c-1.5002899 1.5002899 -3.535122 2.3431396 -5.6568527 2.3431396l0 0c-4.4182777 0 -8.0 -3.581726 -8.0 -8.0l0 0c0 -4.418274 3.5817223 -8.0 8.0 -8.0z" fill-rule="evenodd"></path><path stroke="#000000" stroke-width="1.0" stroke-linejoin="round" stroke-linecap="butt" d="m56.0 160.0l0 0c4.4182777 0 8.0 3.581726 8.0 8.0l0 0c0 2.1217346 -0.84285355 4.1565704 -2.3431473 5.6568604c-1.5002899 1.5002899 -3.535122 2.3431396 -5.6568527 2.3431396l0 0c-4.4182777 0 -8.0 -3.581726 -8.0 -8.0l0 0c0 -4.418274 3.5817223 -8.0 8.0 -8.0z" fill-rule="evenodd"></path><defs><radialGradient id="p.16" gradientUnits="userSpaceOnUse" gradientTransform="matrix(0.0 3.3635856653478005 -3.3635856653478005 0.0 0.0 0.0)" spreadMethod="pad" cx="49.94669876577338" cy="-9.513656907766357" fx="49.94669876577338" fy="-9.513656907766357" r="3.3635857105255127"><stop offset="0.0" stop-color="#51ab2a"></stop><stop offset="1.0" stop-color="#203e13"></stop></radialGradient></defs><path fill="url(#p.16)" d="m32.0 160.0l0 0c4.4182777 0 8.0 3.581726 8.0 8.0l0 0c0 2.1217346 -0.84285355 4.1565704 -2.3431473 5.6568604c-1.5002899 1.5002899 -3.535122 2.3431396 -5.6568527 2.3431396l0 0c-4.4182777 0 -8.0 -3.581726 -8.0 -8.0l0 0c0 -4.418274 3.5817223 -8.0 8.0 -8.0z" fill-rule="evenodd"></path><path stroke="#000000" stroke-width="1.0" stroke-linejoin="round" stroke-linecap="butt" d="m32.0 160.0l0 0c4.4182777 0 8.0 3.581726 8.0 8.0l0 0c0 2.1217346 -0.84285355 4.1565704 -2.3431473 5.6568604c-1.5002899 1.5002899 -3.535122 2.3431396 -5.6568527 2.3431396l0 0c-4.4182777 0 -8.0 -3.581726 -8.0 -8.0l0 0c0 -4.418274 3.5817223 -8.0 8.0 -8.0z" fill-rule="evenodd"></path><defs><linearGradient id="p.17" gradientUnits="userSpaceOnUse" gradientTransform="matrix(7.4833271041442195 0.0 0.0 7.4833271041442195 0.0 0.0)" spreadMethod="pad" x1="17.1046912982214" y1="24.587969080071076" x2="17.104663896974525" y2="32.07129618416513"><stop offset="0.0" stop-color="#ffffff"></stop><stop offset="1.0" stop-color="#b3b3b3"></stop></linearGradient></defs><path fill="url(#p.17)" d="m128.0 184.0l56.0 0l0 56.0l-56.0 0z" fill-rule="evenodd"></path><path stroke="#000000" stroke-width="1.0" stroke-linejoin="round" stroke-linecap="butt" d="m128.0 184.0l56.0 0l0 56.0l-56.0 0z" fill-rule="evenodd"></path><defs><radialGradient id="p.18" gradientUnits="userSpaceOnUse" gradientTransform="matrix(3.3635856653478005 0.0 0.0 3.3635856653478005 0.0 0.0)" spreadMethod="pad" cx="42.81145608494861" cy="66.5955983543645" fx="42.81145608494861" fy="66.5955983543645" r="3.3635857105255127"><stop offset="0.0" stop-color="#db0000"></stop><stop offset="1.0" stop-color="#540303"></stop></radialGradient></defs><path fill="url(#p.18)" d="m136.0 224.0l0 0c0 -4.418274 3.581726 -8.0 8.0 -8.0l0 0c2.1217346 0 4.1565704 0.84284973 5.6568604 2.3431396c1.5002899 1.5002899 2.3431396 3.5351257 2.3431396 5.6568604l0 0c0 4.418274 -3.581726 8.0 -8.0 8.0l0 0c-4.418274 0 -8.0 -3.581726 -8.0 -8.0z" fill-rule="evenodd"></path><path stroke="#000000" stroke-width="1.0" stroke-linejoin="round" stroke-linecap="butt" d="m136.0 224.0l0 0c0 -4.418274 3.581726 -8.0 8.0 -8.0l0 0c2.1217346 0 4.1565704 0.84284973 5.6568604 2.3431396c1.5002899 1.5002899 2.3431396 3.5351257 2.3431396 5.6568604l0 0c0 4.418274 -3.581726 8.0 -8.0 8.0l0 0c-4.418274 0 -8.0 -3.581726 -8.0 -8.0z" fill-rule="evenodd"></path><defs><radialGradient id="p.19" gradientUnits="userSpaceOnUse" gradientTransform="matrix(3.3635856653478005 0.0 0.0 3.3635856653478005 0.0 0.0)" spreadMethod="pad" cx="49.94669876577338" cy="59.46035567353974" fx="49.94669876577338" fy="59.46035567353974" r="3.3635857105255127"><stop offset="0.0" stop-color="#3177ee"></stop><stop offset="1.0" stop-color="#113d8a"></stop></radialGradient></defs><path fill="url(#p.19)" d="m160.0 200.0l0 0c0 -4.418274 3.581726 -8.0 8.0 -8.0l0 0c2.1217346 0 4.1565704 0.84284973 5.6568604 2.3431396c1.5002899 1.5002899 2.3431396 3.5351257 2.3431396 5.6568604l0 0c0 4.418274 -3.581726 8.0 -8.0 8.0l0 0c-4.418274 0 -8.0 -3.581726 -8.0 -8.0z" fill-rule="evenodd"></path><path stroke="#000000" stroke-width="1.0" stroke-linejoin="round" stroke-linecap="butt" d="m160.0 200.0l0 0c0 -4.418274 3.581726 -8.0 8.0 -8.0l0 0c2.1217346 0 4.1565704 0.84284973 5.6568604 2.3431396c1.5002899 1.5002899 2.3431396 3.5351257 2.3431396 5.6568604l0 0c0 4.418274 -3.581726 8.0 -8.0 8.0l0 0c-4.418274 0 -8.0 -3.581726 -8.0 -8.0z" fill-rule="evenodd"></path><defs><radialGradient id="p.20" gradientUnits="userSpaceOnUse" gradientTransform="matrix(3.3635856653478005 0.0 0.0 3.3635856653478005 0.0 0.0)" spreadMethod="pad" cx="49.94669876577338" cy="66.5955983543645" fx="49.94669876577338" fy="66.5955983543645" r="3.3635857105255127"><stop offset="0.0" stop-color="#51ab2a"></stop><stop offset="1.0" stop-color="#203e13"></stop></radialGradient></defs><path fill="url(#p.20)" d="m160.0 224.0l0 0c0 -4.418274 3.581726 -8.0 8.0 -8.0l0 0c2.1217346 0 4.1565704 0.84284973 5.6568604 2.3431396c1.5002899 1.5002899 2.3431396 3.5351257 2.3431396 5.6568604l0 0c0 4.418274 -3.581726 8.0 -8.0 8.0l0 0c-4.418274 0 -8.0 -3.581726 -8.0 -8.0z" fill-rule="evenodd"></path><path stroke="#000000" stroke-width="1.0" stroke-linejoin="round" stroke-linecap="butt" d="m160.0 224.0l0 0c0 -4.418274 3.581726 -8.0 8.0 -8.0l0 0c2.1217346 0 4.1565704 0.84284973 5.6568604 2.3431396c1.5002899 1.5002899 2.3431396 3.5351257 2.3431396 5.6568604l0 0c0 4.418274 -3.581726 8.0 -8.0 8.0l0 0c-4.418274 0 -8.0 -3.581726 -8.0 -8.0z" fill-rule="evenodd"></path><defs><linearGradient id="p.21" gradientUnits="userSpaceOnUse" gradientTransform="matrix(0.0 -7.483328474206438 7.483328474206438 0.0 0.0 0.0)" spreadMethod="pad" x1="-32.07129031249033" y1="24.587961838334063" x2="-32.07131771373219" y2="32.07129031249033"><stop offset="0.0" stop-color="#ffffff"></stop><stop offset="1.0" stop-color="#b3b3b3"></stop></linearGradient></defs><path fill="url(#p.21)" d="m184.0 240.0l0 -56.0l56.0 0l0 56.0z" fill-rule="evenodd"></path><path stroke="#000000" stroke-width="1.0" stroke-linejoin="round" stroke-linecap="butt" d="m184.0 240.0l0 -56.0l56.0 0l0 56.0z" fill-rule="evenodd"></path><defs><radialGradient id="p.22" gradientUnits="userSpaceOnUse" gradientTransform="matrix(0.0 -3.3635856653478005 3.3635856653478005 0.0 0.0 0.0)" spreadMethod="pad" cx="-66.5955983543645" cy="66.5955983543645" fx="-66.5955983543645" fy="66.5955983543645" r="3.3635857105255127"><stop offset="0.0" stop-color="#db0000"></stop><stop offset="1.0" stop-color="#540303"></stop></radialGradient></defs><path fill="url(#p.22)" d="m224.0 232.0l0 0c-4.418274 0 -8.0 -3.581726 -8.0 -8.0l0 0c0 -2.1217346 0.84284973 -4.1565704 2.3431396 -5.6568604c1.5002899 -1.5002899 3.5351257 -2.3431396 5.6568604 -2.3431396l0 0c4.418274 0 8.0 3.581726 8.0 8.0l0 0c0 4.418274 -3.581726 8.0 -8.0 8.0z" fill-rule="evenodd"></path><path stroke="#000000" stroke-width="1.0" stroke-linejoin="round" stroke-linecap="butt" d="m224.0 232.0l0 0c-4.418274 0 -8.0 -3.581726 -8.0 -8.0l0 0c0 -2.1217346 0.84284973 -4.1565704 2.3431396 -5.6568604c1.5002899 -1.5002899 3.5351257 -2.3431396 5.6568604 -2.3431396l0 0c4.418274 0 8.0 3.581726 8.0 8.0l0 0c0 4.418274 -3.581726 8.0 -8.0 8.0z" fill-rule="evenodd"></path><defs><radialGradient id="p.23" gradientUnits="userSpaceOnUse" gradientTransform="matrix(0.0 -3.3635856653478005 3.3635856653478005 0.0 0.0 0.0)" spreadMethod="pad" cx="-59.46035567353974" cy="59.46035567353974" fx="-59.46035567353974" fy="59.46035567353974" r="3.3635857105255127"><stop offset="0.0" stop-color="#3177ee"></stop><stop offset="1.0" stop-color="#113d8a"></stop></radialGradient></defs><path fill="url(#p.23)" d="m200.0 208.0l0 0c-4.418274 0 -8.0 -3.581726 -8.0 -8.0l0 0c0 -2.1217346 0.84284973 -4.1565704 2.3431396 -5.6568604c1.5002899 -1.5002899 3.5351257 -2.3431396 5.6568604 -2.3431396l0 0c4.418274 0 8.0 3.581726 8.0 8.0l0 0c0 4.418274 -3.581726 8.0 -8.0 8.0z" fill-rule="evenodd"></path><path stroke="#000000" stroke-width="1.0" stroke-linejoin="round" stroke-linecap="butt" d="m200.0 208.0l0 0c-4.418274 0 -8.0 -3.581726 -8.0 -8.0l0 0c0 -2.1217346 0.84284973 -4.1565704 2.3431396 -5.6568604c1.5002899 -1.5002899 3.5351257 -2.3431396 5.6568604 -2.3431396l0 0c4.418274 0 8.0 3.581726 8.0 8.0l0 0c0 4.418274 -3.581726 8.0 -8.0 8.0z" fill-rule="evenodd"></path><defs><radialGradient id="p.24" gradientUnits="userSpaceOnUse" gradientTransform="matrix(0.0 -3.3635856653478005 3.3635856653478005 0.0 0.0 0.0)" spreadMethod="pad" cx="-59.46035567353974" cy="66.5955983543645" fx="-59.46035567353974" fy="66.5955983543645" r="3.3635857105255127"><stop offset="0.0" stop-color="#51ab2a"></stop><stop offset="1.0" stop-color="#203e13"></stop></radialGradient></defs><path fill="url(#p.24)" d="m224.0 208.0l0 0c-4.418274 0 -8.0 -3.581726 -8.0 -8.0l0 0c0 -2.1217346 0.84284973 -4.1565704 2.3431396 -5.6568604c1.5002899 -1.5002899 3.5351257 -2.3431396 5.6568604 -2.3431396l0 0c4.418274 0 8.0 3.581726 8.0 8.0l0 0c0 4.418274 -3.581726 8.0 -8.0 8.0z" fill-rule="evenodd"></path><path stroke="#000000" stroke-width="1.0" stroke-linejoin="round" stroke-linecap="butt" d="m224.0 208.0l0 0c-4.418274 0 -8.0 -3.581726 -8.0 -8.0l0 0c0 -2.1217346 0.84284973 -4.1565704 2.3431396 -5.6568604c1.5002899 -1.5002899 3.5351257 -2.3431396 5.6568604 -2.3431396l0 0c4.418274 0 8.0 3.581726 8.0 8.0l0 0c0 4.418274 -3.581726 8.0 -8.0 8.0z" fill-rule="evenodd"></path><defs><linearGradient id="p.25" gradientUnits="userSpaceOnUse" gradientTransform="matrix(-7.483328474201671 0.0 0.0 -7.483328474201671 0.0 0.0)" spreadMethod="pad" x1="-32.07129031251076" y1="-24.588016640833445" x2="-32.07131497362843" y2="-17.104688166672407"><stop offset="0.0" stop-color="#ffffff"></stop><stop offset="1.0" stop-color="#b3b3b3"></stop></linearGradient></defs><path fill="url(#p.25)" d="m240.0 184.0l-56.0 0l0 -56.0l56.0 0z" fill-rule="evenodd"></path><path stroke="#000000" stroke-width="1.0" stroke-linejoin="round" stroke-linecap="butt" d="m240.0 184.0l-56.0 0l0 -56.0l56.0 0z" fill-rule="evenodd"></path><defs><radialGradient id="p.26" gradientUnits="userSpaceOnUse" gradientTransform="matrix(-3.3635856653478005 0.0 0.0 -3.3635856653478005 0.0 0.0)" spreadMethod="pad" cx="-66.5955983543645" cy="-42.81145608494861" fx="-66.5955983543645" fy="-42.81145608494861" r="3.3635857105255127"><stop offset="0.0" stop-color="#db0000"></stop><stop offset="1.0" stop-color="#540303"></stop></radialGradient></defs><path fill="url(#p.26)" d="m232.0 144.0l0 0c0 4.418274 -3.581726 8.0 -8.0 8.0l0 0c-2.1217346 0 -4.1565704 -0.84284973 -5.6568604 -2.3431396c-1.5002899 -1.5002899 -2.3431396 -3.5351257 -2.3431396 -5.6568604l0 0c0 -4.418274 3.581726 -8.0 8.0 -8.0l0 0c4.418274 0 8.0 3.581726 8.0 8.0z" fill-rule="evenodd"></path><path stroke="#000000" stroke-width="1.0" stroke-linejoin="round" stroke-linecap="butt" d="m232.0 144.0l0 0c0 4.418274 -3.581726 8.0 -8.0 8.0l0 0c-2.1217346 0 -4.1565704 -0.84284973 -5.6568604 -2.3431396c-1.5002899 -1.5002899 -2.3431396 -3.5351257 -2.3431396 -5.6568604l0 0c0 -4.418274 3.581726 -8.0 8.0 -8.0l0 0c4.418274 0 8.0 3.581726 8.0 8.0z" fill-rule="evenodd"></path><defs><radialGradient id="p.27" gradientUnits="userSpaceOnUse" gradientTransform="matrix(-3.3635856653478005 0.0 0.0 -3.3635856653478005 0.0 0.0)" spreadMethod="pad" cx="-59.46035567353974" cy="-49.94669876577338" fx="-59.46035567353974" fy="-49.94669876577338" r="3.3635857105255127"><stop offset="0.0" stop-color="#3177ee"></stop><stop offset="1.0" stop-color="#113d8a"></stop></radialGradient></defs><path fill="url(#p.27)" d="m208.0 168.0l0 0c0 4.418274 -3.581726 8.0 -8.0 8.0l0 0c-2.1217346 0 -4.1565704 -0.84284973 -5.6568604 -2.3431396c-1.5002899 -1.5002899 -2.3431396 -3.5351257 -2.3431396 -5.6568604l0 0c0 -4.418274 3.581726 -8.0 8.0 -8.0l0 0c4.418274 0 8.0 3.581726 8.0 8.0z" fill-rule="evenodd"></path><path stroke="#000000" stroke-width="1.0" stroke-linejoin="round" stroke-linecap="butt" d="m208.0 168.0l0 0c0 4.418274 -3.581726 8.0 -8.0 8.0l0 0c-2.1217346 0 -4.1565704 -0.84284973 -5.6568604 -2.3431396c-1.5002899 -1.5002899 -2.3431396 -3.5351257 -2.3431396 -5.6568604l0 0c0 -4.418274 3.581726 -8.0 8.0 -8.0l0 0c4.418274 0 8.0 3.581726 8.0 8.0z" fill-rule="evenodd"></path><defs><radialGradient id="p.28" gradientUnits="userSpaceOnUse" gradientTransform="matrix(-3.3635856653478005 0.0 0.0 -3.3635856653478005 0.0 0.0)" spreadMethod="pad" cx="-59.46035567353974" cy="-42.81145608494861" fx="-59.46035567353974" fy="-42.81145608494861" r="3.3635857105255127"><stop offset="0.0" stop-color="#51ab2a"></stop><stop offset="1.0" stop-color="#203e13"></stop></radialGradient></defs><path fill="url(#p.28)" d="m208.0 144.0l0 0c0 4.418274 -3.581726 8.0 -8.0 8.0l0 0c-2.1217346 0 -4.1565704 -0.84284973 -5.6568604 -2.3431396c-1.5002899 -1.5002899 -2.3431396 -3.5351257 -2.3431396 -5.6568604l0 0c0 -4.418274 3.581726 -8.0 8.0 -8.0l0 0c4.418274 0 8.0 3.581726 8.0 8.0z" fill-rule="evenodd"></path><path stroke="#000000" stroke-width="1.0" stroke-linejoin="round" stroke-linecap="butt" d="m208.0 144.0l0 0c0 4.418274 -3.581726 8.0 -8.0 8.0l0 0c-2.1217346 0 -4.1565704 -0.84284973 -5.6568604 -2.3431396c-1.5002899 -1.5002899 -2.3431396 -3.5351257 -2.3431396 -5.6568604l0 0c0 -4.418274 3.581726 -8.0 8.0 -8.0l0 0c4.418274 0 8.0 3.581726 8.0 8.0z" fill-rule="evenodd"></path><defs><linearGradient id="p.29" gradientUnits="userSpaceOnUse" gradientTransform="matrix(0.0 7.4833271041442195 -7.4833271041442195 0.0 0.0 0.0)" spreadMethod="pad" x1="17.1046912982214" y1="-24.588018402315452" x2="17.104663896974525" y2="-17.1046912982214"><stop offset="0.0" stop-color="#ffffff"></stop><stop offset="1.0" stop-color="#b3b3b3"></stop></linearGradient></defs><path fill="url(#p.29)" d="m184.0 128.0l0 56.0l-56.0 0l0 -56.0z" fill-rule="evenodd"></path><path stroke="#000000" stroke-width="1.0" stroke-linejoin="round" stroke-linecap="butt" d="m184.0 128.0l0 56.0l-56.0 0l0 -56.0z" fill-rule="evenodd"></path><defs><radialGradient id="p.30" gradientUnits="userSpaceOnUse" gradientTransform="matrix(0.0 3.3635856653478005 -3.3635856653478005 0.0 0.0 0.0)" spreadMethod="pad" cx="42.81145608494861" cy="-42.81145608494861" fx="42.81145608494861" fy="-42.81145608494861" r="3.3635857105255127"><stop offset="0.0" stop-color="#db0000"></stop><stop offset="1.0" stop-color="#540303"></stop></radialGradient></defs><path fill="url(#p.30)" d="m144.0 136.0l0 0c4.418274 0 8.0 3.581726 8.0 8.0l0 0c0 2.1217346 -0.84284973 4.1565704 -2.3431396 5.6568604c-1.5002899 1.5002899 -3.5351257 2.3431396 -5.6568604 2.3431396l0 0c-4.418274 0 -8.0 -3.581726 -8.0 -8.0l0 0c0 -4.418274 3.581726 -8.0 8.0 -8.0z" fill-rule="evenodd"></path><path stroke="#000000" stroke-width="1.0" stroke-linejoin="round" stroke-linecap="butt" d="m144.0 136.0l0 0c4.418274 0 8.0 3.581726 8.0 8.0l0 0c0 2.1217346 -0.84284973 4.1565704 -2.3431396 5.6568604c-1.5002899 1.5002899 -3.5351257 2.3431396 -5.6568604 2.3431396l0 0c-4.418274 0 -8.0 -3.581726 -8.0 -8.0l0 0c0 -4.418274 3.581726 -8.0 8.0 -8.0z" fill-rule="evenodd"></path><defs><radialGradient id="p.31" gradientUnits="userSpaceOnUse" gradientTransform="matrix(0.0 3.3635856653478005 -3.3635856653478005 0.0 0.0 0.0)" spreadMethod="pad" cx="49.94669876577338" cy="-49.94669876577338" fx="49.94669876577338" fy="-49.94669876577338" r="3.3635857105255127"><stop offset="0.0" stop-color="#3177ee"></stop><stop offset="1.0" stop-color="#113d8a"></stop></radialGradient></defs><path fill="url(#p.31)" d="m168.0 160.0l0 0c4.418274 0 8.0 3.581726 8.0 8.0l0 0c0 2.1217346 -0.84284973 4.1565704 -2.3431396 5.6568604c-1.5002899 1.5002899 -3.5351257 2.3431396 -5.6568604 2.3431396l0 0c-4.418274 0 -8.0 -3.581726 -8.0 -8.0l0 0c0 -4.418274 3.581726 -8.0 8.0 -8.0z" fill-rule="evenodd"></path><path stroke="#000000" stroke-width="1.0" stroke-linejoin="round" stroke-linecap="butt" d="m168.0 160.0l0 0c4.418274 0 8.0 3.581726 8.0 8.0l0 0c0 2.1217346 -0.84284973 4.1565704 -2.3431396 5.6568604c-1.5002899 1.5002899 -3.5351257 2.3431396 -5.6568604 2.3431396l0 0c-4.418274 0 -8.0 -3.581726 -8.0 -8.0l0 0c0 -4.418274 3.581726 -8.0 8.0 -8.0z" fill-rule="evenodd"></path><defs><radialGradient id="p.32" gradientUnits="userSpaceOnUse" gradientTransform="matrix(0.0 3.3635856653478005 -3.3635856653478005 0.0 0.0 0.0)" spreadMethod="pad" cx="49.94669876577338" cy="-42.81145608494861" fx="49.94669876577338" fy="-42.81145608494861" r="3.3635857105255127"><stop offset="0.0" stop-color="#51ab2a"></stop><stop offset="1.0" stop-color="#203e13"></stop></radialGradient></defs><path fill="url(#p.32)" d="m144.0 160.0l0 0c4.418274 0 8.0 3.581726 8.0 8.0l0 0c0 2.1217346 -0.84284973 4.1565704 -2.3431396 5.6568604c-1.5002899 1.5002899 -3.5351257 2.3431396 -5.6568604 2.3431396l0 0c-4.418274 0 -8.0 -3.581726 -8.0 -8.0l0 0c0 -4.418274 3.581726 -8.0 8.0 -8.0z" fill-rule="evenodd"></path><path stroke="#000000" stroke-width="1.0" stroke-linejoin="round" stroke-linecap="butt" d="m144.0 160.0l0 0c4.418274 0 8.0 3.581726 8.0 8.0l0 0c0 2.1217346 -0.84284973 4.1565704 -2.3431396 5.6568604c-1.5002899 1.5002899 -3.5351257 2.3431396 -5.6568604 2.3431396l0 0c-4.418274 0 -8.0 -3.581726 -8.0 -8.0l0 0c0 -4.418274 3.581726 -8.0 8.0 -8.0z" fill-rule="evenodd"></path><defs><linearGradient id="p.33" gradientUnits="userSpaceOnUse" gradientTransform="matrix(7.483328474206125 0.0 0.0 7.483328474206125 0.0 0.0)" spreadMethod="pad" x1="2.138086020832778" y1="9.621359692505642" x2="2.13805879084868" y2="17.104688166662225"><stop offset="0.0" stop-color="#ffffff"></stop><stop offset="1.0" stop-color="#b3b3b3"></stop></linearGradient></defs><path fill="url(#p.33)" d="m16.0 72.0l56.0 0l0 56.0l-56.0 0z" fill-rule="evenodd"></path><path stroke="#000000" stroke-width="1.0" stroke-linejoin="round" stroke-linecap="butt" d="m16.0 72.0l56.0 0l0 56.0l-56.0 0z" fill-rule="evenodd"></path><defs><radialGradient id="p.34" gradientUnits="userSpaceOnUse" gradientTransform="matrix(3.3635856653478005 0.0 0.0 3.3635856653478005 0.0 0.0)" spreadMethod="pad" cx="9.513656907766357" cy="33.29779917718225" fx="9.513656907766357" fy="33.29779917718225" r="3.3635857105255127"><stop offset="0.0" stop-color="#db0000"></stop><stop offset="1.0" stop-color="#540303"></stop></radialGradient></defs><path fill="url(#p.34)" d="m24.0 112.0l0 0c0 -4.4182816 3.5817223 -8.0 8.0 -8.0l0 0c2.1217308 0 4.156563 0.84285736 5.6568527 2.3431473c1.5002937 1.5002899 2.3431473 3.535118 2.3431473 5.6568527l0 0c0 4.4182816 -3.5817223 8.0 -8.0 8.0l0 0c-4.4182777 0 -8.0 -3.5817184 -8.0 -8.0z" fill-rule="evenodd"></path><path stroke="#000000" stroke-width="1.0" stroke-linejoin="round" stroke-linecap="butt" d="m24.0 112.0l0 0c0 -4.4182816 3.5817223 -8.0 8.0 -8.0l0 0c2.1217308 0 4.156563 0.84285736 5.6568527 2.3431473c1.5002937 1.5002899 2.3431473 3.535118 2.3431473 5.6568527l0 0c0 4.4182816 -3.5817223 8.0 -8.0 8.0l0 0c-4.4182777 0 -8.0 -3.5817184 -8.0 -8.0z" fill-rule="evenodd"></path><defs><radialGradient id="p.35" gradientUnits="userSpaceOnUse" gradientTransform="matrix(3.3635856653478005 0.0 0.0 3.3635856653478005 0.0 0.0)" spreadMethod="pad" cx="16.648899588591124" cy="26.162556496357485" fx="16.648899588591124" fy="26.162556496357485" r="3.3635857105255127"><stop offset="0.0" stop-color="#3177ee"></stop><stop offset="1.0" stop-color="#113d8a"></stop></radialGradient></defs><path fill="url(#p.35)" d="m48.0 88.0l0 0c0 -4.4182816 3.5817223 -8.0 8.0 -8.0l0 0c2.1217308 0 4.156563 0.84285736 5.6568527 2.3431473c1.5002937 1.5002899 2.3431473 3.535118 2.3431473 5.6568527l0 0c0 4.4182816 -3.5817223 8.0 -8.0 8.0l0 0c-4.4182777 0 -8.0 -3.5817184 -8.0 -8.0z" fill-rule="evenodd"></path><path stroke="#000000" stroke-width="1.0" stroke-linejoin="round" stroke-linecap="butt" d="m48.0 88.0l0 0c0 -4.4182816 3.5817223 -8.0 8.0 -8.0l0 0c2.1217308 0 4.156563 0.84285736 5.6568527 2.3431473c1.5002937 1.5002899 2.3431473 3.535118 2.3431473 5.6568527l0 0c0 4.4182816 -3.5817223 8.0 -8.0 8.0l0 0c-4.4182777 0 -8.0 -3.5817184 -8.0 -8.0z" fill-rule="evenodd"></path><defs><radialGradient id="p.36" gradientUnits="userSpaceOnUse" gradientTransform="matrix(3.3635856653478005 0.0 0.0 3.3635856653478005 0.0 0.0)" spreadMethod="pad" cx="16.648899588591124" cy="33.29779917718225" fx="16.648899588591124" fy="33.29779917718225" r="3.3635857105255127"><stop offset="0.0" stop-color="#51ab2a"></stop><stop offset="1.0" stop-color="#203e13"></stop></radialGradient></defs><path fill="url(#p.36)" d="m48.0 112.0l0 0c0 -4.4182816 3.5817223 -8.0 8.0 -8.0l0 0c2.1217308 0 4.156563 0.84285736 5.6568527 2.3431473c1.5002937 1.5002899 2.3431473 3.535118 2.3431473 5.6568527l0 0c0 4.4182816 -3.5817223 8.0 -8.0 8.0l0 0c-4.4182777 0 -8.0 -3.5817184 -8.0 -8.0z" fill-rule="evenodd"></path><path stroke="#000000" stroke-width="1.0" stroke-linejoin="round" stroke-linecap="butt" d="m48.0 112.0l0 0c0 -4.4182816 3.5817223 -8.0 8.0 -8.0l0 0c2.1217308 0 4.156563 0.84285736 5.6568527 2.3431473c1.5002937 1.5002899 2.3431473 3.535118 2.3431473 5.6568527l0 0c0 4.4182816 -3.5817223 8.0 -8.0 8.0l0 0c-4.4182777 0 -8.0 -3.5817184 -8.0 -8.0z" fill-rule="evenodd"></path><defs><linearGradient id="p.37" gradientUnits="userSpaceOnUse" gradientTransform="matrix(0.0 -7.483328131690906 7.483328131690906 0.0 0.0 0.0)" spreadMethod="pad" x1="-17.104688949551324" y1="9.621360817910583" x2="-17.104716350794437" y2="17.104688949551324"><stop offset="0.0" stop-color="#ffffff"></stop><stop offset="1.0" stop-color="#b3b3b3"></stop></linearGradient></defs><path fill="url(#p.37)" d="m72.0 128.0l0 -56.0l56.0 0l0 56.0z" fill-rule="evenodd"></path><path stroke="#000000" stroke-width="1.0" stroke-linejoin="round" stroke-linecap="butt" d="m72.0 128.0l0 -56.0l56.0 0l0 56.0z" fill-rule="evenodd"></path><defs><radialGradient id="p.38" gradientUnits="userSpaceOnUse" gradientTransform="matrix(0.0 -3.3635856653478005 3.3635856653478005 0.0 0.0 0.0)" spreadMethod="pad" cx="-33.29779917718225" cy="33.29779917718225" fx="-33.29779917718225" fy="33.29779917718225" r="3.3635857105255127"><stop offset="0.0" stop-color="#db0000"></stop><stop offset="1.0" stop-color="#540303"></stop></radialGradient></defs><path fill="url(#p.38)" d="m112.0 120.0l0 0c-4.4182816 0 -8.0 -3.5817184 -8.0 -8.0l0 0c0 -2.1217346 0.84285736 -4.156563 2.3431473 -5.6568527c1.5002899 -1.5002899 3.535118 -2.3431473 5.6568527 -2.3431473l0 0c4.4182816 0 8.0 3.5817184 8.0 8.0l0 0c0 4.4182816 -3.5817184 8.0 -8.0 8.0z" fill-rule="evenodd"></path><path stroke="#000000" stroke-width="1.0" stroke-linejoin="round" stroke-linecap="butt" d="m112.0 120.0l0 0c-4.4182816 0 -8.0 -3.5817184 -8.0 -8.0l0 0c0 -2.1217346 0.84285736 -4.156563 2.3431473 -5.6568527c1.5002899 -1.5002899 3.535118 -2.3431473 5.6568527 -2.3431473l0 0c4.4182816 0 8.0 3.5817184 8.0 8.0l0 0c0 4.4182816 -3.5817184 8.0 -8.0 8.0z" fill-rule="evenodd"></path><defs><radialGradient id="p.39" gradientUnits="userSpaceOnUse" gradientTransform="matrix(0.0 -3.3635856653478005 3.3635856653478005 0.0 0.0 0.0)" spreadMethod="pad" cx="-26.162556496357485" cy="26.162556496357485" fx="-26.162556496357485" fy="26.162556496357485" r="3.3635857105255127"><stop offset="0.0" stop-color="#3177ee"></stop><stop offset="1.0" stop-color="#113d8a"></stop></radialGradient></defs><path fill="url(#p.39)" d="m88.0 96.0l0 0c-4.4182816 0 -8.0 -3.5817184 -8.0 -8.0l0 0c0 -2.1217346 0.84285736 -4.156563 2.3431473 -5.6568527c1.5002899 -1.5002899 3.535118 -2.3431473 5.6568527 -2.3431473l0 0c4.4182816 0 8.0 3.5817184 8.0 8.0l0 0c0 4.4182816 -3.5817184 8.0 -8.0 8.0z" fill-rule="evenodd"></path><path stroke="#000000" stroke-width="1.0" stroke-linejoin="round" stroke-linecap="butt" d="m88.0 96.0l0 0c-4.4182816 0 -8.0 -3.5817184 -8.0 -8.0l0 0c0 -2.1217346 0.84285736 -4.156563 2.3431473 -5.6568527c1.5002899 -1.5002899 3.535118 -2.3431473 5.6568527 -2.3431473l0 0c4.4182816 0 8.0 3.5817184 8.0 8.0l0 0c0 4.4182816 -3.5817184 8.0 -8.0 8.0z" fill-rule="evenodd"></path><defs><radialGradient id="p.40" gradientUnits="userSpaceOnUse" gradientTransform="matrix(0.0 -3.3635856653478005 3.3635856653478005 0.0 0.0 0.0)" spreadMethod="pad" cx="-26.162556496357485" cy="33.29779917718225" fx="-26.162556496357485" fy="33.29779917718225" r="3.3635857105255127"><stop offset="0.0" stop-color="#51ab2a"></stop><stop offset="1.0" stop-color="#203e13"></stop></radialGradient></defs><path fill="url(#p.40)" d="m112.0 96.0l0 0c-4.4182816 0 -8.0 -3.5817184 -8.0 -8.0l0 0c0 -2.1217346 0.84285736 -4.156563 2.3431473 -5.6568527c1.5002899 -1.5002899 3.535118 -2.3431473 5.6568527 -2.3431473l0 0c4.4182816 0 8.0 3.5817184 8.0 8.0l0 0c0 4.4182816 -3.5817184 8.0 -8.0 8.0z" fill-rule="evenodd"></path><path stroke="#000000" stroke-width="1.0" stroke-linejoin="round" stroke-linecap="butt" d="m112.0 96.0l0 0c-4.4182816 0 -8.0 -3.5817184 -8.0 -8.0l0 0c0 -2.1217346 0.84285736 -4.156563 2.3431473 -5.6568527c1.5002899 -1.5002899 3.535118 -2.3431473 5.6568527 -2.3431473l0 0c4.4182816 0 8.0 3.5817184 8.0 8.0l0 0c0 4.4182816 -3.5817184 8.0 -8.0 8.0z" fill-rule="evenodd"></path><defs><linearGradient id="p.41" gradientUnits="userSpaceOnUse" gradientTransform="matrix(-7.483328131688461 0.0 0.0 -7.483328131688461 0.0 0.0)" spreadMethod="pad" x1="-17.104688949556913" y1="-9.6214142503378" x2="-17.10471498073787" y2="-2.138086118694614"><stop offset="0.0" stop-color="#ffffff"></stop><stop offset="1.0" stop-color="#b3b3b3"></stop></linearGradient></defs><path fill="url(#p.41)" d="m128.0 72.0l-56.0 0l0 -56.0l56.0 0z" fill-rule="evenodd"></path><path stroke="#000000" stroke-width="1.0" stroke-linejoin="round" stroke-linecap="butt" d="m128.0 72.0l-56.0 0l0 -56.0l56.0 0z" fill-rule="evenodd"></path><defs><radialGradient id="p.42" gradientUnits="userSpaceOnUse" gradientTransform="matrix(-3.3635856653478005 0.0 0.0 -3.3635856653478005 0.0 0.0)" spreadMethod="pad" cx="-33.29779917718225" cy="-9.513656907766357" fx="-33.29779917718225" fy="-9.513656907766357" r="3.3635857105255127"><stop offset="0.0" stop-color="#db0000"></stop><stop offset="1.0" stop-color="#540303"></stop></radialGradient></defs><path fill="url(#p.42)" d="m120.0 32.0l0 0c0 4.4182777 -3.5817184 8.0 -8.0 8.0l0 0c-2.1217346 0 -4.156563 -0.84285355 -5.6568527 -2.3431473c-1.5002899 -1.5002899 -2.3431473 -3.535122 -2.3431473 -5.6568527l0 0c0 -4.4182777 3.5817184 -8.0 8.0 -8.0l0 0c4.4182816 0 8.0 3.5817223 8.0 8.0z" fill-rule="evenodd"></path><path stroke="#000000" stroke-width="1.0" stroke-linejoin="round" stroke-linecap="butt" d="m120.0 32.0l0 0c0 4.4182777 -3.5817184 8.0 -8.0 8.0l0 0c-2.1217346 0 -4.156563 -0.84285355 -5.6568527 -2.3431473c-1.5002899 -1.5002899 -2.3431473 -3.535122 -2.3431473 -5.6568527l0 0c0 -4.4182777 3.5817184 -8.0 8.0 -8.0l0 0c4.4182816 0 8.0 3.5817223 8.0 8.0z" fill-rule="evenodd"></path><defs><radialGradient id="p.43" gradientUnits="userSpaceOnUse" gradientTransform="matrix(-3.3635856653478005 0.0 0.0 -3.3635856653478005 0.0 0.0)" spreadMethod="pad" cx="-26.162556496357485" cy="-16.648899588591124" fx="-26.162556496357485" fy="-16.648899588591124" r="3.3635857105255127"><stop offset="0.0" stop-color="#3177ee"></stop><stop offset="1.0" stop-color="#113d8a"></stop></radialGradient></defs><path fill="url(#p.43)" d="m96.0 56.0l0 0c0 4.4182777 -3.5817184 8.0 -8.0 8.0l0 0c-2.1217346 0 -4.156563 -0.84285355 -5.6568527 -2.3431473c-1.5002899 -1.5002899 -2.3431473 -3.535122 -2.3431473 -5.6568527l0 0c0 -4.4182777 3.5817184 -8.0 8.0 -8.0l0 0c4.4182816 0 8.0 3.5817223 8.0 8.0z" fill-rule="evenodd"></path><path stroke="#000000" stroke-width="1.0" stroke-linejoin="round" stroke-linecap="butt" d="m96.0 56.0l0 0c0 4.4182777 -3.5817184 8.0 -8.0 8.0l0 0c-2.1217346 0 -4.156563 -0.84285355 -5.6568527 -2.3431473c-1.5002899 -1.5002899 -2.3431473 -3.535122 -2.3431473 -5.6568527l0 0c0 -4.4182777 3.5817184 -8.0 8.0 -8.0l0 0c4.4182816 0 8.0 3.5817223 8.0 8.0z" fill-rule="evenodd"></path><defs><radialGradient id="p.44" gradientUnits="userSpaceOnUse" gradientTransform="matrix(-3.3635856653478005 0.0 0.0 -3.3635856653478005 0.0 0.0)" spreadMethod="pad" cx="-26.162556496357485" cy="-9.513656907766357" fx="-26.162556496357485" fy="-9.513656907766357" r="3.3635857105255127"><stop offset="0.0" stop-color="#51ab2a"></stop><stop offset="1.0" stop-color="#203e13"></stop></radialGradient></defs><path fill="url(#p.44)" d="m96.0 32.0l0 0c0 4.4182777 -3.5817184 8.0 -8.0 8.0l0 0c-2.1217346 0 -4.156563 -0.84285355 -5.6568527 -2.3431473c-1.5002899 -1.5002899 -2.3431473 -3.535122 -2.3431473 -5.6568527l0 0c0 -4.4182777 3.5817184 -8.0 8.0 -8.0l0 0c4.4182816 0 8.0 3.5817223 8.0 8.0z" fill-rule="evenodd"></path><path stroke="#000000" stroke-width="1.0" stroke-linejoin="round" stroke-linecap="butt" d="m96.0 32.0l0 0c0 4.4182777 -3.5817184 8.0 -8.0 8.0l0 0c-2.1217346 0 -4.156563 -0.84285355 -5.6568527 -2.3431473c-1.5002899 -1.5002899 -2.3431473 -3.535122 -2.3431473 -5.6568527l0 0c0 -4.4182777 3.5817184 -8.0 8.0 -8.0l0 0c4.4182816 0 8.0 3.5817223 8.0 8.0z" fill-rule="evenodd"></path><defs><linearGradient id="p.45" gradientUnits="userSpaceOnUse" gradientTransform="matrix(0.0 7.483328474205815 -7.483328474205815 0.0 0.0 0.0)" spreadMethod="pad" x1="2.138086020832867" y1="-9.62141449498976" x2="2.1380589621065305" y2="-2.138086020832867"><stop offset="0.0" stop-color="#ffffff"></stop><stop offset="1.0" stop-color="#b3b3b3"></stop></linearGradient></defs><path fill="url(#p.45)" d="m72.0 16.0l0 56.0l-56.0 0l0 -56.0z" fill-rule="evenodd"></path><path stroke="#000000" stroke-width="1.0" stroke-linejoin="round" stroke-linecap="butt" d="m72.0 16.0l0 56.0l-56.0 0l0 -56.0z" fill-rule="evenodd"></path><defs><radialGradient id="p.46" gradientUnits="userSpaceOnUse" gradientTransform="matrix(0.0 3.3635856653478005 -3.3635856653478005 0.0 0.0 0.0)" spreadMethod="pad" cx="9.513656907766357" cy="-9.513656907766357" fx="9.513656907766357" fy="-9.513656907766357" r="3.3635857105255127"><stop offset="0.0" stop-color="#db0000"></stop><stop offset="1.0" stop-color="#540303"></stop></radialGradient></defs><path fill="url(#p.46)" d="m32.0 24.0l0 0c4.4182777 0 8.0 3.5817223 8.0 8.0l0 0c0 2.1217308 -0.84285355 4.156563 -2.3431473 5.6568527c-1.5002899 1.5002937 -3.535122 2.3431473 -5.6568527 2.3431473l0 0c-4.4182777 0 -8.0 -3.5817223 -8.0 -8.0l0 0c0 -4.4182777 3.5817223 -8.0 8.0 -8.0z" fill-rule="evenodd"></path><path stroke="#000000" stroke-width="1.0" stroke-linejoin="round" stroke-linecap="butt" d="m32.0 24.0l0 0c4.4182777 0 8.0 3.5817223 8.0 8.0l0 0c0 2.1217308 -0.84285355 4.156563 -2.3431473 5.6568527c-1.5002899 1.5002937 -3.535122 2.3431473 -5.6568527 2.3431473l0 0c-4.4182777 0 -8.0 -3.5817223 -8.0 -8.0l0 0c0 -4.4182777 3.5817223 -8.0 8.0 -8.0z" fill-rule="evenodd"></path><defs><radialGradient id="p.47" gradientUnits="userSpaceOnUse" gradientTransform="matrix(0.0 3.3635856653478005 -3.3635856653478005 0.0 0.0 0.0)" spreadMethod="pad" cx="16.648899588591124" cy="-16.648899588591124" fx="16.648899588591124" fy="-16.648899588591124" r="3.3635857105255127"><stop offset="0.0" stop-color="#3177ee"></stop><stop offset="1.0" stop-color="#113d8a"></stop></radialGradient></defs><path fill="url(#p.47)" d="m56.0 48.0l0 0c4.4182777 0 8.0 3.5817223 8.0 8.0l0 0c0 2.1217308 -0.84285355 4.156563 -2.3431473 5.6568527c-1.5002899 1.5002937 -3.535122 2.3431473 -5.6568527 2.3431473l0 0c-4.4182777 0 -8.0 -3.5817223 -8.0 -8.0l0 0c0 -4.4182777 3.5817223 -8.0 8.0 -8.0z" fill-rule="evenodd"></path><path stroke="#000000" stroke-width="1.0" stroke-linejoin="round" stroke-linecap="butt" d="m56.0 48.0l0 0c4.4182777 0 8.0 3.5817223 8.0 8.0l0 0c0 2.1217308 -0.84285355 4.156563 -2.3431473 5.6568527c-1.5002899 1.5002937 -3.535122 2.3431473 -5.6568527 2.3431473l0 0c-4.4182777 0 -8.0 -3.5817223 -8.0 -8.0l0 0c0 -4.4182777 3.5817223 -8.0 8.0 -8.0z" fill-rule="evenodd"></path><defs><radialGradient id="p.48" gradientUnits="userSpaceOnUse" gradientTransform="matrix(0.0 3.3635856653478005 -3.3635856653478005 0.0 0.0 0.0)" spreadMethod="pad" cx="16.648899588591124" cy="-9.513656907766357" fx="16.648899588591124" fy="-9.513656907766357" r="3.3635857105255127"><stop offset="0.0" stop-color="#51ab2a"></stop><stop offset="1.0" stop-color="#203e13"></stop></radialGradient></defs><path fill="url(#p.48)" d="m32.0 48.0l0 0c4.4182777 0 8.0 3.5817223 8.0 8.0l0 0c0 2.1217308 -0.84285355 4.156563 -2.3431473 5.6568527c-1.5002899 1.5002937 -3.535122 2.3431473 -5.6568527 2.3431473l0 0c-4.4182777 0 -8.0 -3.5817223 -8.0 -8.0l0 0c0 -4.4182777 3.5817223 -8.0 8.0 -8.0z" fill-rule="evenodd"></path><path stroke="#000000" stroke-width="1.0" stroke-linejoin="round" stroke-linecap="butt" d="m32.0 48.0l0 0c4.4182777 0 8.0 3.5817223 8.0 8.0l0 0c0 2.1217308 -0.84285355 4.156563 -2.3431473 5.6568527c-1.5002899 1.5002937 -3.535122 2.3431473 -5.6568527 2.3431473l0 0c-4.4182777 0 -8.0 -3.5817223 -8.0 -8.0l0 0c0 -4.4182777 3.5817223 -8.0 8.0 -8.0z" fill-rule="evenodd"></path><defs><linearGradient id="p.49" gradientUnits="userSpaceOnUse" gradientTransform="matrix(7.483328474206438 0.0 0.0 7.483328474206438 0.0 0.0)" spreadMethod="pad" x1="17.10468816666151" y1="9.62135969250524" x2="17.104660765419652" y2="17.10468816666151"><stop offset="0.0" stop-color="#ffffff"></stop><stop offset="1.0" stop-color="#b3b3b3"></stop></linearGradient></defs><path fill="url(#p.49)" d="m128.0 72.0l56.0 0l0 56.0l-56.0 0z" fill-rule="evenodd"></path><path stroke="#000000" stroke-width="1.0" stroke-linejoin="round" stroke-linecap="butt" d="m128.0 72.0l56.0 0l0 56.0l-56.0 0z" fill-rule="evenodd"></path><defs><radialGradient id="p.50" gradientUnits="userSpaceOnUse" gradientTransform="matrix(3.3635856653478005 0.0 0.0 3.3635856653478005 0.0 0.0)" spreadMethod="pad" cx="42.81145608494861" cy="33.29779917718225" fx="42.81145608494861" fy="33.29779917718225" r="3.3635857105255127"><stop offset="0.0" stop-color="#db0000"></stop><stop offset="1.0" stop-color="#540303"></stop></radialGradient></defs><path fill="url(#p.50)" d="m136.0 112.0l0 0c0 -4.4182816 3.581726 -8.0 8.0 -8.0l0 0c2.1217346 0 4.1565704 0.84285736 5.6568604 2.3431473c1.5002899 1.5002899 2.3431396 3.535118 2.3431396 5.6568527l0 0c0 4.4182816 -3.581726 8.0 -8.0 8.0l0 0c-4.418274 0 -8.0 -3.5817184 -8.0 -8.0z" fill-rule="evenodd"></path><path stroke="#000000" stroke-width="1.0" stroke-linejoin="round" stroke-linecap="butt" d="m136.0 112.0l0 0c0 -4.4182816 3.581726 -8.0 8.0 -8.0l0 0c2.1217346 0 4.1565704 0.84285736 5.6568604 2.3431473c1.5002899 1.5002899 2.3431396 3.535118 2.3431396 5.6568527l0 0c0 4.4182816 -3.581726 8.0 -8.0 8.0l0 0c-4.418274 0 -8.0 -3.5817184 -8.0 -8.0z" fill-rule="evenodd"></path><defs><radialGradient id="p.51" gradientUnits="userSpaceOnUse" gradientTransform="matrix(3.3635856653478005 0.0 0.0 3.3635856653478005 0.0 0.0)" spreadMethod="pad" cx="49.94669876577338" cy="26.162556496357485" fx="49.94669876577338" fy="26.162556496357485" r="3.3635857105255127"><stop offset="0.0" stop-color="#3177ee"></stop><stop offset="1.0" stop-color="#113d8a"></stop></radialGradient></defs><path fill="url(#p.51)" d="m160.0 88.0l0 0c0 -4.4182816 3.581726 -8.0 8.0 -8.0l0 0c2.1217346 0 4.1565704 0.84285736 5.6568604 2.3431473c1.5002899 1.5002899 2.3431396 3.535118 2.3431396 5.6568527l0 0c0 4.4182816 -3.581726 8.0 -8.0 8.0l0 0c-4.418274 0 -8.0 -3.5817184 -8.0 -8.0z" fill-rule="evenodd"></path><path stroke="#000000" stroke-width="1.0" stroke-linejoin="round" stroke-linecap="butt" d="m160.0 88.0l0 0c0 -4.4182816 3.581726 -8.0 8.0 -8.0l0 0c2.1217346 0 4.1565704 0.84285736 5.6568604 2.3431473c1.5002899 1.5002899 2.3431396 3.535118 2.3431396 5.6568527l0 0c0 4.4182816 -3.581726 8.0 -8.0 8.0l0 0c-4.418274 0 -8.0 -3.5817184 -8.0 -8.0z" fill-rule="evenodd"></path><defs><radialGradient id="p.52" gradientUnits="userSpaceOnUse" gradientTransform="matrix(3.3635856653478005 0.0 0.0 3.3635856653478005 0.0 0.0)" spreadMethod="pad" cx="49.94669876577338" cy="33.29779917718225" fx="49.94669876577338" fy="33.29779917718225" r="3.3635857105255127"><stop offset="0.0" stop-color="#51ab2a"></stop><stop offset="1.0" stop-color="#203e13"></stop></radialGradient></defs><path fill="url(#p.52)" d="m160.0 112.0l0 0c0 -4.4182816 3.581726 -8.0 8.0 -8.0l0 0c2.1217346 0 4.1565704 0.84285736 5.6568604 2.3431473c1.5002899 1.5002899 2.3431396 3.535118 2.3431396 5.6568527l0 0c0 4.4182816 -3.581726 8.0 -8.0 8.0l0 0c-4.418274 0 -8.0 -3.5817184 -8.0 -8.0z" fill-rule="evenodd"></path><path stroke="#000000" stroke-width="1.0" stroke-linejoin="round" stroke-linecap="butt" d="m160.0 112.0l0 0c0 -4.4182816 3.581726 -8.0 8.0 -8.0l0 0c2.1217346 0 4.1565704 0.84285736 5.6568604 2.3431473c1.5002899 1.5002899 2.3431396 3.535118 2.3431396 5.6568527l0 0c0 4.4182816 -3.581726 8.0 -8.0 8.0l0 0c-4.418274 0 -8.0 -3.5817184 -8.0 -8.0z" fill-rule="evenodd"></path><defs><linearGradient id="p.53" gradientUnits="userSpaceOnUse" gradientTransform="matrix(0.0 -7.483328474206438 7.483328474206438 0.0 0.0 0.0)" spreadMethod="pad" x1="-17.10468816666151" y1="24.587961838334063" x2="-17.10471556790337" y2="32.07129031249033"><stop offset="0.0" stop-color="#ffffff"></stop><stop offset="1.0" stop-color="#b3b3b3"></stop></linearGradient></defs><path fill="url(#p.53)" d="m184.0 128.0l0 -56.0l56.0 0l0 56.0z" fill-rule="evenodd"></path><path stroke="#000000" stroke-width="1.0" stroke-linejoin="round" stroke-linecap="butt" d="m184.0 128.0l0 -56.0l56.0 0l0 56.0z" fill-rule="evenodd"></path><defs><radialGradient id="p.54" gradientUnits="userSpaceOnUse" gradientTransform="matrix(0.0 -3.3635856653478005 3.3635856653478005 0.0 0.0 0.0)" spreadMethod="pad" cx="-33.29779917718225" cy="66.5955983543645" fx="-33.29779917718225" fy="66.5955983543645" r="3.3635857105255127"><stop offset="0.0" stop-color="#db0000"></stop><stop offset="1.0" stop-color="#540303"></stop></radialGradient></defs><path fill="url(#p.54)" d="m224.0 120.0l0 0c-4.418274 0 -8.0 -3.5817184 -8.0 -8.0l0 0c0 -2.1217346 0.84284973 -4.156563 2.3431396 -5.6568527c1.5002899 -1.5002899 3.5351257 -2.3431473 5.6568604 -2.3431473l0 0c4.418274 0 8.0 3.5817184 8.0 8.0l0 0c0 4.4182816 -3.581726 8.0 -8.0 8.0z" fill-rule="evenodd"></path><path stroke="#000000" stroke-width="1.0" stroke-linejoin="round" stroke-linecap="butt" d="m224.0 120.0l0 0c-4.418274 0 -8.0 -3.5817184 -8.0 -8.0l0 0c0 -2.1217346 0.84284973 -4.156563 2.3431396 -5.6568527c1.5002899 -1.5002899 3.5351257 -2.3431473 5.6568604 -2.3431473l0 0c4.418274 0 8.0 3.5817184 8.0 8.0l0 0c0 4.4182816 -3.581726 8.0 -8.0 8.0z" fill-rule="evenodd"></path><defs><radialGradient id="p.55" gradientUnits="userSpaceOnUse" gradientTransform="matrix(0.0 -3.3635856653478005 3.3635856653478005 0.0 0.0 0.0)" spreadMethod="pad" cx="-26.162556496357485" cy="59.46035567353974" fx="-26.162556496357485" fy="59.46035567353974" r="3.3635857105255127"><stop offset="0.0" stop-color="#3177ee"></stop><stop offset="1.0" stop-color="#113d8a"></stop></radialGradient></defs><path fill="url(#p.55)" d="m200.0 96.0l0 0c-4.418274 0 -8.0 -3.5817184 -8.0 -8.0l0 0c0 -2.1217346 0.84284973 -4.156563 2.3431396 -5.6568527c1.5002899 -1.5002899 3.5351257 -2.3431473 5.6568604 -2.3431473l0 0c4.418274 0 8.0 3.5817184 8.0 8.0l0 0c0 4.4182816 -3.581726 8.0 -8.0 8.0z" fill-rule="evenodd"></path><path stroke="#000000" stroke-width="1.0" stroke-linejoin="round" stroke-linecap="butt" d="m200.0 96.0l0 0c-4.418274 0 -8.0 -3.5817184 -8.0 -8.0l0 0c0 -2.1217346 0.84284973 -4.156563 2.3431396 -5.6568527c1.5002899 -1.5002899 3.5351257 -2.3431473 5.6568604 -2.3431473l0 0c4.418274 0 8.0 3.5817184 8.0 8.0l0 0c0 4.4182816 -3.581726 8.0 -8.0 8.0z" fill-rule="evenodd"></path><defs><radialGradient id="p.56" gradientUnits="userSpaceOnUse" gradientTransform="matrix(0.0 -3.3635856653478005 3.3635856653478005 0.0 0.0 0.0)" spreadMethod="pad" cx="-26.162556496357485" cy="66.5955983543645" fx="-26.162556496357485" fy="66.5955983543645" r="3.3635857105255127"><stop offset="0.0" stop-color="#51ab2a"></stop><stop offset="1.0" stop-color="#203e13"></stop></radialGradient></defs><path fill="url(#p.56)" d="m224.0 96.0l0 0c-4.418274 0 -8.0 -3.5817184 -8.0 -8.0l0 0c0 -2.1217346 0.84284973 -4.156563 2.3431396 -5.6568527c1.5002899 -1.5002899 3.5351257 -2.3431473 5.6568604 -2.3431473l0 0c4.418274 0 8.0 3.5817184 8.0 8.0l0 0c0 4.4182816 -3.581726 8.0 -8.0 8.0z" fill-rule="evenodd"></path><path stroke="#000000" stroke-width="1.0" stroke-linejoin="round" stroke-linecap="butt" d="m224.0 96.0l0 0c-4.418274 0 -8.0 -3.5817184 -8.0 -8.0l0 0c0 -2.1217346 0.84284973 -4.156563 2.3431396 -5.6568527c1.5002899 -1.5002899 3.5351257 -2.3431473 5.6568604 -2.3431473l0 0c4.418274 0 8.0 3.5817184 8.0 8.0l0 0c0 4.4182816 -3.581726 8.0 -8.0 8.0z" fill-rule="evenodd"></path><defs><linearGradient id="p.57" gradientUnits="userSpaceOnUse" gradientTransform="matrix(-7.483328131690906 0.0 0.0 -7.483328131690906 0.0 0.0)" spreadMethod="pad" x1="-32.07129178040873" y1="-9.621414250334656" x2="-32.071319181651845" y2="-2.1380861186939155"><stop offset="0.0" stop-color="#ffffff"></stop><stop offset="1.0" stop-color="#b3b3b3"></stop></linearGradient></defs><path fill="url(#p.57)" d="m240.0 72.0l-56.0 0l0 -56.0l56.0 0z" fill-rule="evenodd"></path><path stroke="#000000" stroke-width="1.0" stroke-linejoin="round" stroke-linecap="butt" d="m240.0 72.0l-56.0 0l0 -56.0l56.0 0z" fill-rule="evenodd"></path><defs><radialGradient id="p.58" gradientUnits="userSpaceOnUse" gradientTransform="matrix(-3.3635856653478005 0.0 0.0 -3.3635856653478005 0.0 0.0)" spreadMethod="pad" cx="-66.5955983543645" cy="-9.513656907766357" fx="-66.5955983543645" fy="-9.513656907766357" r="3.3635857105255127"><stop offset="0.0" stop-color="#db0000"></stop><stop offset="1.0" stop-color="#540303"></stop></radialGradient></defs><path fill="url(#p.58)" d="m232.0 32.0l0 0c0 4.4182777 -3.581726 8.0 -8.0 8.0l0 0c-2.1217346 0 -4.1565704 -0.84285355 -5.6568604 -2.3431473c-1.5002899 -1.5002899 -2.3431396 -3.535122 -2.3431396 -5.6568527l0 0c0 -4.4182777 3.581726 -8.0 8.0 -8.0l0 0c4.418274 0 8.0 3.5817223 8.0 8.0z" fill-rule="evenodd"></path><path stroke="#000000" stroke-width="1.0" stroke-linejoin="round" stroke-linecap="butt" d="m232.0 32.0l0 0c0 4.4182777 -3.581726 8.0 -8.0 8.0l0 0c-2.1217346 0 -4.1565704 -0.84285355 -5.6568604 -2.3431473c-1.5002899 -1.5002899 -2.3431396 -3.535122 -2.3431396 -5.6568527l0 0c0 -4.4182777 3.581726 -8.0 8.0 -8.0l0 0c4.418274 0 8.0 3.5817223 8.0 8.0z" fill-rule="evenodd"></path><defs><radialGradient id="p.59" gradientUnits="userSpaceOnUse" gradientTransform="matrix(-3.3635856653478005 0.0 0.0 -3.3635856653478005 0.0 0.0)" spreadMethod="pad" cx="-59.46035567353974" cy="-16.648899588591124" fx="-59.46035567353974" fy="-16.648899588591124" r="3.3635857105255127"><stop offset="0.0" stop-color="#3177ee"></stop><stop offset="1.0" stop-color="#113d8a"></stop></radialGradient></defs><path fill="url(#p.59)" d="m208.0 56.0l0 0c0 4.4182777 -3.581726 8.0 -8.0 8.0l0 0c-2.1217346 0 -4.1565704 -0.84285355 -5.6568604 -2.3431473c-1.5002899 -1.5002899 -2.3431396 -3.535122 -2.3431396 -5.6568527l0 0c0 -4.4182777 3.581726 -8.0 8.0 -8.0l0 0c4.418274 0 8.0 3.5817223 8.0 8.0z" fill-rule="evenodd"></path><path stroke="#000000" stroke-width="1.0" stroke-linejoin="round" stroke-linecap="butt" d="m208.0 56.0l0 0c0 4.4182777 -3.581726 8.0 -8.0 8.0l0 0c-2.1217346 0 -4.1565704 -0.84285355 -5.6568604 -2.3431473c-1.5002899 -1.5002899 -2.3431396 -3.535122 -2.3431396 -5.6568527l0 0c0 -4.4182777 3.581726 -8.0 8.0 -8.0l0 0c4.418274 0 8.0 3.5817223 8.0 8.0z" fill-rule="evenodd"></path><defs><radialGradient id="p.60" gradientUnits="userSpaceOnUse" gradientTransform="matrix(-3.3635856653478005 0.0 0.0 -3.3635856653478005 0.0 0.0)" spreadMethod="pad" cx="-59.46035567353974" cy="-9.513656907766357" fx="-59.46035567353974" fy="-9.513656907766357" r="3.3635857105255127"><stop offset="0.0" stop-color="#51ab2a"></stop><stop offset="1.0" stop-color="#203e13"></stop></radialGradient></defs><path fill="url(#p.60)" d="m208.0 32.0l0 0c0 4.4182777 -3.581726 8.0 -8.0 8.0l0 0c-2.1217346 0 -4.1565704 -0.84285355 -5.6568604 -2.3431473c-1.5002899 -1.5002899 -2.3431396 -3.535122 -2.3431396 -5.6568527l0 0c0 -4.4182777 3.581726 -8.0 8.0 -8.0l0 0c4.418274 0 8.0 3.5817223 8.0 8.0z" fill-rule="evenodd"></path><path stroke="#000000" stroke-width="1.0" stroke-linejoin="round" stroke-linecap="butt" d="m208.0 32.0l0 0c0 4.4182777 -3.581726 8.0 -8.0 8.0l0 0c-2.1217346 0 -4.1565704 -0.84285355 -5.6568604 -2.3431473c-1.5002899 -1.5002899 -2.3431396 -3.535122 -2.3431396 -5.6568527l0 0c0 -4.4182777 3.581726 -8.0 8.0 -8.0l0 0c4.418274 0 8.0 3.5817223 8.0 8.0z" fill-rule="evenodd"></path><defs><linearGradient id="p.61" gradientUnits="userSpaceOnUse" gradientTransform="matrix(0.0 7.483328474205815 -7.483328474205815 0.0 0.0 0.0)" spreadMethod="pad" x1="2.138086020832867" y1="-24.58801664081983" x2="2.1380589621065305" y2="-17.104688166662935"><stop offset="0.0" stop-color="#ffffff"></stop><stop offset="1.0" stop-color="#b3b3b3"></stop></linearGradient></defs><path fill="url(#p.61)" d="m184.0 16.0l0 56.0l-56.0 0l0 -56.0z" fill-rule="evenodd"></path><path stroke="#000000" stroke-width="1.0" stroke-linejoin="round" stroke-linecap="butt" d="m184.0 16.0l0 56.0l-56.0 0l0 -56.0z" fill-rule="evenodd"></path><defs><radialGradient id="p.62" gradientUnits="userSpaceOnUse" gradientTransform="matrix(0.0 3.3635856653478005 -3.3635856653478005 0.0 0.0 0.0)" spreadMethod="pad" cx="9.513656907766357" cy="-42.81145608494861" fx="9.513656907766357" fy="-42.81145608494861" r="3.3635857105255127"><stop offset="0.0" stop-color="#db0000"></stop><stop offset="1.0" stop-color="#540303"></stop></radialGradient></defs><path fill="url(#p.62)" d="m144.0 24.0l0 0c4.418274 0 8.0 3.5817223 8.0 8.0l0 0c0 2.1217308 -0.84284973 4.156563 -2.3431396 5.6568527c-1.5002899 1.5002937 -3.5351257 2.3431473 -5.6568604 2.3431473l0 0c-4.418274 0 -8.0 -3.5817223 -8.0 -8.0l0 0c0 -4.4182777 3.581726 -8.0 8.0 -8.0z" fill-rule="evenodd"></path><path stroke="#000000" stroke-width="1.0" stroke-linejoin="round" stroke-linecap="butt" d="m144.0 24.0l0 0c4.418274 0 8.0 3.5817223 8.0 8.0l0 0c0 2.1217308 -0.84284973 4.156563 -2.3431396 5.6568527c-1.5002899 1.5002937 -3.5351257 2.3431473 -5.6568604 2.3431473l0 0c-4.418274 0 -8.0 -3.5817223 -8.0 -8.0l0 0c0 -4.4182777 3.581726 -8.0 8.0 -8.0z" fill-rule="evenodd"></path><defs><radialGradient id="p.63" gradientUnits="userSpaceOnUse" gradientTransform="matrix(0.0 3.3635856653478005 -3.3635856653478005 0.0 0.0 0.0)" spreadMethod="pad" cx="16.648899588591124" cy="-49.94669876577338" fx="16.648899588591124" fy="-49.94669876577338" r="3.3635857105255127"><stop offset="0.0" stop-color="#3177ee"></stop><stop offset="1.0" stop-color="#113d8a"></stop></radialGradient></defs><path fill="url(#p.63)" d="m168.0 48.0l0 0c4.418274 0 8.0 3.5817223 8.0 8.0l0 0c0 2.1217308 -0.84284973 4.156563 -2.3431396 5.6568527c-1.5002899 1.5002937 -3.5351257 2.3431473 -5.6568604 2.3431473l0 0c-4.418274 0 -8.0 -3.5817223 -8.0 -8.0l0 0c0 -4.4182777 3.581726 -8.0 8.0 -8.0z" fill-rule="evenodd"></path><path stroke="#000000" stroke-width="1.0" stroke-linejoin="round" stroke-linecap="butt" d="m168.0 48.0l0 0c4.418274 0 8.0 3.5817223 8.0 8.0l0 0c0 2.1217308 -0.84284973 4.156563 -2.3431396 5.6568527c-1.5002899 1.5002937 -3.5351257 2.3431473 -5.6568604 2.3431473l0 0c-4.418274 0 -8.0 -3.5817223 -8.0 -8.0l0 0c0 -4.4182777 3.581726 -8.0 8.0 -8.0z" fill-rule="evenodd"></path><defs><radialGradient id="p.64" gradientUnits="userSpaceOnUse" gradientTransform="matrix(0.0 3.3635856653478005 -3.3635856653478005 0.0 0.0 0.0)" spreadMethod="pad" cx="16.648899588591124" cy="-42.81145608494861" fx="16.648899588591124" fy="-42.81145608494861" r="3.3635857105255127"><stop offset="0.0" stop-color="#51ab2a"></stop><stop offset="1.0" stop-color="#203e13"></stop></radialGradient></defs><path fill="url(#p.64)" d="m144.0 48.0l0 0c4.418274 0 8.0 3.5817223 8.0 8.0l0 0c0 2.1217308 -0.84284973 4.156563 -2.3431396 5.6568527c-1.5002899 1.5002937 -3.5351257 2.3431473 -5.6568604 2.3431473l0 0c-4.418274 0 -8.0 -3.5817223 -8.0 -8.0l0 0c0 -4.4182777 3.581726 -8.0 8.0 -8.0z" fill-rule="evenodd"></path><path stroke="#000000" stroke-width="1.0" stroke-linejoin="round" stroke-linecap="butt" d="m144.0 48.0l0 0c4.418274 0 8.0 3.5817223 8.0 8.0l0 0c0 2.1217308 -0.84284973 4.156563 -2.3431396 5.6568527c-1.5002899 1.5002937 -3.5351257 2.3431473 -5.6568604 2.3431473l0 0c-4.418274 0 -8.0 -3.5817223 -8.0 -8.0l0 0c0 -4.4182777 3.581726 -8.0 8.0 -8.0z" fill-rule="evenodd"></path></g></svg>

