<?xml version="1.0" standalone="yes"?>

<svg version="1.1" viewBox="0.0 0.0 288.15748031496065 257.1994750656168" fill="none" stroke="none" stroke-linecap="square" stroke-miterlimit="10" xmlns="http://www.w3.org/2000/svg" xmlns:xlink="http://www.w3.org/1999/xlink"><clipPath id="p.0"><path d="m0 0l288.15747 0l0 257.19946l-288.15747 0l0 -257.19946z" clip-rule="nonzero"></path></clipPath><g clip-path="url(#p.0)"><path fill="#000000" fill-opacity="0.0" d="m0 0l288.15747 0l0 257.19946l-288.15747 0z" fill-rule="evenodd"></path><defs><linearGradient id="p.1" gradientUnits="userSpaceOnUse" gradientTransform="matrix(7.483329844267781 0.0 0.0 7.483329844267781 0.0 0.0)" spreadMethod="pad" x1="2.1380856293880957" y1="24.58795459660257" x2="2.138058570666713" y2="32.07128444082144"><stop offset="0.0" stop-color="#ffffff"></stop><stop offset="1.0" stop-color="#b3b3b3"></stop></linearGradient></defs><path fill="url(#p.1)" d="m16.0 184.0l64.0 0l0 56.0l-64.0 0z" fill-rule="evenodd"></path><path stroke="#000000" stroke-width="1.0" stroke-linejoin="round" stroke-linecap="butt" d="m16.0 184.0l64.0 0l0 56.0l-64.0 0z" fill-rule="evenodd"></path><defs><radialGradient id="p.2" gradientUnits="userSpaceOnUse" gradientTransform="matrix(3.3635856653478005 0.0 0.0 3.3635856653478005 0.0 0.0)" spreadMethod="pad" cx="9.513656907766357" cy="66.5955983543645" fx="9.513656907766357" fy="66.5955983543645" r="3.3635857105255127"><stop offset="0.0" stop-color="#db0000"></stop><stop offset="1.0" stop-color="#540303"></stop></radialGradient></defs><path fill="url(#p.2)" d="m24.0 224.0l0 0c0 -4.418274 3.5817223 -8.0 8.0 -8.0l0 0c2.1217308 0 4.156563 0.84284973 5.6568527 2.3431396c1.5002937 1.5002899 2.3431473 3.5351257 2.3431473 5.6568604l0 0c0 4.418274 -3.5817223 8.0 -8.0 8.0l0 0c-4.4182777 0 -8.0 -3.581726 -8.0 -8.0z" fill-rule="evenodd"></path><path stroke="#000000" stroke-width="1.0" stroke-linejoin="round" stroke-linecap="butt" d="m24.0 224.0l0 0c0 -4.418274 3.5817223 -8.0 8.0 -8.0l0 0c2.1217308 0 4.156563 0.84284973 5.6568527 2.3431396c1.5002937 1.5002899 2.3431473 3.5351257 2.3431473 5.6568604l0 0c0 4.418274 -3.5817223 8.0 -8.0 8.0l0 0c-4.4182777 0 -8.0 -3.581726 -8.0 -8.0z" fill-rule="evenodd"></path><defs><radialGradient id="p.3" gradientUnits="userSpaceOnUse" gradientTransform="matrix(3.3635856653478005 0.0 0.0 3.3635856653478005 0.0 0.0)" spreadMethod="pad" cx="19.027313815532715" cy="66.5955983543645" fx="19.027313815532715" fy="66.5955983543645" r="3.3635857105255127"><stop offset="0.0" stop-color="#51ab2a"></stop><stop offset="1.0" stop-color="#203e13"></stop></radialGradient></defs><path fill="url(#p.3)" d="m56.0 224.0l0 0c0 -4.418274 3.5817223 -8.0 8.0 -8.0l0 0c2.1217346 0 4.156563 0.84284973 5.6568527 2.3431396c1.5002899 1.5002899 2.3431473 3.5351257 2.3431473 5.6568604l0 0c0 4.418274 -3.5817184 8.0 -8.0 8.0l0 0c-4.4182777 0 -8.0 -3.581726 -8.0 -8.0z" fill-rule="evenodd"></path><path stroke="#000000" stroke-width="1.0" stroke-linejoin="round" stroke-linecap="butt" d="m56.0 224.0l0 0c0 -4.418274 3.5817223 -8.0 8.0 -8.0l0 0c2.1217346 0 4.156563 0.84284973 5.6568527 2.3431396c1.5002899 1.5002899 2.3431473 3.5351257 2.3431473 5.6568604l0 0c0 4.418274 -3.5817184 8.0 -8.0 8.0l0 0c-4.4182777 0 -8.0 -3.581726 -8.0 -8.0z" fill-rule="evenodd"></path><defs><radialGradient id="p.4" gradientUnits="userSpaceOnUse" gradientTransform="matrix(3.3635856653478005 0.0 0.0 3.3635856653478005 0.0 0.0)" spreadMethod="pad" cx="19.027313815532715" cy="59.46035567353974" fx="19.027313815532715" fy="59.46035567353974" r="3.3635857105255127"><stop offset="0.0" stop-color="#3177ee"></stop><stop offset="1.0" stop-color="#113d8a"></stop></radialGradient></defs><path fill="url(#p.4)" d="m56.0 200.0l0 0c0 -4.418274 3.5817223 -8.0 8.0 -8.0l0 0c2.1217346 0 4.156563 0.84284973 5.6568527 2.3431396c1.5002899 1.5002899 2.3431473 3.5351257 2.3431473 5.6568604l0 0c0 4.418274 -3.5817184 8.0 -8.0 8.0l0 0c-4.4182777 0 -8.0 -3.581726 -8.0 -8.0z" fill-rule="evenodd"></path><path stroke="#000000" stroke-width="1.0" stroke-linejoin="round" stroke-linecap="butt" d="m56.0 200.0l0 0c0 -4.418274 3.5817223 -8.0 8.0 -8.0l0 0c2.1217346 0 4.156563 0.84284973 5.6568527 2.3431396c1.5002899 1.5002899 2.3431473 3.5351257 2.3431473 5.6568604l0 0c0 4.418274 -3.5817184 8.0 -8.0 8.0l0 0c-4.4182777 0 -8.0 -3.581726 -8.0 -8.0z" fill-rule="evenodd"></path><defs><linearGradient id="p.5" gradientUnits="userSpaceOnUse" gradientTransform="matrix(-7.483329844268406 0.0 0.0 7.483329844268406 0.0 0.0)" spreadMethod="pad" x1="-10.690428146939587" y1="17.10465489374281" x2="-10.69045554817643" y2="24.58798473796105"><stop offset="0.0" stop-color="#ffffff"></stop><stop offset="1.0" stop-color="#b3b3b3"></stop></linearGradient></defs><path fill="url(#p.5)" d="m80.0 128.0l-64.0 0l0 56.0l64.0 0z" fill-rule="evenodd"></path><path stroke="#000000" stroke-width="1.0" stroke-linejoin="round" stroke-linecap="butt" d="m80.0 128.0l-64.0 0l0 56.0l64.0 0z" fill-rule="evenodd"></path><defs><radialGradient id="p.6" gradientUnits="userSpaceOnUse" gradientTransform="matrix(-3.3635856653478005 0.0 0.0 3.3635856653478005 0.0 0.0)" spreadMethod="pad" cx="-19.027313815532715" cy="49.94669876577338" fx="-19.027313815532715" fy="49.94669876577338" r="3.3635857105255127"><stop offset="0.0" stop-color="#db0000"></stop><stop offset="1.0" stop-color="#540303"></stop></radialGradient></defs><path fill="url(#p.6)" d="m72.0 168.0l0 0c0 -4.418274 -3.5817184 -8.0 -8.0 -8.0l0 0c-2.1217308 0 -4.156563 0.84284973 -5.6568527 2.3431396c-1.5002937 1.5002899 -2.3431473 3.5351257 -2.3431473 5.6568604l0 0c0 4.418274 3.5817223 8.0 8.0 8.0l0 0c4.4182816 0 8.0 -3.581726 8.0 -8.0z" fill-rule="evenodd"></path><path stroke="#000000" stroke-width="1.0" stroke-linejoin="round" stroke-linecap="butt" d="m72.0 168.0l0 0c0 -4.418274 -3.5817184 -8.0 -8.0 -8.0l0 0c-2.1217308 0 -4.156563 0.84284973 -5.6568527 2.3431396c-1.5002937 1.5002899 -2.3431473 3.5351257 -2.3431473 5.6568604l0 0c0 4.418274 3.5817223 8.0 8.0 8.0l0 0c4.4182816 0 8.0 -3.581726 8.0 -8.0z" fill-rule="evenodd"></path><defs><radialGradient id="p.7" gradientUnits="userSpaceOnUse" gradientTransform="matrix(-3.3635856653478005 0.0 0.0 3.3635856653478005 0.0 0.0)" spreadMethod="pad" cx="-9.513656907766357" cy="49.94669876577338" fx="-9.513656907766357" fy="49.94669876577338" r="3.3635857105255127"><stop offset="0.0" stop-color="#51ab2a"></stop><stop offset="1.0" stop-color="#203e13"></stop></radialGradient></defs><path fill="url(#p.7)" d="m40.0 168.0l0 0c0 -4.418274 -3.5817223 -8.0 -8.0 -8.0l0 0c-2.1217327 0 -4.156563 0.84284973 -5.6568546 2.3431396c-1.5002899 1.5002899 -2.3431454 3.5351257 -2.3431454 5.6568604l0 0c0 4.418274 3.5817223 8.0 8.0 8.0l0 0c4.4182777 0 8.0 -3.581726 8.0 -8.0z" fill-rule="evenodd"></path><path stroke="#000000" stroke-width="1.0" stroke-linejoin="round" stroke-linecap="butt" d="m40.0 168.0l0 0c0 -4.418274 -3.5817223 -8.0 -8.0 -8.0l0 0c-2.1217327 0 -4.156563 0.84284973 -5.6568546 2.3431396c-1.5002899 1.5002899 -2.3431454 3.5351257 -2.3431454 5.6568604l0 0c0 4.418274 3.5817223 8.0 8.0 8.0l0 0c4.4182777 0 8.0 -3.581726 8.0 -8.0z" fill-rule="evenodd"></path><defs><radialGradient id="p.8" gradientUnits="userSpaceOnUse" gradientTransform="matrix(-3.3635856653478005 0.0 0.0 3.3635856653478005 0.0 0.0)" spreadMethod="pad" cx="-9.513656907766357" cy="42.81145608494861" fx="-9.513656907766357" fy="42.81145608494861" r="3.3635857105255127"><stop offset="0.0" stop-color="#3177ee"></stop><stop offset="1.0" stop-color="#113d8a"></stop></radialGradient></defs><path fill="url(#p.8)" d="m40.0 144.0l0 0c0 -4.418274 -3.5817223 -8.0 -8.0 -8.0l0 0c-2.1217327 0 -4.156563 0.84284973 -5.6568546 2.3431396c-1.5002899 1.5002899 -2.3431454 3.5351257 -2.3431454 5.6568604l0 0c0 4.418274 3.5817223 8.0 8.0 8.0l0 0c4.4182777 0 8.0 -3.581726 8.0 -8.0z" fill-rule="evenodd"></path><path stroke="#000000" stroke-width="1.0" stroke-linejoin="round" stroke-linecap="butt" d="m40.0 144.0l0 0c0 -4.418274 -3.5817223 -8.0 -8.0 -8.0l0 0c-2.1217327 0 -4.156563 0.84284973 -5.6568546 2.3431396c-1.5002899 1.5002899 -2.3431454 3.5351257 -2.3431454 5.6568604l0 0c0 4.418274 3.5817223 8.0 8.0 8.0l0 0c4.4182777 0 8.0 -3.581726 8.0 -8.0z" fill-rule="evenodd"></path><defs><linearGradient id="p.9" gradientUnits="userSpaceOnUse" gradientTransform="matrix(7.483329844267167 0.0 0.0 -7.483329844267167 0.0 0.0)" spreadMethod="pad" x1="10.690428146941358" y1="-32.0713145821846" x2="10.690401430735434" y2="-24.587984737965122"><stop offset="0.0" stop-color="#ffffff"></stop><stop offset="1.0" stop-color="#b3b3b3"></stop></linearGradient></defs><path fill="url(#p.9)" d="m80.0 240.0l64.0 0l0 -56.0l-64.0 0z" fill-rule="evenodd"></path><path stroke="#000000" stroke-width="1.0" stroke-linejoin="round" stroke-linecap="butt" d="m80.0 240.0l64.0 0l0 -56.0l-64.0 0z" fill-rule="evenodd"></path><defs><radialGradient id="p.10" gradientUnits="userSpaceOnUse" gradientTransform="matrix(3.3635856653478005 0.0 0.0 -3.3635856653478005 0.0 0.0)" spreadMethod="pad" cx="28.540970723299072" cy="-59.46035567353974" fx="28.540970723299072" fy="-59.46035567353974" r="3.3635857105255127"><stop offset="0.0" stop-color="#db0000"></stop><stop offset="1.0" stop-color="#540303"></stop></radialGradient></defs><path fill="url(#p.10)" d="m88.0 200.0l0 0c0 4.418274 3.5817184 8.0 8.0 8.0l0 0c2.1217346 0 4.156563 -0.84284973 5.6568527 -2.3431396c1.5002899 -1.5002899 2.3431473 -3.5351257 2.3431473 -5.6568604l0 0c0 -4.418274 -3.5817184 -8.0 -8.0 -8.0l0 0c-4.4182816 0 -8.0 3.581726 -8.0 8.0z" fill-rule="evenodd"></path><path stroke="#000000" stroke-width="1.0" stroke-linejoin="round" stroke-linecap="butt" d="m88.0 200.0l0 0c0 4.418274 3.5817184 8.0 8.0 8.0l0 0c2.1217346 0 4.156563 -0.84284973 5.6568527 -2.3431396c1.5002899 -1.5002899 2.3431473 -3.5351257 2.3431473 -5.6568604l0 0c0 -4.418274 -3.5817184 -8.0 -8.0 -8.0l0 0c-4.4182816 0 -8.0 3.581726 -8.0 8.0z" fill-rule="evenodd"></path><defs><radialGradient id="p.11" gradientUnits="userSpaceOnUse" gradientTransform="matrix(3.3635856653478005 0.0 0.0 -3.3635856653478005 0.0 0.0)" spreadMethod="pad" cx="38.05462763106543" cy="-59.46035567353974" fx="38.05462763106543" fy="-59.46035567353974" r="3.3635857105255127"><stop offset="0.0" stop-color="#51ab2a"></stop><stop offset="1.0" stop-color="#203e13"></stop></radialGradient></defs><path fill="url(#p.11)" d="m120.0 200.0l0 0c0 4.418274 3.5817184 8.0 8.0 8.0l0 0c2.1217346 0 4.1565704 -0.84284973 5.6568604 -2.3431396c1.5002899 -1.5002899 2.3431396 -3.5351257 2.3431396 -5.6568604l0 0c0 -4.418274 -3.581726 -8.0 -8.0 -8.0l0 0c-4.4182816 0 -8.0 3.581726 -8.0 8.0z" fill-rule="evenodd"></path><path stroke="#000000" stroke-width="1.0" stroke-linejoin="round" stroke-linecap="butt" d="m120.0 200.0l0 0c0 4.418274 3.5817184 8.0 8.0 8.0l0 0c2.1217346 0 4.1565704 -0.84284973 5.6568604 -2.3431396c1.5002899 -1.5002899 2.3431396 -3.5351257 2.3431396 -5.6568604l0 0c0 -4.418274 -3.581726 -8.0 -8.0 -8.0l0 0c-4.4182816 0 -8.0 3.581726 -8.0 8.0z" fill-rule="evenodd"></path><defs><radialGradient id="p.12" gradientUnits="userSpaceOnUse" gradientTransform="matrix(3.3635856653478005 0.0 0.0 -3.3635856653478005 0.0 0.0)" spreadMethod="pad" cx="38.05462763106543" cy="-66.5955983543645" fx="38.05462763106543" fy="-66.5955983543645" r="3.3635857105255127"><stop offset="0.0" stop-color="#3177ee"></stop><stop offset="1.0" stop-color="#113d8a"></stop></radialGradient></defs><path fill="url(#p.12)" d="m120.0 224.0l0 0c0 4.418274 3.5817184 8.0 8.0 8.0l0 0c2.1217346 0 4.1565704 -0.84284973 5.6568604 -2.3431396c1.5002899 -1.5002899 2.3431396 -3.5351257 2.3431396 -5.6568604l0 0c0 -4.418274 -3.581726 -8.0 -8.0 -8.0l0 0c-4.4182816 0 -8.0 3.581726 -8.0 8.0z" fill-rule="evenodd"></path><path stroke="#000000" stroke-width="1.0" stroke-linejoin="round" stroke-linecap="butt" d="m120.0 224.0l0 0c0 4.418274 3.5817184 8.0 8.0 8.0l0 0c2.1217346 0 4.1565704 -0.84284973 5.6568604 -2.3431396c1.5002899 -1.5002899 2.3431396 -3.5351257 2.3431396 -5.6568604l0 0c0 -4.418274 -3.581726 -8.0 -8.0 -8.0l0 0c-4.4182816 0 -8.0 3.581726 -8.0 8.0z" fill-rule="evenodd"></path><defs><linearGradient id="p.13" gradientUnits="userSpaceOnUse" gradientTransform="matrix(-7.483329844268406 0.0 0.0 -7.483329844268406 0.0 0.0)" spreadMethod="pad" x1="-19.242770664491257" y1="-24.588014879321577" x2="-19.2427980657281" y2="-17.10468503510334"><stop offset="0.0" stop-color="#ffffff"></stop><stop offset="1.0" stop-color="#b3b3b3"></stop></linearGradient></defs><path fill="url(#p.13)" d="m144.0 184.0l-64.0 0l0 -56.0l64.0 0z" fill-rule="evenodd"></path><path stroke="#000000" stroke-width="1.0" stroke-linejoin="round" stroke-linecap="butt" d="m144.0 184.0l-64.0 0l0 -56.0l64.0 0z" fill-rule="evenodd"></path><defs><radialGradient id="p.14" gradientUnits="userSpaceOnUse" gradientTransform="matrix(-3.3635856653478005 0.0 0.0 -3.3635856653478005 0.0 0.0)" spreadMethod="pad" cx="-38.05462763106543" cy="-42.81145608494861" fx="-38.05462763106543" fy="-42.81145608494861" r="3.3635857105255127"><stop offset="0.0" stop-color="#db0000"></stop><stop offset="1.0" stop-color="#540303"></stop></radialGradient></defs><path fill="url(#p.14)" d="m136.0 144.0l0 0c0 4.418274 -3.581726 8.0 -8.0 8.0l0 0c-2.1217346 0 -4.156563 -0.84284973 -5.6568527 -2.3431396c-1.5002899 -1.5002899 -2.3431473 -3.5351257 -2.3431473 -5.6568604l0 0c0 -4.418274 3.5817184 -8.0 8.0 -8.0l0 0c4.418274 0 8.0 3.581726 8.0 8.0z" fill-rule="evenodd"></path><path stroke="#000000" stroke-width="1.0" stroke-linejoin="round" stroke-linecap="butt" d="m136.0 144.0l0 0c0 4.418274 -3.581726 8.0 -8.0 8.0l0 0c-2.1217346 0 -4.156563 -0.84284973 -5.6568527 -2.3431396c-1.5002899 -1.5002899 -2.3431473 -3.5351257 -2.3431473 -5.6568604l0 0c0 -4.418274 3.5817184 -8.0 8.0 -8.0l0 0c4.418274 0 8.0 3.581726 8.0 8.0z" fill-rule="evenodd"></path><defs><radialGradient id="p.15" gradientUnits="userSpaceOnUse" gradientTransform="matrix(-3.3635856653478005 0.0 0.0 -3.3635856653478005 0.0 0.0)" spreadMethod="pad" cx="-28.540970723299072" cy="-42.81145608494861" fx="-28.540970723299072" fy="-42.81145608494861" r="3.3635857105255127"><stop offset="0.0" stop-color="#51ab2a"></stop><stop offset="1.0" stop-color="#203e13"></stop></radialGradient></defs><path fill="url(#p.15)" d="m104.0 144.0l0 0c0 4.418274 -3.5817184 8.0 -8.0 8.0l0 0c-2.1217346 0 -4.156563 -0.84284973 -5.6568527 -2.3431396c-1.5002899 -1.5002899 -2.3431473 -3.5351257 -2.3431473 -5.6568604l0 0c0 -4.418274 3.5817184 -8.0 8.0 -8.0l0 0c4.4182816 0 8.0 3.581726 8.0 8.0z" fill-rule="evenodd"></path><path stroke="#000000" stroke-width="1.0" stroke-linejoin="round" stroke-linecap="butt" d="m104.0 144.0l0 0c0 4.418274 -3.5817184 8.0 -8.0 8.0l0 0c-2.1217346 0 -4.156563 -0.84284973 -5.6568527 -2.3431396c-1.5002899 -1.5002899 -2.3431473 -3.5351257 -2.3431473 -5.6568604l0 0c0 -4.418274 3.5817184 -8.0 8.0 -8.0l0 0c4.4182816 0 8.0 3.581726 8.0 8.0z" fill-rule="evenodd"></path><defs><radialGradient id="p.16" gradientUnits="userSpaceOnUse" gradientTransform="matrix(-3.3635856653478005 0.0 0.0 -3.3635856653478005 0.0 0.0)" spreadMethod="pad" cx="-28.540970723299072" cy="-49.94669876577338" fx="-28.540970723299072" fy="-49.94669876577338" r="3.3635857105255127"><stop offset="0.0" stop-color="#3177ee"></stop><stop offset="1.0" stop-color="#113d8a"></stop></radialGradient></defs><path fill="url(#p.16)" d="m104.0 168.0l0 0c0 4.418274 -3.5817184 8.0 -8.0 8.0l0 0c-2.1217346 0 -4.156563 -0.84284973 -5.6568527 -2.3431396c-1.5002899 -1.5002899 -2.3431473 -3.5351257 -2.3431473 -5.6568604l0 0c0 -4.418274 3.5817184 -8.0 8.0 -8.0l0 0c4.4182816 0 8.0 3.581726 8.0 8.0z" fill-rule="evenodd"></path><path stroke="#000000" stroke-width="1.0" stroke-linejoin="round" stroke-linecap="butt" d="m104.0 168.0l0 0c0 4.418274 -3.5817184 8.0 -8.0 8.0l0 0c-2.1217346 0 -4.156563 -0.84284973 -5.6568527 -2.3431396c-1.5002899 -1.5002899 -2.3431473 -3.5351257 -2.3431473 -5.6568604l0 0c0 -4.418274 3.5817184 -8.0 8.0 -8.0l0 0c4.4182816 0 8.0 3.581726 8.0 8.0z" fill-rule="evenodd"></path><defs><linearGradient id="p.17" gradientUnits="userSpaceOnUse" gradientTransform="matrix(7.483331214330123 0.0 0.0 7.483331214330123 0.0 0.0)" spreadMethod="pad" x1="19.242767141490248" y1="24.587947354870458" x2="19.242739740258422" y2="32.071278569150415"><stop offset="0.0" stop-color="#ffffff"></stop><stop offset="1.0" stop-color="#b3b3b3"></stop></linearGradient></defs><path fill="url(#p.17)" d="m144.0 184.0l64.0 0l0 56.0l-64.0 0z" fill-rule="evenodd"></path><path stroke="#000000" stroke-width="1.0" stroke-linejoin="round" stroke-linecap="butt" d="m144.0 184.0l64.0 0l0 56.0l-64.0 0z" fill-rule="evenodd"></path><defs><radialGradient id="p.18" gradientUnits="userSpaceOnUse" gradientTransform="matrix(3.3635856653478005 0.0 0.0 3.3635856653478005 0.0 0.0)" spreadMethod="pad" cx="47.56828453883179" cy="66.5955983543645" fx="47.56828453883179" fy="66.5955983543645" r="3.3635857105255127"><stop offset="0.0" stop-color="#db0000"></stop><stop offset="1.0" stop-color="#540303"></stop></radialGradient></defs><path fill="url(#p.18)" d="m152.0 224.0l0 0c0 -4.418274 3.581726 -8.0 8.0 -8.0l0 0c2.1217346 0 4.1565704 0.84284973 5.6568604 2.3431396c1.5002899 1.5002899 2.3431396 3.5351257 2.3431396 5.6568604l0 0c0 4.418274 -3.581726 8.0 -8.0 8.0l0 0c-4.418274 0 -8.0 -3.581726 -8.0 -8.0z" fill-rule="evenodd"></path><path stroke="#000000" stroke-width="1.0" stroke-linejoin="round" stroke-linecap="butt" d="m152.0 224.0l0 0c0 -4.418274 3.581726 -8.0 8.0 -8.0l0 0c2.1217346 0 4.1565704 0.84284973 5.6568604 2.3431396c1.5002899 1.5002899 2.3431396 3.5351257 2.3431396 5.6568604l0 0c0 4.418274 -3.581726 8.0 -8.0 8.0l0 0c-4.418274 0 -8.0 -3.581726 -8.0 -8.0z" fill-rule="evenodd"></path><defs><radialGradient id="p.19" gradientUnits="userSpaceOnUse" gradientTransform="matrix(3.3635856653478005 0.0 0.0 3.3635856653478005 0.0 0.0)" spreadMethod="pad" cx="57.081941446598144" cy="66.5955983543645" fx="57.081941446598144" fy="66.5955983543645" r="3.3635857105255127"><stop offset="0.0" stop-color="#51ab2a"></stop><stop offset="1.0" stop-color="#203e13"></stop></radialGradient></defs><path fill="url(#p.19)" d="m184.0 224.0l0 0c0 -4.418274 3.581726 -8.0 8.0 -8.0l0 0c2.1217346 0 4.1565704 0.84284973 5.6568604 2.3431396c1.5002899 1.5002899 2.3431396 3.5351257 2.3431396 5.6568604l0 0c0 4.418274 -3.581726 8.0 -8.0 8.0l0 0c-4.418274 0 -8.0 -3.581726 -8.0 -8.0z" fill-rule="evenodd"></path><path stroke="#000000" stroke-width="1.0" stroke-linejoin="round" stroke-linecap="butt" d="m184.0 224.0l0 0c0 -4.418274 3.581726 -8.0 8.0 -8.0l0 0c2.1217346 0 4.1565704 0.84284973 5.6568604 2.3431396c1.5002899 1.5002899 2.3431396 3.5351257 2.3431396 5.6568604l0 0c0 4.418274 -3.581726 8.0 -8.0 8.0l0 0c-4.418274 0 -8.0 -3.581726 -8.0 -8.0z" fill-rule="evenodd"></path><defs><radialGradient id="p.20" gradientUnits="userSpaceOnUse" gradientTransform="matrix(3.3635856653478005 0.0 0.0 3.3635856653478005 0.0 0.0)" spreadMethod="pad" cx="57.081941446598144" cy="59.46035567353974" fx="57.081941446598144" fy="59.46035567353974" r="3.3635857105255127"><stop offset="0.0" stop-color="#3177ee"></stop><stop offset="1.0" stop-color="#113d8a"></stop></radialGradient></defs><path fill="url(#p.20)" d="m184.0 200.0l0 0c0 -4.418274 3.581726 -8.0 8.0 -8.0l0 0c2.1217346 0 4.1565704 0.84284973 5.6568604 2.3431396c1.5002899 1.5002899 2.3431396 3.5351257 2.3431396 5.6568604l0 0c0 4.418274 -3.581726 8.0 -8.0 8.0l0 0c-4.418274 0 -8.0 -3.581726 -8.0 -8.0z" fill-rule="evenodd"></path><path stroke="#000000" stroke-width="1.0" stroke-linejoin="round" stroke-linecap="butt" d="m184.0 200.0l0 0c0 -4.418274 3.581726 -8.0 8.0 -8.0l0 0c2.1217346 0 4.1565704 0.84284973 5.6568604 2.3431396c1.5002899 1.5002899 2.3431396 3.5351257 2.3431396 5.6568604l0 0c0 4.418274 -3.581726 8.0 -8.0 8.0l0 0c-4.418274 0 -8.0 -3.581726 -8.0 -8.0z" fill-rule="evenodd"></path><defs><linearGradient id="p.21" gradientUnits="userSpaceOnUse" gradientTransform="matrix(-7.483329844263639 0.0 0.0 7.483329844263639 0.0 0.0)" spreadMethod="pad" x1="-27.795113182060632" y1="17.104654893753708" x2="-27.79513784317379" y2="24.58798473797671"><stop offset="0.0" stop-color="#ffffff"></stop><stop offset="1.0" stop-color="#b3b3b3"></stop></linearGradient></defs><path fill="url(#p.21)" d="m208.0 128.0l-64.0 0l0 56.0l64.0 0z" fill-rule="evenodd"></path><path stroke="#000000" stroke-width="1.0" stroke-linejoin="round" stroke-linecap="butt" d="m208.0 128.0l-64.0 0l0 56.0l64.0 0z" fill-rule="evenodd"></path><defs><radialGradient id="p.22" gradientUnits="userSpaceOnUse" gradientTransform="matrix(-3.3635856653478005 0.0 0.0 3.3635856653478005 0.0 0.0)" spreadMethod="pad" cx="-57.081941446598144" cy="49.94669876577338" fx="-57.081941446598144" fy="49.94669876577338" r="3.3635857105255127"><stop offset="0.0" stop-color="#db0000"></stop><stop offset="1.0" stop-color="#540303"></stop></radialGradient></defs><path fill="url(#p.22)" d="m200.0 168.0l0 0c0 -4.418274 -3.581726 -8.0 -8.0 -8.0l0 0c-2.1217346 0 -4.1565704 0.84284973 -5.6568604 2.3431396c-1.5002899 1.5002899 -2.3431396 3.5351257 -2.3431396 5.6568604l0 0c0 4.418274 3.581726 8.0 8.0 8.0l0 0c4.418274 0 8.0 -3.581726 8.0 -8.0z" fill-rule="evenodd"></path><path stroke="#000000" stroke-width="1.0" stroke-linejoin="round" stroke-linecap="butt" d="m200.0 168.0l0 0c0 -4.418274 -3.581726 -8.0 -8.0 -8.0l0 0c-2.1217346 0 -4.1565704 0.84284973 -5.6568604 2.3431396c-1.5002899 1.5002899 -2.3431396 3.5351257 -2.3431396 5.6568604l0 0c0 4.418274 3.581726 8.0 8.0 8.0l0 0c4.418274 0 8.0 -3.581726 8.0 -8.0z" fill-rule="evenodd"></path><defs><radialGradient id="p.23" gradientUnits="userSpaceOnUse" gradientTransform="matrix(-3.3635856653478005 0.0 0.0 3.3635856653478005 0.0 0.0)" spreadMethod="pad" cx="-47.56828453883179" cy="49.94669876577338" fx="-47.56828453883179" fy="49.94669876577338" r="3.3635857105255127"><stop offset="0.0" stop-color="#51ab2a"></stop><stop offset="1.0" stop-color="#203e13"></stop></radialGradient></defs><path fill="url(#p.23)" d="m168.0 168.0l0 0c0 -4.418274 -3.581726 -8.0 -8.0 -8.0l0 0c-2.1217346 0 -4.1565704 0.84284973 -5.6568604 2.3431396c-1.5002899 1.5002899 -2.3431396 3.5351257 -2.3431396 5.6568604l0 0c0 4.418274 3.581726 8.0 8.0 8.0l0 0c4.418274 0 8.0 -3.581726 8.0 -8.0z" fill-rule="evenodd"></path><path stroke="#000000" stroke-width="1.0" stroke-linejoin="round" stroke-linecap="butt" d="m168.0 168.0l0 0c0 -4.418274 -3.581726 -8.0 -8.0 -8.0l0 0c-2.1217346 0 -4.1565704 0.84284973 -5.6568604 2.3431396c-1.5002899 1.5002899 -2.3431396 3.5351257 -2.3431396 5.6568604l0 0c0 4.418274 3.581726 8.0 8.0 8.0l0 0c4.418274 0 8.0 -3.581726 8.0 -8.0z" fill-rule="evenodd"></path><defs><radialGradient id="p.24" gradientUnits="userSpaceOnUse" gradientTransform="matrix(-3.3635856653478005 0.0 0.0 3.3635856653478005 0.0 0.0)" spreadMethod="pad" cx="-47.56828453883179" cy="42.81145608494861" fx="-47.56828453883179" fy="42.81145608494861" r="3.3635857105255127"><stop offset="0.0" stop-color="#3177ee"></stop><stop offset="1.0" stop-color="#113d8a"></stop></radialGradient></defs><path fill="url(#p.24)" d="m168.0 144.0l0 0c0 -4.418274 -3.581726 -8.0 -8.0 -8.0l0 0c-2.1217346 0 -4.1565704 0.84284973 -5.6568604 2.3431396c-1.5002899 1.5002899 -2.3431396 3.5351257 -2.3431396 5.6568604l0 0c0 4.418274 3.581726 8.0 8.0 8.0l0 0c4.418274 0 8.0 -3.581726 8.0 -8.0z" fill-rule="evenodd"></path><path stroke="#000000" stroke-width="1.0" stroke-linejoin="round" stroke-linecap="butt" d="m168.0 144.0l0 0c0 -4.418274 -3.581726 -8.0 -8.0 -8.0l0 0c-2.1217346 0 -4.1565704 0.84284973 -5.6568604 2.3431396c-1.5002899 1.5002899 -2.3431396 3.5351257 -2.3431396 5.6568604l0 0c0 4.418274 3.581726 8.0 8.0 8.0l0 0c4.418274 0 8.0 -3.581726 8.0 -8.0z" fill-rule="evenodd"></path><defs><linearGradient id="p.25" gradientUnits="userSpaceOnUse" gradientTransform="matrix(7.483329844268406 0.0 0.0 -7.483329844268406 0.0 0.0)" spreadMethod="pad" x1="27.795113182042925" y1="-32.07131458217929" x2="27.795085780806083" y2="-24.58798473796105"><stop offset="0.0" stop-color="#ffffff"></stop><stop offset="1.0" stop-color="#b3b3b3"></stop></linearGradient></defs><path fill="url(#p.25)" d="m208.0 240.0l64.0 0l0 -56.0l-64.0 0z" fill-rule="evenodd"></path><path stroke="#000000" stroke-width="1.0" stroke-linejoin="round" stroke-linecap="butt" d="m208.0 240.0l64.0 0l0 -56.0l-64.0 0z" fill-rule="evenodd"></path><defs><radialGradient id="p.26" gradientUnits="userSpaceOnUse" gradientTransform="matrix(3.3635856653478005 0.0 0.0 -3.3635856653478005 0.0 0.0)" spreadMethod="pad" cx="66.5955983543645" cy="-59.46035567353974" fx="66.5955983543645" fy="-59.46035567353974" r="3.3635857105255127"><stop offset="0.0" stop-color="#db0000"></stop><stop offset="1.0" stop-color="#540303"></stop></radialGradient></defs><path fill="url(#p.26)" d="m216.0 200.0l0 0c0 4.418274 3.581726 8.0 8.0 8.0l0 0c2.1217346 0 4.1565704 -0.84284973 5.6568604 -2.3431396c1.5002899 -1.5002899 2.3431396 -3.5351257 2.3431396 -5.6568604l0 0c0 -4.418274 -3.581726 -8.0 -8.0 -8.0l0 0c-4.418274 0 -8.0 3.581726 -8.0 8.0z" fill-rule="evenodd"></path><path stroke="#000000" stroke-width="1.0" stroke-linejoin="round" stroke-linecap="butt" d="m216.0 200.0l0 0c0 4.418274 3.581726 8.0 8.0 8.0l0 0c2.1217346 0 4.1565704 -0.84284973 5.6568604 -2.3431396c1.5002899 -1.5002899 2.3431396 -3.5351257 2.3431396 -5.6568604l0 0c0 -4.418274 -3.581726 -8.0 -8.0 -8.0l0 0c-4.418274 0 -8.0 3.581726 -8.0 8.0z" fill-rule="evenodd"></path><defs><radialGradient id="p.27" gradientUnits="userSpaceOnUse" gradientTransform="matrix(3.3635856653478005 0.0 0.0 -3.3635856653478005 0.0 0.0)" spreadMethod="pad" cx="76.10925526213086" cy="-59.46035567353974" fx="76.10925526213086" fy="-59.46035567353974" r="3.3635857105255127"><stop offset="0.0" stop-color="#51ab2a"></stop><stop offset="1.0" stop-color="#203e13"></stop></radialGradient></defs><path fill="url(#p.27)" d="m248.0 200.0l0 0c0 4.418274 3.581726 8.0 8.0 8.0l0 0c2.1217346 0 4.156555 -0.84284973 5.6568604 -2.3431396c1.5002747 -1.5002899 2.3431396 -3.5351257 2.3431396 -5.6568604l0 0c0 -4.418274 -3.581726 -8.0 -8.0 -8.0l0 0c-4.418274 0 -8.0 3.581726 -8.0 8.0z" fill-rule="evenodd"></path><path stroke="#000000" stroke-width="1.0" stroke-linejoin="round" stroke-linecap="butt" d="m248.0 200.0l0 0c0 4.418274 3.581726 8.0 8.0 8.0l0 0c2.1217346 0 4.156555 -0.84284973 5.6568604 -2.3431396c1.5002747 -1.5002899 2.3431396 -3.5351257 2.3431396 -5.6568604l0 0c0 -4.418274 -3.581726 -8.0 -8.0 -8.0l0 0c-4.418274 0 -8.0 3.581726 -8.0 8.0z" fill-rule="evenodd"></path><defs><radialGradient id="p.28" gradientUnits="userSpaceOnUse" gradientTransform="matrix(3.3635856653478005 0.0 0.0 -3.3635856653478005 0.0 0.0)" spreadMethod="pad" cx="76.10925526213086" cy="-66.5955983543645" fx="76.10925526213086" fy="-66.5955983543645" r="3.3635857105255127"><stop offset="0.0" stop-color="#3177ee"></stop><stop offset="1.0" stop-color="#113d8a"></stop></radialGradient></defs><path fill="url(#p.28)" d="m248.0 224.0l0 0c0 4.418274 3.581726 8.0 8.0 8.0l0 0c2.1217346 0 4.156555 -0.84284973 5.6568604 -2.3431396c1.5002747 -1.5002899 2.3431396 -3.5351257 2.3431396 -5.6568604l0 0c0 -4.418274 -3.581726 -8.0 -8.0 -8.0l0 0c-4.418274 0 -8.0 3.581726 -8.0 8.0z" fill-rule="evenodd"></path><path stroke="#000000" stroke-width="1.0" stroke-linejoin="round" stroke-linecap="butt" d="m248.0 224.0l0 0c0 4.418274 3.581726 8.0 8.0 8.0l0 0c2.1217346 0 4.156555 -0.84284973 5.6568604 -2.3431396c1.5002747 -1.5002899 2.3431396 -3.5351257 2.3431396 -5.6568604l0 0c0 -4.418274 -3.581726 -8.0 -8.0 -8.0l0 0c-4.418274 0 -8.0 3.581726 -8.0 8.0z" fill-rule="evenodd"></path><defs><linearGradient id="p.29" gradientUnits="userSpaceOnUse" gradientTransform="matrix(-7.483329844263639 0.0 0.0 -7.483329844263639 0.0 0.0)" spreadMethod="pad" x1="-36.34745569961775" y1="-24.58801487933724" x2="-36.347480360730906" y2="-17.104685035114233"><stop offset="0.0" stop-color="#ffffff"></stop><stop offset="1.0" stop-color="#b3b3b3"></stop></linearGradient></defs><path fill="url(#p.29)" d="m272.0 184.0l-64.0 0l0 -56.0l64.0 0z" fill-rule="evenodd"></path><path stroke="#000000" stroke-width="1.0" stroke-linejoin="round" stroke-linecap="butt" d="m272.0 184.0l-64.0 0l0 -56.0l64.0 0z" fill-rule="evenodd"></path><defs><radialGradient id="p.30" gradientUnits="userSpaceOnUse" gradientTransform="matrix(-3.3635856653478005 0.0 0.0 -3.3635856653478005 0.0 0.0)" spreadMethod="pad" cx="-76.10925526213086" cy="-42.81145608494861" fx="-76.10925526213086" fy="-42.81145608494861" r="3.3635857105255127"><stop offset="0.0" stop-color="#db0000"></stop><stop offset="1.0" stop-color="#540303"></stop></radialGradient></defs><path fill="url(#p.30)" d="m264.0 144.0l0 0c0 4.418274 -3.581726 8.0 -8.0 8.0l0 0c-2.1217346 0 -4.1565704 -0.84284973 -5.6568604 -2.3431396c-1.5002899 -1.5002899 -2.3431396 -3.5351257 -2.3431396 -5.6568604l0 0c0 -4.418274 3.581726 -8.0 8.0 -8.0l0 0c4.418274 0 8.0 3.581726 8.0 8.0z" fill-rule="evenodd"></path><path stroke="#000000" stroke-width="1.0" stroke-linejoin="round" stroke-linecap="butt" d="m264.0 144.0l0 0c0 4.418274 -3.581726 8.0 -8.0 8.0l0 0c-2.1217346 0 -4.1565704 -0.84284973 -5.6568604 -2.3431396c-1.5002899 -1.5002899 -2.3431396 -3.5351257 -2.3431396 -5.6568604l0 0c0 -4.418274 3.581726 -8.0 8.0 -8.0l0 0c4.418274 0 8.0 3.581726 8.0 8.0z" fill-rule="evenodd"></path><defs><radialGradient id="p.31" gradientUnits="userSpaceOnUse" gradientTransform="matrix(-3.3635856653478005 0.0 0.0 -3.3635856653478005 0.0 0.0)" spreadMethod="pad" cx="-66.5955983543645" cy="-42.81145608494861" fx="-66.5955983543645" fy="-42.81145608494861" r="3.3635857105255127"><stop offset="0.0" stop-color="#51ab2a"></stop><stop offset="1.0" stop-color="#203e13"></stop></radialGradient></defs><path fill="url(#p.31)" d="m232.0 144.0l0 0c0 4.418274 -3.581726 8.0 -8.0 8.0l0 0c-2.1217346 0 -4.1565704 -0.84284973 -5.6568604 -2.3431396c-1.5002899 -1.5002899 -2.3431396 -3.5351257 -2.3431396 -5.6568604l0 0c0 -4.418274 3.581726 -8.0 8.0 -8.0l0 0c4.418274 0 8.0 3.581726 8.0 8.0z" fill-rule="evenodd"></path><path stroke="#000000" stroke-width="1.0" stroke-linejoin="round" stroke-linecap="butt" d="m232.0 144.0l0 0c0 4.418274 -3.581726 8.0 -8.0 8.0l0 0c-2.1217346 0 -4.1565704 -0.84284973 -5.6568604 -2.3431396c-1.5002899 -1.5002899 -2.3431396 -3.5351257 -2.3431396 -5.6568604l0 0c0 -4.418274 3.581726 -8.0 8.0 -8.0l0 0c4.418274 0 8.0 3.581726 8.0 8.0z" fill-rule="evenodd"></path><defs><radialGradient id="p.32" gradientUnits="userSpaceOnUse" gradientTransform="matrix(-3.3635856653478005 0.0 0.0 -3.3635856653478005 0.0 0.0)" spreadMethod="pad" cx="-66.5955983543645" cy="-49.94669876577338" fx="-66.5955983543645" fy="-49.94669876577338" r="3.3635857105255127"><stop offset="0.0" stop-color="#3177ee"></stop><stop offset="1.0" stop-color="#113d8a"></stop></radialGradient></defs><path fill="url(#p.32)" d="m232.0 168.0l0 0c0 4.418274 -3.581726 8.0 -8.0 8.0l0 0c-2.1217346 0 -4.1565704 -0.84284973 -5.6568604 -2.3431396c-1.5002899 -1.5002899 -2.3431396 -3.5351257 -2.3431396 -5.6568604l0 0c0 -4.418274 3.581726 -8.0 8.0 -8.0l0 0c4.418274 0 8.0 3.581726 8.0 8.0z" fill-rule="evenodd"></path><path stroke="#000000" stroke-width="1.0" stroke-linejoin="round" stroke-linecap="butt" d="m232.0 168.0l0 0c0 4.418274 -3.581726 8.0 -8.0 8.0l0 0c-2.1217346 0 -4.1565704 -0.84284973 -5.6568604 -2.3431396c-1.5002899 -1.5002899 -2.3431396 -3.5351257 -2.3431396 -5.6568604l0 0c0 -4.418274 3.581726 -8.0 8.0 -8.0l0 0c4.418274 0 8.0 3.581726 8.0 8.0z" fill-rule="evenodd"></path><defs><linearGradient id="p.33" gradientUnits="userSpaceOnUse" gradientTransform="matrix(7.483330186783546 0.0 0.0 7.483330186783546 0.0 0.0)" spreadMethod="pad" x1="2.1380855315268477" y1="9.621354065480777" x2="2.138058301548981" y2="17.10468425221478"><stop offset="0.0" stop-color="#ffffff"></stop><stop offset="1.0" stop-color="#b3b3b3"></stop></linearGradient></defs><path fill="url(#p.33)" d="m16.0 72.0l64.0 0l0 56.0l-64.0 0z" fill-rule="evenodd"></path><path stroke="#000000" stroke-width="1.0" stroke-linejoin="round" stroke-linecap="butt" d="m16.0 72.0l64.0 0l0 56.0l-64.0 0z" fill-rule="evenodd"></path><defs><radialGradient id="p.34" gradientUnits="userSpaceOnUse" gradientTransform="matrix(3.3635856653478005 0.0 0.0 3.3635856653478005 0.0 0.0)" spreadMethod="pad" cx="9.513656907766357" cy="33.29779917718225" fx="9.513656907766357" fy="33.29779917718225" r="3.3635857105255127"><stop offset="0.0" stop-color="#db0000"></stop><stop offset="1.0" stop-color="#540303"></stop></radialGradient></defs><path fill="url(#p.34)" d="m24.0 112.0l0 0c0 -4.4182816 3.5817223 -8.0 8.0 -8.0l0 0c2.1217308 0 4.156563 0.84285736 5.6568527 2.3431473c1.5002937 1.5002899 2.3431473 3.535118 2.3431473 5.6568527l0 0c0 4.4182816 -3.5817223 8.0 -8.0 8.0l0 0c-4.4182777 0 -8.0 -3.5817184 -8.0 -8.0z" fill-rule="evenodd"></path><path stroke="#000000" stroke-width="1.0" stroke-linejoin="round" stroke-linecap="butt" d="m24.0 112.0l0 0c0 -4.4182816 3.5817223 -8.0 8.0 -8.0l0 0c2.1217308 0 4.156563 0.84285736 5.6568527 2.3431473c1.5002937 1.5002899 2.3431473 3.535118 2.3431473 5.6568527l0 0c0 4.4182816 -3.5817223 8.0 -8.0 8.0l0 0c-4.4182777 0 -8.0 -3.5817184 -8.0 -8.0z" fill-rule="evenodd"></path><defs><radialGradient id="p.35" gradientUnits="userSpaceOnUse" gradientTransform="matrix(3.3635856653478005 0.0 0.0 3.3635856653478005 0.0 0.0)" spreadMethod="pad" cx="19.027313815532715" cy="33.29779917718225" fx="19.027313815532715" fy="33.29779917718225" r="3.3635857105255127"><stop offset="0.0" stop-color="#51ab2a"></stop><stop offset="1.0" stop-color="#203e13"></stop></radialGradient></defs><path fill="url(#p.35)" d="m56.0 112.0l0 0c0 -4.4182816 3.5817223 -8.0 8.0 -8.0l0 0c2.1217346 0 4.156563 0.84285736 5.6568527 2.3431473c1.5002899 1.5002899 2.3431473 3.535118 2.3431473 5.6568527l0 0c0 4.4182816 -3.5817184 8.0 -8.0 8.0l0 0c-4.4182777 0 -8.0 -3.5817184 -8.0 -8.0z" fill-rule="evenodd"></path><path stroke="#000000" stroke-width="1.0" stroke-linejoin="round" stroke-linecap="butt" d="m56.0 112.0l0 0c0 -4.4182816 3.5817223 -8.0 8.0 -8.0l0 0c2.1217346 0 4.156563 0.84285736 5.6568527 2.3431473c1.5002899 1.5002899 2.3431473 3.535118 2.3431473 5.6568527l0 0c0 4.4182816 -3.5817184 8.0 -8.0 8.0l0 0c-4.4182777 0 -8.0 -3.5817184 -8.0 -8.0z" fill-rule="evenodd"></path><defs><radialGradient id="p.36" gradientUnits="userSpaceOnUse" gradientTransform="matrix(3.3635856653478005 0.0 0.0 3.3635856653478005 0.0 0.0)" spreadMethod="pad" cx="19.027313815532715" cy="26.162556496357485" fx="19.027313815532715" fy="26.162556496357485" r="3.3635857105255127"><stop offset="0.0" stop-color="#3177ee"></stop><stop offset="1.0" stop-color="#113d8a"></stop></radialGradient></defs><path fill="url(#p.36)" d="m56.0 88.0l0 0c0 -4.4182816 3.5817223 -8.0 8.0 -8.0l0 0c2.1217346 0 4.156563 0.84285736 5.6568527 2.3431473c1.5002899 1.5002899 2.3431473 3.535118 2.3431473 5.6568527l0 0c0 4.4182816 -3.5817184 8.0 -8.0 8.0l0 0c-4.4182777 0 -8.0 -3.5817184 -8.0 -8.0z" fill-rule="evenodd"></path><path stroke="#000000" stroke-width="1.0" stroke-linejoin="round" stroke-linecap="butt" d="m56.0 88.0l0 0c0 -4.4182816 3.5817223 -8.0 8.0 -8.0l0 0c2.1217346 0 4.156563 0.84285736 5.6568527 2.3431473c1.5002899 1.5002899 2.3431473 3.535118 2.3431473 5.6568527l0 0c0 4.4182816 -3.5817184 8.0 -8.0 8.0l0 0c-4.4182777 0 -8.0 -3.5817184 -8.0 -8.0z" fill-rule="evenodd"></path><defs><linearGradient id="p.37" gradientUnits="userSpaceOnUse" gradientTransform="matrix(-7.4833302724127195 0.0 0.0 7.4833302724127195 0.0 0.0)" spreadMethod="pad" x1="-10.690427535307352" y1="2.138054509414065" x2="-10.690454936542627" y2="9.621384781776616"><stop offset="0.0" stop-color="#ffffff"></stop><stop offset="1.0" stop-color="#b3b3b3"></stop></linearGradient></defs><path fill="url(#p.37)" d="m80.0 16.0l-64.0 0l0 56.0l64.0 0z" fill-rule="evenodd"></path><path stroke="#000000" stroke-width="1.0" stroke-linejoin="round" stroke-linecap="butt" d="m80.0 16.0l-64.0 0l0 56.0l64.0 0z" fill-rule="evenodd"></path><defs><radialGradient id="p.38" gradientUnits="userSpaceOnUse" gradientTransform="matrix(-3.3635856653478005 0.0 0.0 3.3635856653478005 0.0 0.0)" spreadMethod="pad" cx="-19.027313815532715" cy="16.648899588591124" fx="-19.027313815532715" fy="16.648899588591124" r="3.3635857105255127"><stop offset="0.0" stop-color="#db0000"></stop><stop offset="1.0" stop-color="#540303"></stop></radialGradient></defs><path fill="url(#p.38)" d="m72.0 56.0l0 0c0 -4.4182777 -3.5817184 -8.0 -8.0 -8.0l0 0c-2.1217308 0 -4.156563 0.84285355 -5.6568527 2.3431473c-1.5002937 1.5002899 -2.3431473 3.535122 -2.3431473 5.6568527l0 0c0 4.4182777 3.5817223 8.0 8.0 8.0l0 0c4.4182816 0 8.0 -3.5817223 8.0 -8.0z" fill-rule="evenodd"></path><path stroke="#000000" stroke-width="1.0" stroke-linejoin="round" stroke-linecap="butt" d="m72.0 56.0l0 0c0 -4.4182777 -3.5817184 -8.0 -8.0 -8.0l0 0c-2.1217308 0 -4.156563 0.84285355 -5.6568527 2.3431473c-1.5002937 1.5002899 -2.3431473 3.535122 -2.3431473 5.6568527l0 0c0 4.4182777 3.5817223 8.0 8.0 8.0l0 0c4.4182816 0 8.0 -3.5817223 8.0 -8.0z" fill-rule="evenodd"></path><defs><radialGradient id="p.39" gradientUnits="userSpaceOnUse" gradientTransform="matrix(-3.3635856653478005 0.0 0.0 3.3635856653478005 0.0 0.0)" spreadMethod="pad" cx="-9.513656907766357" cy="16.648899588591124" fx="-9.513656907766357" fy="16.648899588591124" r="3.3635857105255127"><stop offset="0.0" stop-color="#51ab2a"></stop><stop offset="1.0" stop-color="#203e13"></stop></radialGradient></defs><path fill="url(#p.39)" d="m40.0 56.0l0 0c0 -4.4182777 -3.5817223 -8.0 -8.0 -8.0l0 0c-2.1217327 0 -4.156563 0.84285355 -5.6568546 2.3431473c-1.5002899 1.5002899 -2.3431454 3.535122 -2.3431454 5.6568527l0 0c0 4.4182777 3.5817223 8.0 8.0 8.0l0 0c4.4182777 0 8.0 -3.5817223 8.0 -8.0z" fill-rule="evenodd"></path><path stroke="#000000" stroke-width="1.0" stroke-linejoin="round" stroke-linecap="butt" d="m40.0 56.0l0 0c0 -4.4182777 -3.5817223 -8.0 -8.0 -8.0l0 0c-2.1217327 0 -4.156563 0.84285355 -5.6568546 2.3431473c-1.5002899 1.5002899 -2.3431454 3.535122 -2.3431454 5.6568527l0 0c0 4.4182777 3.5817223 8.0 8.0 8.0l0 0c4.4182777 0 8.0 -3.5817223 8.0 -8.0z" fill-rule="evenodd"></path><defs><radialGradient id="p.40" gradientUnits="userSpaceOnUse" gradientTransform="matrix(-3.3635856653478005 0.0 0.0 3.3635856653478005 0.0 0.0)" spreadMethod="pad" cx="-9.513656907766357" cy="9.513656907766357" fx="-9.513656907766357" fy="9.513656907766357" r="3.3635857105255127"><stop offset="0.0" stop-color="#3177ee"></stop><stop offset="1.0" stop-color="#113d8a"></stop></radialGradient></defs><path fill="url(#p.40)" d="m40.0 32.0l0 0c0 -4.4182777 -3.5817223 -8.0 -8.0 -8.0l0 0c-2.1217327 0 -4.156563 0.84285545 -5.6568546 2.3431454c-1.5002899 1.5002918 -2.3431454 3.535122 -2.3431454 5.6568546l0 0c0 4.4182777 3.5817223 8.0 8.0 8.0l0 0c4.4182777 0 8.0 -3.5817223 8.0 -8.0z" fill-rule="evenodd"></path><path stroke="#000000" stroke-width="1.0" stroke-linejoin="round" stroke-linecap="butt" d="m40.0 32.0l0 0c0 -4.4182777 -3.5817223 -8.0 -8.0 -8.0l0 0c-2.1217327 0 -4.156563 0.84285545 -5.6568546 2.3431454c-1.5002899 1.5002918 -2.3431454 3.535122 -2.3431454 5.6568546l0 0c0 4.4182777 3.5817223 8.0 8.0 8.0l0 0c4.4182777 0 8.0 -3.5817223 8.0 -8.0z" fill-rule="evenodd"></path><defs><linearGradient id="p.41" gradientUnits="userSpaceOnUse" gradientTransform="matrix(7.483330529298056 0.0 0.0 -7.483330529298056 0.0 0.0)" spreadMethod="pad" x1="10.690427168329832" y1="-17.104714980747215" x2="10.690400452126354" y2="-9.621384451496848"><stop offset="0.0" stop-color="#ffffff"></stop><stop offset="1.0" stop-color="#b3b3b3"></stop></linearGradient></defs><path fill="url(#p.41)" d="m80.0 128.0l64.0 0l0 -56.0l-64.0 0z" fill-rule="evenodd"></path><path stroke="#000000" stroke-width="1.0" stroke-linejoin="round" stroke-linecap="butt" d="m80.0 128.0l64.0 0l0 -56.0l-64.0 0z" fill-rule="evenodd"></path><defs><radialGradient id="p.42" gradientUnits="userSpaceOnUse" gradientTransform="matrix(3.3635856653478005 0.0 0.0 -3.3635856653478005 0.0 0.0)" spreadMethod="pad" cx="28.540970723299072" cy="-26.162556496357485" fx="28.540970723299072" fy="-26.162556496357485" r="3.3635857105255127"><stop offset="0.0" stop-color="#db0000"></stop><stop offset="1.0" stop-color="#540303"></stop></radialGradient></defs><path fill="url(#p.42)" d="m88.0 88.0l0 0c0 4.4182816 3.5817184 8.0 8.0 8.0l0 0c2.1217346 0 4.156563 -0.84285736 5.6568527 -2.3431473c1.5002899 -1.5002899 2.3431473 -3.535118 2.3431473 -5.6568527l0 0c0 -4.4182816 -3.5817184 -8.0 -8.0 -8.0l0 0c-4.4182816 0 -8.0 3.5817184 -8.0 8.0z" fill-rule="evenodd"></path><path stroke="#000000" stroke-width="1.0" stroke-linejoin="round" stroke-linecap="butt" d="m88.0 88.0l0 0c0 4.4182816 3.5817184 8.0 8.0 8.0l0 0c2.1217346 0 4.156563 -0.84285736 5.6568527 -2.3431473c1.5002899 -1.5002899 2.3431473 -3.535118 2.3431473 -5.6568527l0 0c0 -4.4182816 -3.5817184 -8.0 -8.0 -8.0l0 0c-4.4182816 0 -8.0 3.5817184 -8.0 8.0z" fill-rule="evenodd"></path><defs><radialGradient id="p.43" gradientUnits="userSpaceOnUse" gradientTransform="matrix(3.3635856653478005 0.0 0.0 -3.3635856653478005 0.0 0.0)" spreadMethod="pad" cx="38.05462763106543" cy="-26.162556496357485" fx="38.05462763106543" fy="-26.162556496357485" r="3.3635857105255127"><stop offset="0.0" stop-color="#51ab2a"></stop><stop offset="1.0" stop-color="#203e13"></stop></radialGradient></defs><path fill="url(#p.43)" d="m120.0 88.0l0 0c0 4.4182816 3.5817184 8.0 8.0 8.0l0 0c2.1217346 0 4.1565704 -0.84285736 5.6568604 -2.3431473c1.5002899 -1.5002899 2.3431396 -3.535118 2.3431396 -5.6568527l0 0c0 -4.4182816 -3.581726 -8.0 -8.0 -8.0l0 0c-4.4182816 0 -8.0 3.5817184 -8.0 8.0z" fill-rule="evenodd"></path><path stroke="#000000" stroke-width="1.0" stroke-linejoin="round" stroke-linecap="butt" d="m120.0 88.0l0 0c0 4.4182816 3.5817184 8.0 8.0 8.0l0 0c2.1217346 0 4.1565704 -0.84285736 5.6568604 -2.3431473c1.5002899 -1.5002899 2.3431396 -3.535118 2.3431396 -5.6568527l0 0c0 -4.4182816 -3.581726 -8.0 -8.0 -8.0l0 0c-4.4182816 0 -8.0 3.5817184 -8.0 8.0z" fill-rule="evenodd"></path><defs><radialGradient id="p.44" gradientUnits="userSpaceOnUse" gradientTransform="matrix(3.3635856653478005 0.0 0.0 -3.3635856653478005 0.0 0.0)" spreadMethod="pad" cx="38.05462763106543" cy="-33.29779917718225" fx="38.05462763106543" fy="-33.29779917718225" r="3.3635857105255127"><stop offset="0.0" stop-color="#3177ee"></stop><stop offset="1.0" stop-color="#113d8a"></stop></radialGradient></defs><path fill="url(#p.44)" d="m120.0 112.0l0 0c0 4.4182816 3.5817184 8.0 8.0 8.0l0 0c2.1217346 0 4.1565704 -0.84285736 5.6568604 -2.3431473c1.5002899 -1.5002899 2.3431396 -3.535118 2.3431396 -5.6568527l0 0c0 -4.4182816 -3.581726 -8.0 -8.0 -8.0l0 0c-4.4182816 0 -8.0 3.5817184 -8.0 8.0z" fill-rule="evenodd"></path><path stroke="#000000" stroke-width="1.0" stroke-linejoin="round" stroke-linecap="butt" d="m120.0 112.0l0 0c0 4.4182816 3.5817184 8.0 8.0 8.0l0 0c2.1217346 0 4.1565704 -0.84285736 5.6568604 -2.3431473c1.5002899 -1.5002899 2.3431396 -3.535118 2.3431396 -5.6568527l0 0c0 -4.4182816 -3.581726 -8.0 -8.0 -8.0l0 0c-4.4182816 0 -8.0 3.5817184 -8.0 8.0z" fill-rule="evenodd"></path><defs><linearGradient id="p.45" gradientUnits="userSpaceOnUse" gradientTransform="matrix(-7.48333052929685 0.0 0.0 -7.48333052929685 0.0 0.0)" spreadMethod="pad" x1="-19.242768902996797" y1="-9.621415962917885" x2="-19.242794934169417" y2="-2.138085433666311"><stop offset="0.0" stop-color="#ffffff"></stop><stop offset="1.0" stop-color="#b3b3b3"></stop></linearGradient></defs><path fill="url(#p.45)" d="m144.0 72.0l-64.0 0l0 -56.0l64.0 0z" fill-rule="evenodd"></path><path stroke="#000000" stroke-width="1.0" stroke-linejoin="round" stroke-linecap="butt" d="m144.0 72.0l-64.0 0l0 -56.0l64.0 0z" fill-rule="evenodd"></path><defs><radialGradient id="p.46" gradientUnits="userSpaceOnUse" gradientTransform="matrix(-3.3635856653478005 0.0 0.0 -3.3635856653478005 0.0 0.0)" spreadMethod="pad" cx="-38.05462763106543" cy="-9.513656907766357" fx="-38.05462763106543" fy="-9.513656907766357" r="3.3635857105255127"><stop offset="0.0" stop-color="#db0000"></stop><stop offset="1.0" stop-color="#540303"></stop></radialGradient></defs><path fill="url(#p.46)" d="m136.0 32.0l0 0c0 4.4182777 -3.581726 8.0 -8.0 8.0l0 0c-2.1217346 0 -4.156563 -0.84285355 -5.6568527 -2.3431473c-1.5002899 -1.5002899 -2.3431473 -3.535122 -2.3431473 -5.6568527l0 0c0 -4.4182777 3.5817184 -8.0 8.0 -8.0l0 0c4.418274 0 8.0 3.5817223 8.0 8.0z" fill-rule="evenodd"></path><path stroke="#000000" stroke-width="1.0" stroke-linejoin="round" stroke-linecap="butt" d="m136.0 32.0l0 0c0 4.4182777 -3.581726 8.0 -8.0 8.0l0 0c-2.1217346 0 -4.156563 -0.84285355 -5.6568527 -2.3431473c-1.5002899 -1.5002899 -2.3431473 -3.535122 -2.3431473 -5.6568527l0 0c0 -4.4182777 3.5817184 -8.0 8.0 -8.0l0 0c4.418274 0 8.0 3.5817223 8.0 8.0z" fill-rule="evenodd"></path><defs><radialGradient id="p.47" gradientUnits="userSpaceOnUse" gradientTransform="matrix(-3.3635856653478005 0.0 0.0 -3.3635856653478005 0.0 0.0)" spreadMethod="pad" cx="-28.540970723299072" cy="-9.513656907766357" fx="-28.540970723299072" fy="-9.513656907766357" r="3.3635857105255127"><stop offset="0.0" stop-color="#51ab2a"></stop><stop offset="1.0" stop-color="#203e13"></stop></radialGradient></defs><path fill="url(#p.47)" d="m104.0 32.0l0 0c0 4.4182777 -3.5817184 8.0 -8.0 8.0l0 0c-2.1217346 0 -4.156563 -0.84285355 -5.6568527 -2.3431473c-1.5002899 -1.5002899 -2.3431473 -3.535122 -2.3431473 -5.6568527l0 0c0 -4.4182777 3.5817184 -8.0 8.0 -8.0l0 0c4.4182816 0 8.0 3.5817223 8.0 8.0z" fill-rule="evenodd"></path><path stroke="#000000" stroke-width="1.0" stroke-linejoin="round" stroke-linecap="butt" d="m104.0 32.0l0 0c0 4.4182777 -3.5817184 8.0 -8.0 8.0l0 0c-2.1217346 0 -4.156563 -0.84285355 -5.6568527 -2.3431473c-1.5002899 -1.5002899 -2.3431473 -3.535122 -2.3431473 -5.6568527l0 0c0 -4.4182777 3.5817184 -8.0 8.0 -8.0l0 0c4.4182816 0 8.0 3.5817223 8.0 8.0z" fill-rule="evenodd"></path><defs><radialGradient id="p.48" gradientUnits="userSpaceOnUse" gradientTransform="matrix(-3.3635856653478005 0.0 0.0 -3.3635856653478005 0.0 0.0)" spreadMethod="pad" cx="-28.540970723299072" cy="-16.648899588591124" fx="-28.540970723299072" fy="-16.648899588591124" r="3.3635857105255127"><stop offset="0.0" stop-color="#3177ee"></stop><stop offset="1.0" stop-color="#113d8a"></stop></radialGradient></defs><path fill="url(#p.48)" d="m104.0 56.0l0 0c0 4.4182777 -3.5817184 8.0 -8.0 8.0l0 0c-2.1217346 0 -4.156563 -0.84285355 -5.6568527 -2.3431473c-1.5002899 -1.5002899 -2.3431473 -3.535122 -2.3431473 -5.6568527l0 0c0 -4.4182777 3.5817184 -8.0 8.0 -8.0l0 0c4.4182816 0 8.0 3.5817223 8.0 8.0z" fill-rule="evenodd"></path><path stroke="#000000" stroke-width="1.0" stroke-linejoin="round" stroke-linecap="butt" d="m104.0 56.0l0 0c0 4.4182777 -3.5817184 8.0 -8.0 8.0l0 0c-2.1217346 0 -4.156563 -0.84285355 -5.6568527 -2.3431473c-1.5002899 -1.5002899 -2.3431473 -3.535122 -2.3431473 -5.6568527l0 0c0 -4.4182777 3.5817184 -8.0 8.0 -8.0l0 0c4.4182816 0 8.0 3.5817223 8.0 8.0z" fill-rule="evenodd"></path><defs><linearGradient id="p.49" gradientUnits="userSpaceOnUse" gradientTransform="matrix(7.483330186783859 0.0 0.0 7.483330186783859 0.0 0.0)" spreadMethod="pad" x1="19.242769783740822" y1="9.621354065480373" x2="19.242742382505234" y2="17.104684252214064"><stop offset="0.0" stop-color="#ffffff"></stop><stop offset="1.0" stop-color="#b3b3b3"></stop></linearGradient></defs><path fill="url(#p.49)" d="m144.0 72.0l64.0 0l0 56.0l-64.0 0z" fill-rule="evenodd"></path><path stroke="#000000" stroke-width="1.0" stroke-linejoin="round" stroke-linecap="butt" d="m144.0 72.0l64.0 0l0 56.0l-64.0 0z" fill-rule="evenodd"></path><defs><radialGradient id="p.50" gradientUnits="userSpaceOnUse" gradientTransform="matrix(3.3635856653478005 0.0 0.0 3.3635856653478005 0.0 0.0)" spreadMethod="pad" cx="47.56828453883179" cy="33.29779917718225" fx="47.56828453883179" fy="33.29779917718225" r="3.3635857105255127"><stop offset="0.0" stop-color="#db0000"></stop><stop offset="1.0" stop-color="#540303"></stop></radialGradient></defs><path fill="url(#p.50)" d="m152.0 112.0l0 0c0 -4.4182816 3.581726 -8.0 8.0 -8.0l0 0c2.1217346 0 4.1565704 0.84285736 5.6568604 2.3431473c1.5002899 1.5002899 2.3431396 3.535118 2.3431396 5.6568527l0 0c0 4.4182816 -3.581726 8.0 -8.0 8.0l0 0c-4.418274 0 -8.0 -3.5817184 -8.0 -8.0z" fill-rule="evenodd"></path><path stroke="#000000" stroke-width="1.0" stroke-linejoin="round" stroke-linecap="butt" d="m152.0 112.0l0 0c0 -4.4182816 3.581726 -8.0 8.0 -8.0l0 0c2.1217346 0 4.1565704 0.84285736 5.6568604 2.3431473c1.5002899 1.5002899 2.3431396 3.535118 2.3431396 5.6568527l0 0c0 4.4182816 -3.581726 8.0 -8.0 8.0l0 0c-4.418274 0 -8.0 -3.5817184 -8.0 -8.0z" fill-rule="evenodd"></path><defs><radialGradient id="p.51" gradientUnits="userSpaceOnUse" gradientTransform="matrix(3.3635856653478005 0.0 0.0 3.3635856653478005 0.0 0.0)" spreadMethod="pad" cx="57.081941446598144" cy="33.29779917718225" fx="57.081941446598144" fy="33.29779917718225" r="3.3635857105255127"><stop offset="0.0" stop-color="#51ab2a"></stop><stop offset="1.0" stop-color="#203e13"></stop></radialGradient></defs><path fill="url(#p.51)" d="m184.0 112.0l0 0c0 -4.4182816 3.581726 -8.0 8.0 -8.0l0 0c2.1217346 0 4.1565704 0.84285736 5.6568604 2.3431473c1.5002899 1.5002899 2.3431396 3.535118 2.3431396 5.6568527l0 0c0 4.4182816 -3.581726 8.0 -8.0 8.0l0 0c-4.418274 0 -8.0 -3.5817184 -8.0 -8.0z" fill-rule="evenodd"></path><path stroke="#000000" stroke-width="1.0" stroke-linejoin="round" stroke-linecap="butt" d="m184.0 112.0l0 0c0 -4.4182816 3.581726 -8.0 8.0 -8.0l0 0c2.1217346 0 4.1565704 0.84285736 5.6568604 2.3431473c1.5002899 1.5002899 2.3431396 3.535118 2.3431396 5.6568527l0 0c0 4.4182816 -3.581726 8.0 -8.0 8.0l0 0c-4.418274 0 -8.0 -3.5817184 -8.0 -8.0z" fill-rule="evenodd"></path><defs><radialGradient id="p.52" gradientUnits="userSpaceOnUse" gradientTransform="matrix(3.3635856653478005 0.0 0.0 3.3635856653478005 0.0 0.0)" spreadMethod="pad" cx="57.081941446598144" cy="26.162556496357485" fx="57.081941446598144" fy="26.162556496357485" r="3.3635857105255127"><stop offset="0.0" stop-color="#3177ee"></stop><stop offset="1.0" stop-color="#113d8a"></stop></radialGradient></defs><path fill="url(#p.52)" d="m184.0 88.0l0 0c0 -4.4182816 3.581726 -8.0 8.0 -8.0l0 0c2.1217346 0 4.1565704 0.84285736 5.6568604 2.3431473c1.5002899 1.5002899 2.3431396 3.535118 2.3431396 5.6568527l0 0c0 4.4182816 -3.581726 8.0 -8.0 8.0l0 0c-4.418274 0 -8.0 -3.5817184 -8.0 -8.0z" fill-rule="evenodd"></path><path stroke="#000000" stroke-width="1.0" stroke-linejoin="round" stroke-linecap="butt" d="m184.0 88.0l0 0c0 -4.4182816 3.581726 -8.0 8.0 -8.0l0 0c2.1217346 0 4.1565704 0.84285736 5.6568604 2.3431473c1.5002899 1.5002899 2.3431396 3.535118 2.3431396 5.6568527l0 0c0 4.4182816 -3.581726 8.0 -8.0 8.0l0 0c-4.418274 0 -8.0 -3.5817184 -8.0 -8.0z" fill-rule="evenodd"></path><defs><linearGradient id="p.53" gradientUnits="userSpaceOnUse" gradientTransform="matrix(-7.4833302724127195 0.0 0.0 7.4833302724127195 0.0 0.0)" spreadMethod="pad" x1="-27.795111591799113" y1="2.138054509414065" x2="-27.79513899303439" y2="9.621384781776616"><stop offset="0.0" stop-color="#ffffff"></stop><stop offset="1.0" stop-color="#b3b3b3"></stop></linearGradient></defs><path fill="url(#p.53)" d="m208.0 16.0l-64.0 0l0 56.0l64.0 0z" fill-rule="evenodd"></path><path stroke="#000000" stroke-width="1.0" stroke-linejoin="round" stroke-linecap="butt" d="m208.0 16.0l-64.0 0l0 56.0l64.0 0z" fill-rule="evenodd"></path><defs><radialGradient id="p.54" gradientUnits="userSpaceOnUse" gradientTransform="matrix(-3.3635856653478005 0.0 0.0 3.3635856653478005 0.0 0.0)" spreadMethod="pad" cx="-57.081941446598144" cy="16.648899588591124" fx="-57.081941446598144" fy="16.648899588591124" r="3.3635857105255127"><stop offset="0.0" stop-color="#db0000"></stop><stop offset="1.0" stop-color="#540303"></stop></radialGradient></defs><path fill="url(#p.54)" d="m200.0 56.0l0 0c0 -4.4182777 -3.581726 -8.0 -8.0 -8.0l0 0c-2.1217346 0 -4.1565704 0.84285355 -5.6568604 2.3431473c-1.5002899 1.5002899 -2.3431396 3.535122 -2.3431396 5.6568527l0 0c0 4.4182777 3.581726 8.0 8.0 8.0l0 0c4.418274 0 8.0 -3.5817223 8.0 -8.0z" fill-rule="evenodd"></path><path stroke="#000000" stroke-width="1.0" stroke-linejoin="round" stroke-linecap="butt" d="m200.0 56.0l0 0c0 -4.4182777 -3.581726 -8.0 -8.0 -8.0l0 0c-2.1217346 0 -4.1565704 0.84285355 -5.6568604 2.3431473c-1.5002899 1.5002899 -2.3431396 3.535122 -2.3431396 5.6568527l0 0c0 4.4182777 3.581726 8.0 8.0 8.0l0 0c4.418274 0 8.0 -3.5817223 8.0 -8.0z" fill-rule="evenodd"></path><defs><radialGradient id="p.55" gradientUnits="userSpaceOnUse" gradientTransform="matrix(-3.3635856653478005 0.0 0.0 3.3635856653478005 0.0 0.0)" spreadMethod="pad" cx="-47.56828453883179" cy="16.648899588591124" fx="-47.56828453883179" fy="16.648899588591124" r="3.3635857105255127"><stop offset="0.0" stop-color="#51ab2a"></stop><stop offset="1.0" stop-color="#203e13"></stop></radialGradient></defs><path fill="url(#p.55)" d="m168.0 56.0l0 0c0 -4.4182777 -3.581726 -8.0 -8.0 -8.0l0 0c-2.1217346 0 -4.1565704 0.84285355 -5.6568604 2.3431473c-1.5002899 1.5002899 -2.3431396 3.535122 -2.3431396 5.6568527l0 0c0 4.4182777 3.581726 8.0 8.0 8.0l0 0c4.418274 0 8.0 -3.5817223 8.0 -8.0z" fill-rule="evenodd"></path><path stroke="#000000" stroke-width="1.0" stroke-linejoin="round" stroke-linecap="butt" d="m168.0 56.0l0 0c0 -4.4182777 -3.581726 -8.0 -8.0 -8.0l0 0c-2.1217346 0 -4.1565704 0.84285355 -5.6568604 2.3431473c-1.5002899 1.5002899 -2.3431396 3.535122 -2.3431396 5.6568527l0 0c0 4.4182777 3.581726 8.0 8.0 8.0l0 0c4.418274 0 8.0 -3.5817223 8.0 -8.0z" fill-rule="evenodd"></path><defs><radialGradient id="p.56" gradientUnits="userSpaceOnUse" gradientTransform="matrix(-3.3635856653478005 0.0 0.0 3.3635856653478005 0.0 0.0)" spreadMethod="pad" cx="-47.56828453883179" cy="9.513656907766357" fx="-47.56828453883179" fy="9.513656907766357" r="3.3635857105255127"><stop offset="0.0" stop-color="#3177ee"></stop><stop offset="1.0" stop-color="#113d8a"></stop></radialGradient></defs><path fill="url(#p.56)" d="m168.0 32.0l0 0c0 -4.4182777 -3.581726 -8.0 -8.0 -8.0l0 0c-2.1217346 0 -4.1565704 0.84285545 -5.6568604 2.3431454c-1.5002899 1.5002918 -2.3431396 3.535122 -2.3431396 5.6568546l0 0c0 4.4182777 3.581726 8.0 8.0 8.0l0 0c4.418274 0 8.0 -3.5817223 8.0 -8.0z" fill-rule="evenodd"></path><path stroke="#000000" stroke-width="1.0" stroke-linejoin="round" stroke-linecap="butt" d="m168.0 32.0l0 0c0 -4.4182777 -3.581726 -8.0 -8.0 -8.0l0 0c-2.1217346 0 -4.1565704 0.84285545 -5.6568604 2.3431454c-1.5002899 1.5002918 -2.3431396 3.535122 -2.3431396 5.6568546l0 0c0 4.4182777 3.581726 8.0 8.0 8.0l0 0c4.418274 0 8.0 -3.5817223 8.0 -8.0z" fill-rule="evenodd"></path><defs><linearGradient id="p.57" gradientUnits="userSpaceOnUse" gradientTransform="matrix(7.483330529299295 0.0 0.0 -7.483330529299295 0.0 0.0)" spreadMethod="pad" x1="27.79511063765296" y1="-17.104714980744383" x2="27.795083236418627" y2="-9.621384451495256"><stop offset="0.0" stop-color="#ffffff"></stop><stop offset="1.0" stop-color="#b3b3b3"></stop></linearGradient></defs><path fill="url(#p.57)" d="m208.0 128.0l64.0 0l0 -56.0l-64.0 0z" fill-rule="evenodd"></path><path stroke="#000000" stroke-width="1.0" stroke-linejoin="round" stroke-linecap="butt" d="m208.0 128.0l64.0 0l0 -56.0l-64.0 0z" fill-rule="evenodd"></path><defs><radialGradient id="p.58" gradientUnits="userSpaceOnUse" gradientTransform="matrix(3.3635856653478005 0.0 0.0 -3.3635856653478005 0.0 0.0)" spreadMethod="pad" cx="66.5955983543645" cy="-26.162556496357485" fx="66.5955983543645" fy="-26.162556496357485" r="3.3635857105255127"><stop offset="0.0" stop-color="#db0000"></stop><stop offset="1.0" stop-color="#540303"></stop></radialGradient></defs><path fill="url(#p.58)" d="m216.0 88.0l0 0c0 4.4182816 3.581726 8.0 8.0 8.0l0 0c2.1217346 0 4.1565704 -0.84285736 5.6568604 -2.3431473c1.5002899 -1.5002899 2.3431396 -3.535118 2.3431396 -5.6568527l0 0c0 -4.4182816 -3.581726 -8.0 -8.0 -8.0l0 0c-4.418274 0 -8.0 3.5817184 -8.0 8.0z" fill-rule="evenodd"></path><path stroke="#000000" stroke-width="1.0" stroke-linejoin="round" stroke-linecap="butt" d="m216.0 88.0l0 0c0 4.4182816 3.581726 8.0 8.0 8.0l0 0c2.1217346 0 4.1565704 -0.84285736 5.6568604 -2.3431473c1.5002899 -1.5002899 2.3431396 -3.535118 2.3431396 -5.6568527l0 0c0 -4.4182816 -3.581726 -8.0 -8.0 -8.0l0 0c-4.418274 0 -8.0 3.5817184 -8.0 8.0z" fill-rule="evenodd"></path><defs><radialGradient id="p.59" gradientUnits="userSpaceOnUse" gradientTransform="matrix(3.3635856653478005 0.0 0.0 -3.3635856653478005 0.0 0.0)" spreadMethod="pad" cx="76.10925526213086" cy="-26.162556496357485" fx="76.10925526213086" fy="-26.162556496357485" r="3.3635857105255127"><stop offset="0.0" stop-color="#51ab2a"></stop><stop offset="1.0" stop-color="#203e13"></stop></radialGradient></defs><path fill="url(#p.59)" d="m248.0 88.0l0 0c0 4.4182816 3.581726 8.0 8.0 8.0l0 0c2.1217346 0 4.156555 -0.84285736 5.6568604 -2.3431473c1.5002747 -1.5002899 2.3431396 -3.535118 2.3431396 -5.6568527l0 0c0 -4.4182816 -3.581726 -8.0 -8.0 -8.0l0 0c-4.418274 0 -8.0 3.5817184 -8.0 8.0z" fill-rule="evenodd"></path><path stroke="#000000" stroke-width="1.0" stroke-linejoin="round" stroke-linecap="butt" d="m248.0 88.0l0 0c0 4.4182816 3.581726 8.0 8.0 8.0l0 0c2.1217346 0 4.156555 -0.84285736 5.6568604 -2.3431473c1.5002747 -1.5002899 2.3431396 -3.535118 2.3431396 -5.6568527l0 0c0 -4.4182816 -3.581726 -8.0 -8.0 -8.0l0 0c-4.418274 0 -8.0 3.5817184 -8.0 8.0z" fill-rule="evenodd"></path><defs><radialGradient id="p.60" gradientUnits="userSpaceOnUse" gradientTransform="matrix(3.3635856653478005 0.0 0.0 -3.3635856653478005 0.0 0.0)" spreadMethod="pad" cx="76.10925526213086" cy="-33.29779917718225" fx="76.10925526213086" fy="-33.29779917718225" r="3.3635857105255127"><stop offset="0.0" stop-color="#3177ee"></stop><stop offset="1.0" stop-color="#113d8a"></stop></radialGradient></defs><path fill="url(#p.60)" d="m248.0 112.0l0 0c0 4.4182816 3.581726 8.0 8.0 8.0l0 0c2.1217346 0 4.156555 -0.84285736 5.6568604 -2.3431473c1.5002747 -1.5002899 2.3431396 -3.535118 2.3431396 -5.6568527l0 0c0 -4.4182816 -3.581726 -8.0 -8.0 -8.0l0 0c-4.418274 0 -8.0 3.5817184 -8.0 8.0z" fill-rule="evenodd"></path><path stroke="#000000" stroke-width="1.0" stroke-linejoin="round" stroke-linecap="butt" d="m248.0 112.0l0 0c0 4.4182816 3.581726 8.0 8.0 8.0l0 0c2.1217346 0 4.156555 -0.84285736 5.6568604 -2.3431473c1.5002747 -1.5002899 2.3431396 -3.535118 2.3431396 -5.6568527l0 0c0 -4.4182816 -3.581726 -8.0 -8.0 -8.0l0 0c-4.418274 0 -8.0 3.5817184 -8.0 8.0z" fill-rule="evenodd"></path><defs><linearGradient id="p.61" gradientUnits="userSpaceOnUse" gradientTransform="matrix(-7.483330186783859 0.0 0.0 -7.483330186783859 0.0 0.0)" spreadMethod="pad" x1="-36.34745403595488" y1="-9.62141571826045" x2="-36.347481437190474" y2="-2.138085531526758"><stop offset="0.0" stop-color="#ffffff"></stop><stop offset="1.0" stop-color="#b3b3b3"></stop></linearGradient></defs><path fill="url(#p.61)" d="m272.0 72.0l-64.0 0l0 -56.0l64.0 0z" fill-rule="evenodd"></path><path stroke="#000000" stroke-width="1.0" stroke-linejoin="round" stroke-linecap="butt" d="m272.0 72.0l-64.0 0l0 -56.0l64.0 0z" fill-rule="evenodd"></path><defs><radialGradient id="p.62" gradientUnits="userSpaceOnUse" gradientTransform="matrix(-3.3635856653478005 0.0 0.0 -3.3635856653478005 0.0 0.0)" spreadMethod="pad" cx="-76.10925526213086" cy="-9.513656907766357" fx="-76.10925526213086" fy="-9.513656907766357" r="3.3635857105255127"><stop offset="0.0" stop-color="#db0000"></stop><stop offset="1.0" stop-color="#540303"></stop></radialGradient></defs><path fill="url(#p.62)" d="m264.0 32.0l0 0c0 4.4182777 -3.581726 8.0 -8.0 8.0l0 0c-2.1217346 0 -4.1565704 -0.84285355 -5.6568604 -2.3431473c-1.5002899 -1.5002899 -2.3431396 -3.535122 -2.3431396 -5.6568527l0 0c0 -4.4182777 3.581726 -8.0 8.0 -8.0l0 0c4.418274 0 8.0 3.5817223 8.0 8.0z" fill-rule="evenodd"></path><path stroke="#000000" stroke-width="1.0" stroke-linejoin="round" stroke-linecap="butt" d="m264.0 32.0l0 0c0 4.4182777 -3.581726 8.0 -8.0 8.0l0 0c-2.1217346 0 -4.1565704 -0.84285355 -5.6568604 -2.3431473c-1.5002899 -1.5002899 -2.3431396 -3.535122 -2.3431396 -5.6568527l0 0c0 -4.4182777 3.581726 -8.0 8.0 -8.0l0 0c4.418274 0 8.0 3.5817223 8.0 8.0z" fill-rule="evenodd"></path><defs><radialGradient id="p.63" gradientUnits="userSpaceOnUse" gradientTransform="matrix(-3.3635856653478005 0.0 0.0 -3.3635856653478005 0.0 0.0)" spreadMethod="pad" cx="-66.5955983543645" cy="-9.513656907766357" fx="-66.5955983543645" fy="-9.513656907766357" r="3.3635857105255127"><stop offset="0.0" stop-color="#51ab2a"></stop><stop offset="1.0" stop-color="#203e13"></stop></radialGradient></defs><path fill="url(#p.63)" d="m232.0 32.0l0 0c0 4.4182777 -3.581726 8.0 -8.0 8.0l0 0c-2.1217346 0 -4.1565704 -0.84285355 -5.6568604 -2.3431473c-1.5002899 -1.5002899 -2.3431396 -3.535122 -2.3431396 -5.6568527l0 0c0 -4.4182777 3.581726 -8.0 8.0 -8.0l0 0c4.418274 0 8.0 3.5817223 8.0 8.0z" fill-rule="evenodd"></path><path stroke="#000000" stroke-width="1.0" stroke-linejoin="round" stroke-linecap="butt" d="m232.0 32.0l0 0c0 4.4182777 -3.581726 8.0 -8.0 8.0l0 0c-2.1217346 0 -4.1565704 -0.84285355 -5.6568604 -2.3431473c-1.5002899 -1.5002899 -2.3431396 -3.535122 -2.3431396 -5.6568527l0 0c0 -4.4182777 3.581726 -8.0 8.0 -8.0l0 0c4.418274 0 8.0 3.5817223 8.0 8.0z" fill-rule="evenodd"></path><defs><radialGradient id="p.64" gradientUnits="userSpaceOnUse" gradientTransform="matrix(-3.3635856653478005 0.0 0.0 -3.3635856653478005 0.0 0.0)" spreadMethod="pad" cx="-66.5955983543645" cy="-16.648899588591124" fx="-66.5955983543645" fy="-16.648899588591124" r="3.3635857105255127"><stop offset="0.0" stop-color="#3177ee"></stop><stop offset="1.0" stop-color="#113d8a"></stop></radialGradient></defs><path fill="url(#p.64)" d="m232.0 56.0l0 0c0 4.4182777 -3.581726 8.0 -8.0 8.0l0 0c-2.1217346 0 -4.1565704 -0.84285355 -5.6568604 -2.3431473c-1.5002899 -1.5002899 -2.3431396 -3.535122 -2.3431396 -5.6568527l0 0c0 -4.4182777 3.581726 -8.0 8.0 -8.0l0 0c4.418274 0 8.0 3.5817223 8.0 8.0z" fill-rule="evenodd"></path><path stroke="#000000" stroke-width="1.0" stroke-linejoin="round" stroke-linecap="butt" d="m232.0 56.0l0 0c0 4.4182777 -3.581726 8.0 -8.0 8.0l0 0c-2.1217346 0 -4.1565704 -0.84285355 -5.6568604 -2.3431473c-1.5002899 -1.5002899 -2.3431396 -3.535122 -2.3431396 -5.6568527l0 0c0 -4.4182777 3.581726 -8.0 8.0 -8.0l0 0c4.418274 0 8.0 3.5817223 8.0 8.0z" fill-rule="evenodd"></path></g></svg>

