<?xml version="1.0" encoding="UTF-8" standalone="no"?>
<!DOCTYPE svg PUBLIC "-//W3C//DTD SVG 1.1//EN"
 "http://www.w3.org/Graphics/SVG/1.1/DTD/svg11.dtd">
<!-- Generated by graphviz version 2.36.0 (20140111.2315)
 -->
<!-- Title: dgbh Pages: 1 -->
<svg width="890pt" height="705pt"
 viewBox="0.00 0.00 890.00 705.00" xmlns="http://www.w3.org/2000/svg" xmlns:xlink="http://www.w3.org/1999/xlink">
<g id="graph0" class="graph" transform="scale(1 1) rotate(0) translate(4 701)">
<title>dgbh</title>
<polygon fill="white" stroke="none" points="-4,4 -4,-701 886,-701 886,4 -4,4"/>
<g id="clust1" class="cluster"><title>clustersgbasin</title>
<polygon fill="none" stroke="black" points="8,-8 8,-689 453,-689 453,-8 8,-8"/>
<text text-anchor="middle" x="230.5" y="-673.8" font-family="Times,serif" font-size="14.00">Basin&#45;hopping</text>
<text text-anchor="middle" x="230.5" y="-658.8" font-family="Times,serif" font-size="14.00">(global optimiziation)</text>
</g>
<g id="clust2" class="cluster"><title>clustersgupdx</title>
<polygon fill="none" stroke="black" points="34,-16 34,-199 318,-199 318,-16 34,-16"/>
<text text-anchor="middle" x="176" y="-183.8" font-family="Times,serif" font-size="14.00">Update results list</text>
</g>
<g id="clust3" class="cluster"><title>clustersgranmv</title>
<polygon fill="none" stroke="black" points="136,-401 136,-494 445,-494 445,-401 136,-401"/>
<text text-anchor="middle" x="290.5" y="-478.8" font-family="Times,serif" font-size="14.00">Random move (type and targets chosen at random)</text>
</g>
<g id="clust4" class="cluster"><title>clustersgrelax</title>
<polygon fill="none" stroke="black" points="461,-115 461,-500 643,-500 643,-115 461,-115"/>
<text text-anchor="middle" x="552" y="-484.8" font-family="Times,serif" font-size="14.00">L&#45;BFGS&#45;B</text>
<text text-anchor="middle" x="552" y="-469.8" font-family="Times,serif" font-size="14.00">(local optimization)</text>
</g>
<g id="clust5" class="cluster"><title>clustersgobjfunc</title>
<polygon fill="none" stroke="black" points="656,-25 656,-599 874,-599 874,-25 656,-25"/>
<text text-anchor="middle" x="765" y="-583.8" font-family="Times,serif" font-size="14.00">Objective</text>
<text text-anchor="middle" x="765" y="-568.8" font-family="Times,serif" font-size="14.00">function</text>
</g>
<!-- bhstart -->
<g id="node1" class="node"><title>bhstart</title>
<ellipse fill="#c0e5b7" stroke="#c0e5b7" cx="295" cy="-625" rx="26.949" ry="18"/>
<text text-anchor="middle" x="295" y="-621.3" font-family="Times,serif" font-size="14.00">Start</text>
</g>
<!-- bhinitrelax -->
<g id="node2" class="node"><title>bhinitrelax</title>
<ellipse fill="none" stroke="black" cx="295" cy="-535" rx="50.3073" ry="26.7407"/>
<text text-anchor="middle" x="295" y="-538.8" font-family="Times,serif" font-size="14.00">Initial</text>
<text text-anchor="middle" x="295" y="-523.8" font-family="Times,serif" font-size="14.00">relaxation</text>
</g>
<!-- bhstart&#45;&gt;bhinitrelax -->
<g id="edge1" class="edge"><title>bhstart&#45;&gt;bhinitrelax</title>
<path fill="none" stroke="black" d="M295,-606.614C295,-596.774 295,-584.089 295,-572.191"/>
<polygon fill="black" stroke="black" points="298.5,-572.029 295,-562.029 291.5,-572.029 298.5,-572.029"/>
</g>
<!-- bhguess -->
<g id="node3" class="node"><title>bhguess</title>
<polygon fill="none" stroke="black" points="108,-454 16,-454 16,-418 108,-418 108,-454"/>
<text text-anchor="middle" x="62" y="-432.3" font-family="Times,serif" font-size="14.00">Current guess</text>
</g>
<!-- bhinitrelax&#45;&gt;bhguess -->
<g id="edge2" class="edge"><title>bhinitrelax&#45;&gt;bhguess</title>
<path fill="none" stroke="red" d="M245.11,-531.303C210.316,-527.702 163.73,-519.343 127,-500 109.497,-490.782 93.4916,-475.398 81.7426,-462.14"/>
<polygon fill="red" stroke="red" points="84.1532,-459.572 75.0019,-454.233 78.8264,-464.114 84.1532,-459.572"/>
</g>
<!-- bhranf2 -->
<g id="node14" class="node"><title>bhranf2</title>
<ellipse fill="none" stroke="black" cx="295" cy="-436" rx="35.0343" ry="26.7407"/>
<text text-anchor="middle" x="295" y="-439.8" font-family="Times,serif" font-size="14.00">Move</text>
<text text-anchor="middle" x="295" y="-424.8" font-family="Times,serif" font-size="14.00">atoms</text>
</g>
<!-- bhinitrelax&#45;&gt;bhranf2 -->
<g id="edge19" class="edge"><title>bhinitrelax&#45;&gt;bhranf2</title>
<path fill="none" stroke="black" d="M295,-508.006C295,-506.741 295,-505.451 295,-504.139"/>
<polygon fill="black" stroke="black" points="298.5,-503.739 295,-493.739 291.5,-503.739 298.5,-503.739"/>
</g>
<!-- rxstart -->
<g id="node16" class="node"><title>rxstart</title>
<ellipse fill="#c0e5b7" stroke="#c0e5b7" cx="517" cy="-436" rx="26.949" ry="18"/>
<text text-anchor="middle" x="517" y="-432.3" font-family="Times,serif" font-size="14.00">Start</text>
</g>
<!-- bhinitrelax&#45;&gt;rxstart -->
<g id="edge24" class="edge"><title>bhinitrelax&#45;&gt;rxstart</title>
<path fill="none" stroke="red" d="M354.594,-528.406C383.181,-524.397 417.513,-516.862 452.084,-499.357"/>
<path fill="none" stroke="blue" d="M354.871,-530.386C383.609,-526.35 417.942,-518.816 452.986,-501.142"/>
<polygon fill="blue" stroke="blue" points="353.933,-525.97 344.464,-530.723 354.831,-532.912 353.933,-525.97"/>
<polygon fill="red" stroke="red" points="454.194,-503.332 461.391,-495.557 450.916,-497.146 454.194,-503.332"/>
</g>
<!-- bhranf3 -->
<g id="node15" class="node"><title>bhranf3</title>
<ellipse fill="none" stroke="black" cx="184" cy="-436" rx="39.3965" ry="26.7407"/>
<text text-anchor="middle" x="184" y="-439.8" font-family="Times,serif" font-size="14.00">Move</text>
<text text-anchor="middle" x="184" y="-424.8" font-family="Times,serif" font-size="14.00">vectors</text>
</g>
<!-- bhguess&#45;&gt;bhranf3 -->
<g id="edge20" class="edge"><title>bhguess&#45;&gt;bhranf3</title>
<path fill="none" stroke="blue" d="M108.227,-436C116.949,-436 125.671,-436 134.394,-436"/>
<polygon fill="blue" stroke="blue" points="126,-439.501 136,-436 126,-432.501 126,-439.501"/>
</g>
<!-- bhrelax -->
<g id="node4" class="node"><title>bhrelax</title>
<ellipse fill="none" stroke="black" cx="276" cy="-346" rx="63.5411" ry="18"/>
<text text-anchor="middle" x="276" y="-342.3" font-family="Times,serif" font-size="14.00">Relax new cell</text>
</g>
<!-- bhaccrej -->
<g id="node5" class="node"><title>bhaccrej</title>
<ellipse fill="none" stroke="black" cx="78" cy="-245" rx="56.9149" ry="26.7407"/>
<text text-anchor="middle" x="78" y="-248.8" font-family="Times,serif" font-size="14.00">Accept or</text>
<text text-anchor="middle" x="78" y="-233.8" font-family="Times,serif" font-size="14.00">reject move</text>
</g>
<!-- bhrelax&#45;&gt;bhaccrej -->
<g id="edge3" class="edge"><title>bhrelax&#45;&gt;bhaccrej</title>
<path fill="none" stroke="black" d="M245.928,-329.964C213.914,-313.957 162.81,-288.405 125.377,-269.688"/>
<polygon fill="black" stroke="black" points="126.684,-266.429 116.175,-265.087 123.554,-272.69 126.684,-266.429"/>
</g>
<!-- bhaccrej&#45;&gt;bhguess -->
<g id="edge7" class="edge"><title>bhaccrej&#45;&gt;bhguess</title>
<path fill="none" stroke="red" d="M75.7845,-272.17C72.7679,-307.804 67.3931,-371.294 64.3221,-407.57"/>
<polygon fill="red" stroke="red" points="60.8042,-407.635 63.4481,-417.894 67.7793,-408.225 60.8042,-407.635"/>
</g>
<!-- bhcheck -->
<g id="node6" class="node"><title>bhcheck</title>
<ellipse fill="none" stroke="black" cx="377" cy="-245" rx="55.3436" ry="18"/>
<text text-anchor="middle" x="377" y="-241.3" font-family="Times,serif" font-size="14.00">Check status</text>
</g>
<!-- bhaccrej&#45;&gt;bhcheck -->
<g id="edge4" class="edge"><title>bhaccrej&#45;&gt;bhcheck</title>
<path fill="none" stroke="black" d="M135.23,-245C193.855,-245 252.48,-245 311.105,-245"/>
<polygon fill="black" stroke="black" points="311.28,-248.5 321.28,-245 311.28,-241.5 311.28,-248.5"/>
</g>
<!-- bhupdate1 -->
<g id="node9" class="node"><title>bhupdate1</title>
<ellipse fill="none" stroke="black" cx="78" cy="-141" rx="30.1093" ry="26.7407"/>
<text text-anchor="middle" x="78" y="-144.8" font-family="Times,serif" font-size="14.00">Find</text>
<text text-anchor="middle" x="78" y="-129.8" font-family="Times,serif" font-size="14.00">RDF</text>
</g>
<!-- bhaccrej&#45;&gt;bhupdate1 -->
<g id="edge8" class="edge"><title>bhaccrej&#45;&gt;bhupdate1</title>
<path fill="none" stroke="black" d="M78,-217.997C78,-205.888 78,-191.281 78,-178.123"/>
<polygon fill="black" stroke="black" points="81.5001,-177.955 78,-167.955 74.5001,-177.955 81.5001,-177.955"/>
</g>
<!-- bhfinalrelax -->
<g id="node7" class="node"><title>bhfinalrelax</title>
<ellipse fill="none" stroke="black" cx="392" cy="-141" rx="50.3073" ry="26.7407"/>
<text text-anchor="middle" x="392" y="-144.8" font-family="Times,serif" font-size="14.00">Final</text>
<text text-anchor="middle" x="392" y="-129.8" font-family="Times,serif" font-size="14.00">relaxation</text>
</g>
<!-- bhcheck&#45;&gt;bhfinalrelax -->
<g id="edge5" class="edge"><title>bhcheck&#45;&gt;bhfinalrelax</title>
<path fill="none" stroke="black" d="M379.545,-226.697C381.51,-213.33 384.298,-194.371 386.738,-177.779"/>
<polygon fill="black" stroke="black" points="390.21,-178.228 388.202,-167.825 383.284,-177.21 390.21,-178.228"/>
</g>
<!-- bhcheck&#45;&gt;bhranf2 -->
<g id="edge21" class="edge"><title>bhcheck&#45;&gt;bhranf2</title>
<path fill="none" stroke="black" d="M377.575,-263.044C377.735,-288.417 375.325,-336.995 357,-373 353.321,-380.228 348.488,-387.134 343.14,-393.537"/>
<polygon fill="black" stroke="black" points="340.196,-391.579 336.139,-401.366 345.414,-396.245 340.196,-391.579"/>
</g>
<!-- bhstop -->
<g id="node8" class="node"><title>bhstop</title>
<ellipse fill="#e5b7b7" stroke="#e5b7b7" cx="392" cy="-51" rx="40.4202" ry="18"/>
<text text-anchor="middle" x="392" y="-47.3" font-family="Times,serif" font-size="14.00">Finished</text>
</g>
<!-- bhfinalrelax&#45;&gt;bhstop -->
<g id="edge6" class="edge"><title>bhfinalrelax&#45;&gt;bhstop</title>
<path fill="none" stroke="black" d="M392,-114.073C392,-103.085 392,-90.2766 392,-79.1581"/>
<polygon fill="black" stroke="black" points="395.5,-79.1304 392,-69.1304 388.5,-79.1305 395.5,-79.1304"/>
</g>
<!-- rxmove -->
<g id="node18" class="node"><title>rxmove</title>
<ellipse fill="none" stroke="black" cx="533" cy="-245" rx="64.0209" ry="37.4533"/>
<text text-anchor="middle" x="533" y="-256.3" font-family="Times,serif" font-size="14.00">Deterministic</text>
<text text-anchor="middle" x="533" y="-241.3" font-family="Times,serif" font-size="14.00">move based</text>
<text text-anchor="middle" x="533" y="-226.3" font-family="Times,serif" font-size="14.00">on gradient</text>
</g>
<!-- bhfinalrelax&#45;&gt;rxmove -->
<g id="edge26" class="edge"><title>bhfinalrelax&#45;&gt;rxmove</title>
<path fill="none" stroke="red" d="M421.801,-171.759C431.191,-180.8 441.974,-190.402 452.592,-198.194 452.868,-198.397 453.148,-198.601 453.426,-198.804"/>
<path fill="none" stroke="blue" d="M420.414,-173.199C429.861,-182.294 440.644,-191.895 451.408,-199.806 451.688,-200.012 451.968,-200.216 452.25,-200.421"/>
<polygon fill="blue" stroke="blue" points="423.458,-169.882 413.874,-165.364 418.549,-174.872 423.458,-169.882"/>
<polygon fill="red" stroke="red" points="451.008,-202.603 461.215,-205.44 455.005,-196.856 451.008,-202.603"/>
</g>
<!-- bhupdate2 -->
<g id="node10" class="node"><title>bhupdate2</title>
<ellipse fill="none" stroke="black" cx="225" cy="-141" rx="79.3553" ry="26.7407"/>
<text text-anchor="middle" x="225" y="-144.8" font-family="Times,serif" font-size="14.00">Check cosine</text>
<text text-anchor="middle" x="225" y="-129.8" font-family="Times,serif" font-size="14.00">similarity metrics</text>
</g>
<!-- bhupdate1&#45;&gt;bhupdate2 -->
<g id="edge27" class="edge"><title>bhupdate1&#45;&gt;bhupdate2</title>
<path fill="none" stroke="black" d="M108.434,-141C117.366,-141 126.298,-141 135.231,-141"/>
<polygon fill="black" stroke="black" points="135.316,-144.5 145.316,-141 135.316,-137.5 135.316,-144.5"/>
</g>
<!-- bhupdate3 -->
<g id="node11" class="node"><title>bhupdate3</title>
<ellipse fill="none" stroke="black" cx="92" cy="-51" rx="50.3073" ry="26.7407"/>
<text text-anchor="middle" x="92" y="-54.8" font-family="Times,serif" font-size="14.00">Keep best</text>
<text text-anchor="middle" x="92" y="-39.8" font-family="Times,serif" font-size="14.00">structures</text>
</g>
<!-- bhupdate2&#45;&gt;bhupdate3 -->
<g id="edge28" class="edge"><title>bhupdate2&#45;&gt;bhupdate3</title>
<path fill="none" stroke="black" d="M189.708,-116.649C171.77,-104.78 149.915,-90.3195 131.426,-78.0865"/>
<polygon fill="black" stroke="black" points="133.195,-75.0604 122.924,-72.4612 129.333,-80.8982 133.195,-75.0604"/>
</g>
<!-- bhupdate4 -->
<g id="node12" class="node"><title>bhupdate4</title>
<polygon fill="none" stroke="black" points="310,-70 178,-70 178,-32 310,-32 310,-70"/>
<text text-anchor="middle" x="244" y="-54.8" font-family="Times,serif" font-size="14.00">List of lowest energy</text>
<text text-anchor="middle" x="244" y="-39.8" font-family="Times,serif" font-size="14.00">unique structures</text>
</g>
<!-- bhupdate3&#45;&gt;bhupdate4 -->
<g id="edge30" class="edge"><title>bhupdate3&#45;&gt;bhupdate4</title>
<path fill="none" stroke="red" d="M142.172,-51C150.749,-51 159.326,-51 167.902,-51"/>
<polygon fill="red" stroke="red" points="167.971,-54.5001 177.971,-51 167.971,-47.5001 167.971,-54.5001"/>
</g>
<!-- bhupdate4&#45;&gt;bhstop -->
<g id="edge31" class="edge"><title>bhupdate4&#45;&gt;bhstop</title>
<path fill="none" stroke="blue" d="M310.195,-51C320.501,-51 330.806,-51 341.112,-51"/>
<polygon fill="blue" stroke="blue" points="341.417,-54.5001 351.417,-51 341.417,-47.5001 341.417,-54.5001"/>
</g>
<!-- bhupdate4&#45;&gt;bhupdate2 -->
<g id="edge29" class="edge"><title>bhupdate4&#45;&gt;bhupdate2</title>
<path fill="none" stroke="blue" d="M240.068,-70.2136C237.951,-80.018 235.264,-92.4619 232.747,-104.118"/>
<polygon fill="blue" stroke="blue" points="229.287,-103.56 230.598,-114.073 236.13,-105.037 229.287,-103.56"/>
</g>
<!-- bhranf1 -->
<g id="node13" class="node"><title>bhranf1</title>
<ellipse fill="none" stroke="black" cx="402" cy="-436" rx="35.0343" ry="26.7407"/>
<text text-anchor="middle" x="402" y="-439.8" font-family="Times,serif" font-size="14.00">Swap</text>
<text text-anchor="middle" x="402" y="-424.8" font-family="Times,serif" font-size="14.00">atoms</text>
</g>
<!-- bhranf2&#45;&gt;bhrelax -->
<g id="edge22" class="edge"><title>bhranf2&#45;&gt;bhrelax</title>
<path fill="none" stroke="black" d="M287.679,-401.092C285.753,-392.174 283.702,-382.671 281.864,-374.158"/>
<polygon fill="black" stroke="black" points="285.23,-373.166 279.699,-364.13 278.388,-374.644 285.23,-373.166"/>
</g>
<!-- rxeval -->
<g id="node17" class="node"><title>rxeval</title>
<ellipse fill="none" stroke="black" cx="533" cy="-346" rx="41.394" ry="18"/>
<text text-anchor="middle" x="533" y="-342.3" font-family="Times,serif" font-size="14.00">Evaluate</text>
</g>
<!-- rxstart&#45;&gt;rxeval -->
<g id="edge9" class="edge"><title>rxstart&#45;&gt;rxeval</title>
<path fill="none" stroke="black" d="M520.085,-418.033C522.328,-405.695 525.413,-388.727 528.006,-374.469"/>
<polygon fill="black" stroke="black" points="531.525,-374.68 529.87,-364.215 524.637,-373.428 531.525,-374.68"/>
</g>
<!-- rxeval&#45;&gt;bhrelax -->
<g id="edge25" class="edge"><title>rxeval&#45;&gt;bhrelax</title>
<path fill="none" stroke="blue" d="M451.108,-347C417.268,-347 383.427,-347 349.586,-347"/>
<path fill="none" stroke="red" d="M451.108,-345C417.268,-345 383.427,-345 349.586,-345"/>
<polygon fill="red" stroke="red" points="451.13,-349.5 461.13,-346 451.13,-342.5 451.13,-349.5"/>
<polygon fill="blue" stroke="blue" points="349.497,-342.5 339.497,-346 349.497,-349.5 349.497,-342.5"/>
</g>
<!-- rxeval&#45;&gt;rxmove -->
<g id="edge10" class="edge"><title>rxeval&#45;&gt;rxmove</title>
<path fill="none" stroke="black" d="M522.566,-328.206C520.321,-318.194 519.309,-304.951 519.53,-292.026"/>
<polygon fill="black" stroke="black" points="523.037,-291.937 519.971,-281.796 516.043,-291.636 523.037,-291.937"/>
</g>
<!-- rxstop -->
<g id="node19" class="node"><title>rxstop</title>
<ellipse fill="#e5b7b7" stroke="#e5b7b7" cx="586" cy="-141" rx="49.0941" ry="18"/>
<text text-anchor="middle" x="586" y="-137.3" font-family="Times,serif" font-size="14.00">Converged</text>
</g>
<!-- rxeval&#45;&gt;rxstop -->
<g id="edge12" class="edge"><title>rxeval&#45;&gt;rxstop</title>
<path fill="none" stroke="black" d="M560.584,-332.564C579.715,-322.284 603.71,-305.69 615,-283 633.504,-245.811 615.756,-197.475 601.029,-168.144"/>
<polygon fill="black" stroke="black" points="603.958,-166.193 596.207,-158.969 597.761,-169.449 603.958,-166.193"/>
</g>
<!-- ofeval -->
<g id="node22" class="node"><title>ofeval</title>
<ellipse fill="none" stroke="black" cx="746" cy="-346" rx="82.0366" ry="26.7407"/>
<text text-anchor="middle" x="746" y="-349.8" font-family="Times,serif" font-size="14.00">Calculate required</text>
<text text-anchor="middle" x="746" y="-334.8" font-family="Times,serif" font-size="14.00">periodic images</text>
</g>
<!-- rxeval&#45;&gt;ofeval -->
<g id="edge23" class="edge"><title>rxeval&#45;&gt;ofeval</title>
<path fill="none" stroke="red" d="M584.727,-345C607.74,-345 630.753,-345 653.767,-345"/>
<path fill="none" stroke="blue" d="M584.727,-347C607.74,-347 630.753,-347 653.767,-347"/>
<polygon fill="blue" stroke="blue" points="584.602,-342.5 574.602,-346 584.602,-349.5 584.602,-342.5"/>
<polygon fill="red" stroke="red" points="646,-349.5 656,-346 646,-342.5 646,-349.5"/>
</g>
<!-- rxmove&#45;&gt;rxeval -->
<g id="edge11" class="edge"><title>rxmove&#45;&gt;rxeval</title>
<path fill="none" stroke="black" d="M546.029,-281.796C546.874,-293.803 546.582,-306.978 545.153,-318.177"/>
<polygon fill="black" stroke="black" points="541.673,-317.758 543.434,-328.206 548.573,-318.941 541.673,-317.758"/>
</g>
<!-- ofstart -->
<g id="node20" class="node"><title>ofstart</title>
<ellipse fill="#c0e5b7" stroke="#c0e5b7" cx="775" cy="-535" rx="26.949" ry="18"/>
<text text-anchor="middle" x="775" y="-531.3" font-family="Times,serif" font-size="14.00">Start</text>
</g>
<!-- ofverify -->
<g id="node21" class="node"><title>ofverify</title>
<ellipse fill="none" stroke="black" cx="775" cy="-436" rx="60.2186" ry="26.7407"/>
<text text-anchor="middle" x="775" y="-439.8" font-family="Times,serif" font-size="14.00">Verify move</text>
<text text-anchor="middle" x="775" y="-424.8" font-family="Times,serif" font-size="14.00">validity</text>
</g>
<!-- ofstart&#45;&gt;ofverify -->
<g id="edge13" class="edge"><title>ofstart&#45;&gt;ofverify</title>
<path fill="none" stroke="black" d="M775,-516.658C775,-504.643 775,-488.204 775,-473.379"/>
<polygon fill="black" stroke="black" points="778.5,-472.956 775,-462.956 771.5,-472.956 778.5,-472.956"/>
</g>
<!-- ofverify&#45;&gt;ofeval -->
<g id="edge14" class="edge"><title>ofverify&#45;&gt;ofeval</title>
<path fill="none" stroke="black" d="M766.456,-409.073C763.712,-400.748 760.625,-391.378 757.696,-382.49"/>
<polygon fill="black" stroke="black" points="760.937,-381.144 754.483,-372.742 754.289,-383.335 760.937,-381.144"/>
</g>
<!-- ofstop -->
<g id="node25" class="node"><title>ofstop</title>
<ellipse fill="#e5b7b7" stroke="#e5b7b7" cx="791" cy="-51" rx="34.1708" ry="18"/>
<text text-anchor="middle" x="791" y="-47.3" font-family="Times,serif" font-size="14.00">Return</text>
</g>
<!-- ofverify&#45;&gt;ofstop -->
<g id="edge18" class="edge"><title>ofverify&#45;&gt;ofstop</title>
<path fill="none" stroke="black" d="M809.925,-414.057C823.881,-403.64 838.418,-389.687 846,-373 863.685,-334.079 910.687,-288.137 845,-114 839.147,-98.4825 827.483,-84.2793 816.489,-73.3938"/>
<polygon fill="black" stroke="black" points="818.747,-70.7129 809.065,-66.4123 813.952,-75.8125 818.747,-70.7129"/>
</g>
<!-- ofpert -->
<g id="node23" class="node"><title>ofpert</title>
<ellipse fill="none" stroke="black" cx="747" cy="-245" rx="73.3085" ry="26.7407"/>
<text text-anchor="middle" x="747" y="-248.8" font-family="Times,serif" font-size="14.00">Evaluate energy</text>
<text text-anchor="middle" x="747" y="-233.8" font-family="Times,serif" font-size="14.00"> and forces</text>
</g>
<!-- ofeval&#45;&gt;ofpert -->
<g id="edge15" class="edge"><title>ofeval&#45;&gt;ofpert</title>
<path fill="none" stroke="black" d="M746.263,-318.989C746.376,-307.823 746.509,-294.581 746.632,-282.462"/>
<polygon fill="black" stroke="black" points="750.134,-282.216 746.736,-272.181 743.135,-282.145 750.134,-282.216"/>
</g>
<!-- ofjac -->
<g id="node24" class="node"><title>ofjac</title>
<ellipse fill="none" stroke="black" cx="750" cy="-141" rx="77.1743" ry="26.7407"/>
<text text-anchor="middle" x="750" y="-144.8" font-family="Times,serif" font-size="14.00">Perturb vectors;</text>
<text text-anchor="middle" x="750" y="-129.8" font-family="Times,serif" font-size="14.00">estimate gradient</text>
</g>
<!-- ofpert&#45;&gt;ofjac -->
<g id="edge16" class="edge"><title>ofpert&#45;&gt;ofjac</title>
<path fill="none" stroke="black" d="M747.765,-217.997C748.121,-205.888 748.551,-191.281 748.938,-178.123"/>
<polygon fill="black" stroke="black" points="752.441,-178.054 749.237,-167.955 745.444,-177.848 752.441,-178.054"/>
</g>
<!-- ofjac&#45;&gt;ofstop -->
<g id="edge17" class="edge"><title>ofjac&#45;&gt;ofstop</title>
<path fill="none" stroke="black" d="M762.08,-114.073C767.378,-102.701 773.584,-89.3805 778.886,-78.0005"/>
<polygon fill="black" stroke="black" points="782.216,-79.14 783.267,-68.5974 775.871,-76.1837 782.216,-79.14"/>
</g>
</g>
</svg>
