<?xml version="1.0" encoding="UTF-8" standalone="no"?>
<!DOCTYPE svg PUBLIC "-//W3C//DTD SVG 1.1//EN"
 "http://www.w3.org/Graphics/SVG/1.1/DTD/svg11.dtd">
<!-- Generated by graphviz version 2.36.0 (20140111.2315)
 -->
<!-- Title: dggen Pages: 1 -->
<svg width="429pt" height="621pt"
 viewBox="0.00 0.00 429.00 621.00" xmlns="http://www.w3.org/2000/svg" xmlns:xlink="http://www.w3.org/1999/xlink">
<g id="graph0" class="graph" transform="scale(1 1) rotate(0) translate(4 617)">
<title>dggen</title>
<polygon fill="white" stroke="none" points="-4,4 -4,-617 425,-617 425,4 -4,4"/>
<g id="clust1" class="cluster"><title>clustersgfilter</title>
<polygon fill="none" stroke="black" points="8,-8 8,-605 212,-605 212,-8 8,-8"/>
<text text-anchor="middle" x="110" y="-589.8" font-family="Times,serif" font-size="14.00">Cell filtering</text>
</g>
<g id="clust2" class="cluster"><title>clustersggrid</title>
<polygon fill="none" stroke="black" points="223,-8 223,-605 413,-605 413,-8 223,-8"/>
<text text-anchor="middle" x="318" y="-589.8" font-family="Times,serif" font-size="14.00">Cell generation</text>
</g>
<!-- fistart -->
<g id="node1" class="node"><title>fistart</title>
<ellipse fill="#c0e5b7" stroke="#c0e5b7" cx="116" cy="-556" rx="26.949" ry="18"/>
<text text-anchor="middle" x="116" y="-552.3" font-family="Times,serif" font-size="14.00">Start</text>
</g>
<!-- figroup -->
<g id="node2" class="node"><title>figroup</title>
<ellipse fill="none" stroke="black" cx="116" cy="-475" rx="65.1436" ry="26.7407"/>
<text text-anchor="middle" x="116" y="-478.8" font-family="Times,serif" font-size="14.00">Get wallpaper</text>
<text text-anchor="middle" x="116" y="-463.8" font-family="Times,serif" font-size="14.00">group data</text>
</g>
<!-- fistart&#45;&gt;figroup -->
<g id="edge1" class="edge"><title>fistart&#45;&gt;figroup</title>
<path fill="none" stroke="black" d="M116,-537.858C116,-530.356 116,-521.25 116,-512.358"/>
<polygon fill="black" stroke="black" points="119.5,-512.126 116,-502.126 112.5,-512.126 119.5,-512.126"/>
</g>
<!-- fistoich -->
<g id="node3" class="node"><title>fistoich</title>
<ellipse fill="none" stroke="black" cx="95" cy="-385" rx="70.5656" ry="26.7407"/>
<text text-anchor="middle" x="95" y="-388.8" font-family="Times,serif" font-size="14.00">Calculate node</text>
<text text-anchor="middle" x="95" y="-373.8" font-family="Times,serif" font-size="14.00">stoichiometries</text>
</g>
<!-- figroup&#45;&gt;fistoich -->
<g id="edge2" class="edge"><title>figroup&#45;&gt;fistoich</title>
<path fill="none" stroke="black" d="M109.813,-448.073C107.865,-439.911 105.677,-430.744 103.594,-422.011"/>
<polygon fill="black" stroke="black" points="106.941,-420.96 101.215,-412.046 100.132,-422.585 106.941,-420.96"/>
</g>
<!-- figenerate -->
<g id="node4" class="node"><title>figenerate</title>
<ellipse fill="none" stroke="black" cx="95" cy="-295" rx="61.1419" ry="18"/>
<text text-anchor="middle" x="95" y="-291.3" font-family="Times,serif" font-size="14.00">Generate cells</text>
</g>
<!-- fistoich&#45;&gt;figenerate -->
<g id="edge3" class="edge"><title>fistoich&#45;&gt;figenerate</title>
<path fill="none" stroke="black" d="M95,-358.073C95,-347.085 95,-334.277 95,-323.158"/>
<polygon fill="black" stroke="black" points="98.5001,-323.13 95,-313.13 91.5001,-323.13 98.5001,-323.13"/>
</g>
<!-- ficompute -->
<g id="node5" class="node"><title>ficompute</title>
<ellipse fill="none" stroke="black" cx="91" cy="-205" rx="75.0904" ry="18"/>
<text text-anchor="middle" x="91" y="-201.3" font-family="Times,serif" font-size="14.00">Compute energies</text>
</g>
<!-- figenerate&#45;&gt;ficompute -->
<g id="edge4" class="edge"><title>figenerate&#45;&gt;ficompute</title>
<path fill="none" stroke="black" d="M94.2097,-276.614C93.6473,-264.24 92.8804,-247.369 92.2373,-233.22"/>
<polygon fill="black" stroke="black" points="95.7256,-232.881 91.775,-223.05 88.7328,-233.199 95.7256,-232.881"/>
</g>
<!-- grsolve -->
<g id="node11" class="node"><title>grsolve</title>
<ellipse fill="none" stroke="black" cx="316" cy="-295" rx="74.3697" ry="26.7407"/>
<text text-anchor="middle" x="316" y="-298.8" font-family="Times,serif" font-size="14.00">Solve stoichi&#45;</text>
<text text-anchor="middle" x="316" y="-283.8" font-family="Times,serif" font-size="14.00">ometry problem</text>
</g>
<!-- figenerate&#45;&gt;grsolve -->
<g id="edge14" class="edge"><title>figenerate&#45;&gt;grsolve</title>
<path fill="none" stroke="red" d="M166.309,-294C181.824,-294 197.339,-294 212.854,-294"/>
<path fill="none" stroke="blue" d="M166.309,-296C181.824,-296 197.339,-296 212.854,-296"/>
<polygon fill="blue" stroke="blue" points="166.293,-291.5 156.293,-295 166.293,-298.5 166.293,-291.5"/>
<polygon fill="red" stroke="red" points="213.05,-298.5 223.05,-295 213.05,-291.5 213.05,-298.5"/>
</g>
<!-- fichoose -->
<g id="node6" class="node"><title>fichoose</title>
<ellipse fill="none" stroke="black" cx="109" cy="-115" rx="67.3243" ry="26.7407"/>
<text text-anchor="middle" x="109" y="-118.8" font-family="Times,serif" font-size="14.00">Choose lowest</text>
<text text-anchor="middle" x="109" y="-103.8" font-family="Times,serif" font-size="14.00">energy cells</text>
</g>
<!-- ficompute&#45;&gt;fichoose -->
<g id="edge5" class="edge"><title>ficompute&#45;&gt;fichoose</title>
<path fill="none" stroke="black" d="M94.5562,-186.614C96.5893,-176.674 99.2161,-163.832 101.671,-151.831"/>
<polygon fill="black" stroke="black" points="105.101,-152.528 103.676,-142.029 98.2428,-151.125 105.101,-152.528"/>
</g>
<!-- fichoose&#45;&gt;figroup -->
<g id="edge7" class="edge"><title>fichoose&#45;&gt;figroup</title>
<path fill="none" stroke="black" d="M147.03,-137.372C161.396,-147.627 176.157,-161.34 184,-178 206.149,-225.047 203.959,-364.41 183,-412 177.452,-424.598 167.955,-435.785 157.829,-445.067"/>
<polygon fill="black" stroke="black" points="155.316,-442.612 150.017,-451.787 159.881,-447.919 155.316,-442.612"/>
</g>
<!-- fistop -->
<g id="node7" class="node"><title>fistop</title>
<ellipse fill="#e5b7b7" stroke="#e5b7b7" cx="109" cy="-34" rx="40.4202" ry="18"/>
<text text-anchor="middle" x="109" y="-30.3" font-family="Times,serif" font-size="14.00">Finished</text>
</g>
<!-- fichoose&#45;&gt;fistop -->
<g id="edge6" class="edge"><title>fichoose&#45;&gt;fistop</title>
<path fill="none" stroke="black" d="M109,-87.6941C109,-79.5798 109,-70.6261 109,-62.4375"/>
<polygon fill="black" stroke="black" points="112.5,-62.2484 109,-52.2484 105.5,-62.2484 112.5,-62.2484"/>
</g>
<!-- grstart -->
<g id="node8" class="node"><title>grstart</title>
<ellipse fill="#c0e5b7" stroke="#c0e5b7" cx="316" cy="-556" rx="26.949" ry="18"/>
<text text-anchor="middle" x="316" y="-552.3" font-family="Times,serif" font-size="14.00">Start</text>
</g>
<!-- grgrid -->
<g id="node9" class="node"><title>grgrid</title>
<ellipse fill="none" stroke="black" cx="316" cy="-475" rx="50.3073" ry="26.7407"/>
<text text-anchor="middle" x="316" y="-478.8" font-family="Times,serif" font-size="14.00">Discretize</text>
<text text-anchor="middle" x="316" y="-463.8" font-family="Times,serif" font-size="14.00">group tile</text>
</g>
<!-- grstart&#45;&gt;grgrid -->
<g id="edge8" class="edge"><title>grstart&#45;&gt;grgrid</title>
<path fill="none" stroke="black" d="M316,-537.858C316,-530.356 316,-521.25 316,-512.358"/>
<polygon fill="black" stroke="black" points="319.5,-512.126 316,-502.126 312.5,-512.126 319.5,-512.126"/>
</g>
<!-- grsymm -->
<g id="node10" class="node"><title>grsymm</title>
<ellipse fill="none" stroke="black" cx="316" cy="-385" rx="74.4303" ry="26.7407"/>
<text text-anchor="middle" x="316" y="-388.8" font-family="Times,serif" font-size="14.00">Determine</text>
<text text-anchor="middle" x="316" y="-373.8" font-family="Times,serif" font-size="14.00">grid symmetries</text>
</g>
<!-- grgrid&#45;&gt;grsymm -->
<g id="edge9" class="edge"><title>grgrid&#45;&gt;grsymm</title>
<path fill="none" stroke="black" d="M316,-448.073C316,-439.999 316,-430.943 316,-422.296"/>
<polygon fill="black" stroke="black" points="319.5,-422.046 316,-412.046 312.5,-422.046 319.5,-422.046"/>
</g>
<!-- grsymm&#45;&gt;grsolve -->
<g id="edge10" class="edge"><title>grsymm&#45;&gt;grsolve</title>
<path fill="none" stroke="black" d="M316,-358.073C316,-349.999 316,-340.943 316,-332.296"/>
<polygon fill="black" stroke="black" points="319.5,-332.046 316,-322.046 312.5,-332.046 319.5,-332.046"/>
</g>
<!-- grweight -->
<g id="node12" class="node"><title>grweight</title>
<ellipse fill="none" stroke="black" cx="318" cy="-205" rx="77.1743" ry="26.7407"/>
<text text-anchor="middle" x="318" y="-208.8" font-family="Times,serif" font-size="14.00">Weight solutions</text>
<text text-anchor="middle" x="318" y="-193.8" font-family="Times,serif" font-size="14.00">by entropy</text>
</g>
<!-- grsolve&#45;&gt;grweight -->
<g id="edge11" class="edge"><title>grsolve&#45;&gt;grweight</title>
<path fill="none" stroke="black" d="M316.589,-268.073C316.773,-259.999 316.979,-250.943 317.175,-242.296"/>
<polygon fill="black" stroke="black" points="320.68,-242.123 317.408,-232.046 313.682,-241.964 320.68,-242.123"/>
</g>
<!-- grrand -->
<g id="node13" class="node"><title>grrand</title>
<ellipse fill="none" stroke="black" cx="318" cy="-115" rx="86.4614" ry="26.7407"/>
<text text-anchor="middle" x="318" y="-118.8" font-family="Times,serif" font-size="14.00">Randomly generate</text>
<text text-anchor="middle" x="318" y="-103.8" font-family="Times,serif" font-size="14.00">unique solutions</text>
</g>
<!-- grweight&#45;&gt;grrand -->
<g id="edge12" class="edge"><title>grweight&#45;&gt;grrand</title>
<path fill="none" stroke="black" d="M318,-178.073C318,-169.999 318,-160.943 318,-152.296"/>
<polygon fill="black" stroke="black" points="321.5,-152.046 318,-142.046 314.5,-152.046 321.5,-152.046"/>
</g>
<!-- grstop -->
<g id="node14" class="node"><title>grstop</title>
<ellipse fill="#e5b7b7" stroke="#e5b7b7" cx="318" cy="-34" rx="40.4202" ry="18"/>
<text text-anchor="middle" x="318" y="-30.3" font-family="Times,serif" font-size="14.00">Finished</text>
</g>
<!-- grrand&#45;&gt;grstop -->
<g id="edge13" class="edge"><title>grrand&#45;&gt;grstop</title>
<path fill="none" stroke="black" d="M318,-87.6941C318,-79.5798 318,-70.6261 318,-62.4375"/>
<polygon fill="black" stroke="black" points="321.5,-62.2484 318,-52.2484 314.5,-62.2484 321.5,-62.2484"/>
</g>
</g>
</svg>
