<?xml version="1.0" encoding="UTF-8" standalone="no"?>
<!DOCTYPE svg PUBLIC "-//W3C//DTD SVG 1.1//EN"
 "http://www.w3.org/Graphics/SVG/1.1/DTD/svg11.dtd">
<!-- Generated by graphviz version 2.36.0 (20140111.2315)
 -->
<!-- Title: dgmp Pages: 1 -->
<svg width="1034pt" height="662pt"
 viewBox="0.00 0.00 1034.00 661.69" xmlns="http://www.w3.org/2000/svg" xmlns:xlink="http://www.w3.org/1999/xlink">
<g id="graph0" class="graph" transform="scale(1 1) rotate(0) translate(4 657.69)">
<title>dgmp</title>
<polygon fill="white" stroke="none" points="-4,4 -4,-657.69 1030,-657.69 1030,4 -4,4"/>
<g id="clust1" class="cluster"><title>clustersgmaster</title>
<polygon fill="none" stroke="black" points="74,-107 74,-620 360,-620 360,-107 74,-107"/>
<text text-anchor="middle" x="217" y="-604.8" font-family="Times,serif" font-size="14.00">Master</text>
<text text-anchor="middle" x="217" y="-589.8" font-family="Times,serif" font-size="14.00">process</text>
</g>
<g id="clust2" class="cluster"><title>clustersgasync</title>
<polygon fill="none" stroke="black" points="252,-196 252,-574 352,-574 352,-196 252,-196"/>
<text text-anchor="middle" x="302" y="-558.8" font-family="Times,serif" font-size="14.00">Asynchronous</text>
<text text-anchor="middle" x="302" y="-543.8" font-family="Times,serif" font-size="14.00">callback</text>
</g>
<g id="clust3" class="cluster"><title>clustersgmastmain</title>
</g>
<g id="clust4" class="cluster"><title>clustersgmanager</title>
<polygon fill="none" stroke="black" points="430,-8 430,-620 698,-620 698,-8 430,-8"/>
<text text-anchor="middle" x="564" y="-604.8" font-family="Times,serif" font-size="14.00">Manager</text>
<text text-anchor="middle" x="564" y="-589.8" font-family="Times,serif" font-size="14.00">process</text>
</g>
<g id="clust5" class="cluster"><title>clustersgmgrmain</title>
</g>
<g id="clust6" class="cluster"><title>clustersgdata</title>
<polygon fill="none" stroke="black" points="438,-385 438,-550 516,-550 516,-385 438,-385"/>
<text text-anchor="middle" x="477" y="-534.8" font-family="Times,serif" font-size="14.00">Data</text>
</g>
<g id="clust7" class="cluster"><title>clustersgworker</title>
<polygon fill="none" stroke="black" points="850,-98 850,-605 1018,-605 1018,-98 850,-98"/>
<text text-anchor="middle" x="934" y="-589.8" font-family="Times,serif" font-size="14.00">Worker</text>
<text text-anchor="middle" x="934" y="-574.8" font-family="Times,serif" font-size="14.00">1, 2, ..., N</text>
</g>
<g id="clust8" class="cluster"><title>clustersgtask</title>
<polygon fill="none" stroke="black" points="858,-106 858,-559 1010,-559 1010,-106 858,-106"/>
<text text-anchor="middle" x="934" y="-543.8" font-family="Times,serif" font-size="14.00">Task</text>
</g>
<!-- marecv -->
<g id="node1" class="node"><title>marecv</title>
<ellipse fill="none" stroke="black" cx="302" cy="-501" rx="42.1401" ry="26.7407"/>
<text text-anchor="middle" x="302" y="-504.8" font-family="Times,serif" font-size="14.00">Receive</text>
<text text-anchor="middle" x="302" y="-489.8" font-family="Times,serif" font-size="14.00">result</text>
</g>
<!-- maacquire -->
<g id="node2" class="node"><title>maacquire</title>
<ellipse fill="none" stroke="black" cx="302" cy="-411" rx="42.1401" ry="26.7407"/>
<text text-anchor="middle" x="302" y="-414.8" font-family="Times,serif" font-size="14.00">Acquire</text>
<text text-anchor="middle" x="302" y="-399.8" font-family="Times,serif" font-size="14.00">lock</text>
</g>
<!-- marecv&#45;&gt;maacquire -->
<g id="edge1" class="edge"><title>marecv&#45;&gt;maacquire</title>
<path fill="none" stroke="black" d="M302,-474.073C302,-465.999 302,-456.943 302,-448.296"/>
<polygon fill="black" stroke="black" points="305.5,-448.046 302,-438.046 298.5,-448.046 305.5,-448.046"/>
</g>
<!-- mawrite -->
<g id="node3" class="node"><title>mawrite</title>
<ellipse fill="none" stroke="black" cx="302" cy="-321" rx="33.4126" ry="26.7407"/>
<text text-anchor="middle" x="302" y="-324.8" font-family="Times,serif" font-size="14.00">Write</text>
<text text-anchor="middle" x="302" y="-309.8" font-family="Times,serif" font-size="14.00">result</text>
</g>
<!-- maacquire&#45;&gt;mawrite -->
<g id="edge2" class="edge"><title>maacquire&#45;&gt;mawrite</title>
<path fill="none" stroke="black" d="M302,-384.073C302,-375.999 302,-366.943 302,-358.296"/>
<polygon fill="black" stroke="black" points="305.5,-358.046 302,-348.046 298.5,-358.046 305.5,-358.046"/>
</g>
<!-- marelease -->
<g id="node4" class="node"><title>marelease</title>
<ellipse fill="none" stroke="black" cx="302" cy="-231" rx="41.5782" ry="26.7407"/>
<text text-anchor="middle" x="302" y="-234.8" font-family="Times,serif" font-size="14.00">Release</text>
<text text-anchor="middle" x="302" y="-219.8" font-family="Times,serif" font-size="14.00">lock</text>
</g>
<!-- mawrite&#45;&gt;marelease -->
<g id="edge3" class="edge"><title>mawrite&#45;&gt;marelease</title>
<path fill="none" stroke="black" d="M302,-294.073C302,-285.999 302,-276.943 302,-268.296"/>
<polygon fill="black" stroke="black" points="305.5,-268.046 302,-258.046 298.5,-268.046 305.5,-268.046"/>
</g>
<!-- rawdb -->
<g id="node23" class="node"><title>rawdb</title>
<polygon fill="none" stroke="black" points="54,-250 0,-250 0,-212 54,-212 54,-250"/>
<text text-anchor="middle" x="27" y="-234.8" font-family="Times,serif" font-size="14.00">Data</text>
<text text-anchor="middle" x="27" y="-219.8" font-family="Times,serif" font-size="14.00">file</text>
</g>
<!-- mawrite&#45;&gt;rawdb -->
<g id="edge29" class="edge"><title>mawrite&#45;&gt;rawdb</title>
<path fill="none" stroke="red" d="M273.571,-306.544C263.448,-302.113 251.864,-297.444 241,-294 168.209,-270.923 144.392,-285.098 73,-258 69.7275,-256.758 66.4087,-255.308 63.13,-253.741"/>
<polygon fill="red" stroke="red" points="64.5622,-250.542 54.0679,-249.086 61.3636,-256.768 64.5622,-250.542"/>
</g>
<!-- mawait -->
<g id="node8" class="node"><title>mawait</title>
<ellipse fill="none" stroke="black" cx="157" cy="-231" rx="67.2629" ry="26.7407"/>
<text text-anchor="middle" x="157" y="-234.8" font-family="Times,serif" font-size="14.00">Wait for work</text>
<text text-anchor="middle" x="157" y="-219.8" font-family="Times,serif" font-size="14.00">to finish</text>
</g>
<!-- marelease&#45;&gt;mawait -->
<g id="edge32" class="edge"><title>marelease&#45;&gt;mawait</title>
<path fill="none" stroke="blue" d="M252.426,-231C246.413,-231 240.4,-231 234.387,-231"/>
<polygon fill="blue" stroke="blue" points="234.119,-227.5 224.119,-231 234.119,-234.5 234.119,-227.5"/>
</g>
<!-- dalock -->
<g id="node16" class="node"><title>dalock</title>
<polygon fill="none" stroke="black" points="507.5,-519 446.5,-519 446.5,-483 507.5,-483 507.5,-519"/>
<text text-anchor="middle" x="477" y="-497.3" font-family="Times,serif" font-size="14.00">I/O lock</text>
</g>
<!-- marelease&#45;&gt;dalock -->
<g id="edge30" class="edge"><title>marelease&#45;&gt;dalock</title>
<path fill="none" stroke="red" d="M322.073,-254.548C331.874,-266.008 343.558,-280.364 353,-294 395.052,-354.732 397.164,-375.162 436,-438 443.495,-450.126 452.156,-463.332 459.581,-474.428"/>
<polygon fill="red" stroke="red" points="456.737,-476.472 465.225,-482.813 462.544,-472.563 456.737,-476.472"/>
</g>
<!-- mainit -->
<g id="node5" class="node"><title>mainit</title>
<ellipse fill="#c0e5b7" stroke="#c0e5b7" cx="177" cy="-501" rx="26.949" ry="18"/>
<text text-anchor="middle" x="177" y="-497.3" font-family="Times,serif" font-size="14.00">Start</text>
</g>
<!-- mamake -->
<g id="node6" class="node"><title>mamake</title>
<ellipse fill="none" stroke="black" stroke-width="2" cx="159" cy="-411" rx="65.0808" ry="26.7407"/>
<text text-anchor="middle" x="159" y="-414.8" font-family="Times,serif" font-size="14.00">Generate new</text>
<text text-anchor="middle" x="159" y="-399.8" font-family="Times,serif" font-size="14.00">initial guess</text>
</g>
<!-- mainit&#45;&gt;mamake -->
<g id="edge4" class="edge"><title>mainit&#45;&gt;mamake</title>
<path fill="none" stroke="black" d="M173.529,-483.033C171.486,-473.044 168.822,-460.02 166.334,-447.856"/>
<polygon fill="black" stroke="black" points="169.736,-447.023 164.303,-437.927 162.878,-448.426 169.736,-447.023"/>
</g>
<!-- mginit -->
<g id="node10" class="node"><title>mginit</title>
<ellipse fill="none" stroke="black" cx="600" cy="-501" rx="55.2936" ry="26.7407"/>
<text text-anchor="middle" x="600" y="-504.8" font-family="Times,serif" font-size="14.00">Create lock</text>
<text text-anchor="middle" x="600" y="-489.8" font-family="Times,serif" font-size="14.00">and queue</text>
</g>
<!-- mainit&#45;&gt;mginit -->
<g id="edge19" class="edge"><title>mainit&#45;&gt;mginit</title>
<path fill="none" stroke="red" d="M180.91,-518.814C189.123,-551.036 211.639,-617.554 261,-638 311.505,-658.92 456.495,-658.92 507,-638 549.302,-620.478 574.966,-571.726 588.32,-537.388"/>
<polygon fill="red" stroke="red" points="591.723,-538.278 591.919,-527.685 585.16,-535.844 591.723,-538.278"/>
</g>
<!-- maenqueue -->
<g id="node7" class="node"><title>maenqueue</title>
<ellipse fill="none" stroke="black" cx="159" cy="-321" rx="61.6163" ry="18"/>
<text text-anchor="middle" x="159" y="-317.3" font-family="Times,serif" font-size="14.00">Enqueue work</text>
</g>
<!-- mamake&#45;&gt;maenqueue -->
<g id="edge5" class="edge"><title>mamake&#45;&gt;maenqueue</title>
<path fill="none" stroke="black" d="M146.628,-384.547C145.189,-373.391 145.127,-360.289 146.443,-348.966"/>
<polygon fill="black" stroke="black" points="149.949,-349.214 148.126,-338.777 143.043,-348.073 149.949,-349.214"/>
</g>
<!-- maenqueue&#45;&gt;mamake -->
<g id="edge8" class="edge"><title>maenqueue&#45;&gt;mamake</title>
<path fill="none" stroke="black" d="M169.874,-338.777C172.138,-348.885 172.938,-362.15 172.274,-374.489"/>
<polygon fill="black" stroke="black" points="168.779,-374.274 171.372,-384.547 175.751,-374.899 168.779,-374.274"/>
</g>
<!-- maenqueue&#45;&gt;mawait -->
<g id="edge6" class="edge"><title>maenqueue&#45;&gt;mawait</title>
<path fill="none" stroke="black" d="M158.605,-302.614C158.381,-292.774 158.093,-280.089 157.823,-268.191"/>
<polygon fill="black" stroke="black" points="161.318,-267.947 157.592,-258.029 154.32,-268.106 161.318,-267.947"/>
</g>
<!-- daqueue -->
<g id="node17" class="node"><title>daqueue</title>
<polygon fill="none" stroke="black" points="508,-429 454,-429 454,-393 508,-393 508,-429"/>
<text text-anchor="middle" x="481" y="-407.3" font-family="Times,serif" font-size="14.00">Queue</text>
</g>
<!-- maenqueue&#45;&gt;daqueue -->
<g id="edge23" class="edge"><title>maenqueue&#45;&gt;daqueue</title>
<path fill="none" stroke="red" d="M199.053,-334.803C212.93,-339.131 228.612,-343.901 243,-348 313.777,-368.161 397.131,-389.278 444.046,-400.925"/>
<polygon fill="red" stroke="red" points="443.217,-404.326 453.765,-403.332 444.899,-397.531 443.217,-404.326"/>
</g>
<!-- materm -->
<g id="node9" class="node"><title>materm</title>
<ellipse fill="#e5b7b7" stroke="#e5b7b7" cx="197" cy="-141" rx="27" ry="18"/>
<text text-anchor="middle" x="197" y="-137.3" font-family="Times,serif" font-size="14.00">Stop</text>
</g>
<!-- mawait&#45;&gt;materm -->
<g id="edge7" class="edge"><title>mawait&#45;&gt;materm</title>
<path fill="none" stroke="black" d="M168.785,-204.073C173.99,-192.623 180.092,-179.197 185.288,-167.765"/>
<polygon fill="black" stroke="black" points="188.624,-168.885 189.576,-158.333 182.252,-165.988 188.624,-168.885"/>
</g>
<!-- mgproc -->
<g id="node11" class="node"><title>mgproc</title>
<ellipse fill="none" stroke="black" cx="600" cy="-411" rx="42.1401" ry="26.7407"/>
<text text-anchor="middle" x="600" y="-414.8" font-family="Times,serif" font-size="14.00">Create</text>
<text text-anchor="middle" x="600" y="-399.8" font-family="Times,serif" font-size="14.00">workers</text>
</g>
<!-- mginit&#45;&gt;mgproc -->
<g id="edge9" class="edge"><title>mginit&#45;&gt;mgproc</title>
<path fill="none" stroke="black" d="M600,-474.073C600,-465.999 600,-456.943 600,-448.296"/>
<polygon fill="black" stroke="black" points="603.5,-448.046 600,-438.046 596.5,-448.046 603.5,-448.046"/>
</g>
<!-- mginit&#45;&gt;dalock -->
<g id="edge20" class="edge"><title>mginit&#45;&gt;dalock</title>
<path fill="none" stroke="red" d="M544.506,-501C535.604,-501 526.702,-501 517.8,-501"/>
<polygon fill="red" stroke="red" points="526,-497.501 516,-501 526,-504.501 526,-497.501"/>
</g>
<!-- mgdequeue -->
<g id="node12" class="node"><title>mgdequeue</title>
<ellipse fill="none" stroke="black" cx="594" cy="-321" rx="45.4433" ry="26.7407"/>
<text text-anchor="middle" x="594" y="-324.8" font-family="Times,serif" font-size="14.00">Dequeue</text>
<text text-anchor="middle" x="594" y="-309.8" font-family="Times,serif" font-size="14.00">work</text>
</g>
<!-- mgproc&#45;&gt;mgdequeue -->
<g id="edge10" class="edge"><title>mgproc&#45;&gt;mgdequeue</title>
<path fill="none" stroke="black" d="M598.232,-384.073C597.682,-375.999 597.064,-366.943 596.475,-358.296"/>
<polygon fill="black" stroke="black" points="599.948,-357.784 595.776,-348.046 592.964,-358.261 599.948,-357.784"/>
</g>
<!-- wkpreproc -->
<g id="node19" class="node"><title>wkpreproc</title>
<ellipse fill="none" stroke="black" cx="930" cy="-411" rx="64.0209" ry="26.7407"/>
<text text-anchor="middle" x="930" y="-414.8" font-family="Times,serif" font-size="14.00">Execute</text>
<text text-anchor="middle" x="930" y="-399.8" font-family="Times,serif" font-size="14.00">preprocessors</text>
</g>
<!-- mgproc&#45;&gt;wkpreproc -->
<g id="edge21" class="edge"><title>mgproc&#45;&gt;wkpreproc</title>
<path fill="none" stroke="red" d="M642.217,-411C708.155,-411 774.094,-411 840.033,-411"/>
<polygon fill="red" stroke="red" points="840.188,-414.5 850.187,-411 840.187,-407.5 840.188,-414.5"/>
</g>
<!-- mgwait -->
<g id="node13" class="node"><title>mgwait</title>
<ellipse fill="none" stroke="black" cx="588" cy="-231" rx="55.2936" ry="26.7407"/>
<text text-anchor="middle" x="588" y="-234.8" font-family="Times,serif" font-size="14.00">Wait for</text>
<text text-anchor="middle" x="588" y="-219.8" font-family="Times,serif" font-size="14.00">idle worker</text>
</g>
<!-- mgdequeue&#45;&gt;mgwait -->
<g id="edge11" class="edge"><title>mgdequeue&#45;&gt;mgwait</title>
<path fill="none" stroke="black" d="M592.232,-294.073C591.682,-285.999 591.064,-276.943 590.475,-268.296"/>
<polygon fill="black" stroke="black" points="593.948,-267.784 589.776,-258.046 586.964,-268.261 593.948,-267.784"/>
</g>
<!-- mgdispatch -->
<g id="node14" class="node"><title>mgdispatch</title>
<ellipse fill="none" stroke="black" cx="625" cy="-141" rx="45.4433" ry="26.7407"/>
<text text-anchor="middle" x="625" y="-144.8" font-family="Times,serif" font-size="14.00">Dispatch</text>
<text text-anchor="middle" x="625" y="-129.8" font-family="Times,serif" font-size="14.00">work</text>
</g>
<!-- mgwait&#45;&gt;mgdispatch -->
<g id="edge12" class="edge"><title>mgwait&#45;&gt;mgdispatch</title>
<path fill="none" stroke="black" d="M598.702,-204.547C602.345,-195.882 606.482,-186.042 610.379,-176.774"/>
<polygon fill="black" stroke="black" points="613.673,-177.971 614.322,-167.396 607.22,-175.258 613.673,-177.971"/>
</g>
<!-- mgdispatch&#45;&gt;mgdequeue -->
<g id="edge14" class="edge"><title>mgdispatch&#45;&gt;mgdequeue</title>
<path fill="none" stroke="black" d="M644.984,-165.438C651.403,-174.405 657.702,-185.108 661,-196 668.985,-222.373 672.036,-232.751 661,-258 654.811,-272.159 643.618,-284.526 632.13,-294.412"/>
<polygon fill="black" stroke="black" points="629.751,-291.835 624.188,-300.852 634.16,-297.272 629.751,-291.835"/>
</g>
<!-- mgterm -->
<g id="node15" class="node"><title>mgterm</title>
<ellipse fill="none" stroke="black" cx="615" cy="-51" rx="67.2629" ry="26.7407"/>
<text text-anchor="middle" x="615" y="-54.8" font-family="Times,serif" font-size="14.00">Wait for work</text>
<text text-anchor="middle" x="615" y="-39.8" font-family="Times,serif" font-size="14.00">to finish</text>
</g>
<!-- mgdispatch&#45;&gt;mgterm -->
<g id="edge13" class="edge"><title>mgdispatch&#45;&gt;mgterm</title>
<path fill="none" stroke="black" d="M622.054,-114.073C621.126,-105.911 620.085,-96.7436 619.092,-88.0112"/>
<polygon fill="black" stroke="black" points="622.567,-87.5866 617.96,-78.0457 615.611,-88.377 622.567,-87.5866"/>
</g>
<!-- wkreceive -->
<g id="node18" class="node"><title>wkreceive</title>
<ellipse fill="none" stroke="black" cx="919" cy="-501" rx="42.1401" ry="26.7407"/>
<text text-anchor="middle" x="919" y="-504.8" font-family="Times,serif" font-size="14.00">Receive</text>
<text text-anchor="middle" x="919" y="-489.8" font-family="Times,serif" font-size="14.00">work</text>
</g>
<!-- mgdispatch&#45;&gt;wkreceive -->
<g id="edge25" class="edge"><title>mgdispatch&#45;&gt;wkreceive</title>
<path fill="none" stroke="red" d="M647.071,-164.551C656.022,-174.021 666.283,-185.303 675,-196 758.524,-298.488 759.163,-340.081 848,-438 859.185,-450.328 872.691,-462.648 884.907,-473.02"/>
<polygon fill="red" stroke="red" points="882.792,-475.813 892.712,-479.534 887.278,-470.439 882.792,-475.813"/>
</g>
<!-- mgterm&#45;&gt;mawait -->
<g id="edge22" class="edge"><title>mgterm&#45;&gt;mawait</title>
<path fill="none" stroke="blue" d="M548.012,-53.7833C426.095,-57.725 178.06,-69.2224 152,-98 128.696,-123.734 134.702,-165.193 143.503,-194.779"/>
<polygon fill="blue" stroke="blue" points="140.174,-195.861 146.556,-204.318 146.841,-193.727 140.174,-195.861"/>
</g>
<!-- dalock&#45;&gt;maacquire -->
<g id="edge28" class="edge"><title>dalock&#45;&gt;maacquire</title>
<path fill="none" stroke="blue" d="M446.116,-484.47C417.538,-470.099 374.839,-448.628 343.332,-432.784"/>
<polygon fill="blue" stroke="blue" points="344.859,-429.634 334.353,-428.269 341.714,-435.888 344.859,-429.634"/>
</g>
<!-- daqueue&#45;&gt;mgdequeue -->
<g id="edge24" class="edge"><title>daqueue&#45;&gt;mgdequeue</title>
<path fill="none" stroke="blue" d="M503.056,-392.824C518.985,-380.418 540.822,-363.413 559.105,-349.175"/>
<polygon fill="blue" stroke="blue" points="561.482,-351.76 567.222,-342.854 557.181,-346.237 561.482,-351.76"/>
</g>
<!-- wkreceive&#45;&gt;wkpreproc -->
<g id="edge15" class="edge"><title>wkreceive&#45;&gt;wkpreproc</title>
<path fill="none" stroke="black" d="M922.241,-474.073C923.261,-465.911 924.407,-456.744 925.499,-448.011"/>
<polygon fill="black" stroke="black" points="928.977,-448.403 926.744,-438.046 922.031,-447.534 928.977,-448.403"/>
</g>
<!-- wkproc -->
<g id="node20" class="node"><title>wkproc</title>
<ellipse fill="none" stroke="black" stroke-width="2" cx="933" cy="-321" rx="66.2022" ry="26.7407"/>
<text text-anchor="middle" x="933" y="-324.8" font-family="Times,serif" font-size="14.00">Execute</text>
<text text-anchor="middle" x="933" y="-309.8" font-family="Times,serif" font-size="14.00">basin&#45;hopping</text>
</g>
<!-- wkpreproc&#45;&gt;wkproc -->
<g id="edge16" class="edge"><title>wkpreproc&#45;&gt;wkproc</title>
<path fill="none" stroke="black" d="M930.884,-384.073C931.159,-375.999 931.468,-366.943 931.763,-358.296"/>
<polygon fill="black" stroke="black" points="935.269,-358.159 932.112,-348.046 928.273,-357.921 935.269,-358.159"/>
</g>
<!-- wkpostproc -->
<g id="node21" class="node"><title>wkpostproc</title>
<ellipse fill="none" stroke="black" cx="934" cy="-231" rx="67.3243" ry="26.7407"/>
<text text-anchor="middle" x="934" y="-234.8" font-family="Times,serif" font-size="14.00">Execute</text>
<text text-anchor="middle" x="934" y="-219.8" font-family="Times,serif" font-size="14.00">postprocessors</text>
</g>
<!-- wkproc&#45;&gt;wkpostproc -->
<g id="edge17" class="edge"><title>wkproc&#45;&gt;wkpostproc</title>
<path fill="none" stroke="black" d="M933.295,-294.073C933.386,-285.999 933.489,-276.943 933.588,-268.296"/>
<polygon fill="black" stroke="black" points="937.09,-268.085 933.704,-258.046 930.091,-268.005 937.09,-268.085"/>
</g>
<!-- wkpostproc&#45;&gt;mgwait -->
<g id="edge26" class="edge"><title>wkpostproc&#45;&gt;mgwait</title>
<path fill="none" stroke="blue" d="M850.332,-231C784.808,-231 719.284,-231 653.76,-231"/>
<polygon fill="blue" stroke="blue" points="653.752,-227.5 643.752,-231 653.752,-234.5 653.752,-227.5"/>
</g>
<!-- wksend -->
<g id="node22" class="node"><title>wksend</title>
<ellipse fill="none" stroke="black" cx="912" cy="-141" rx="45.4433" ry="26.7407"/>
<text text-anchor="middle" x="912" y="-144.8" font-family="Times,serif" font-size="14.00">Dispatch</text>
<text text-anchor="middle" x="912" y="-129.8" font-family="Times,serif" font-size="14.00">result</text>
</g>
<!-- wkpostproc&#45;&gt;wksend -->
<g id="edge18" class="edge"><title>wkpostproc&#45;&gt;wksend</title>
<path fill="none" stroke="black" d="M927.518,-204.073C925.437,-195.748 923.095,-186.378 920.873,-177.49"/>
<polygon fill="black" stroke="black" points="924.256,-176.594 918.435,-167.742 917.465,-178.292 924.256,-176.594"/>
</g>
<!-- wksend&#45;&gt;marecv -->
<g id="edge27" class="edge"><title>wksend&#45;&gt;marecv</title>
<path fill="none" stroke="red" d="M884.116,-162.324C872.203,-171.784 858.625,-183.662 848,-196 765.581,-291.712 804.946,-369.232 699,-438 597.454,-503.912 548.373,-453.848 429,-474 403.289,-478.34 374.839,-484.077 351.395,-489.058"/>
<polygon fill="red" stroke="red" points="350.385,-485.695 341.34,-491.212 351.852,-492.539 350.385,-485.695"/>
</g>
<!-- wksend&#45;&gt;mgterm -->
<g id="edge31" class="edge"><title>wksend&#45;&gt;mgterm</title>
<path fill="none" stroke="blue" d="M850.337,-121.729C799.821,-106.762 728.638,-85.6704 677.812,-70.6109"/>
<polygon fill="blue" stroke="blue" points="678.506,-67.1663 667.924,-67.6811 676.517,-73.8779 678.506,-67.1663"/>
</g>
</g>
</svg>
